G04 #@! TF.GenerationSoftware,KiCad,Pcbnew,(5.1.4)-1*
G04 #@! TF.CreationDate,2020-08-01T13:26:49+05:30*
G04 #@! TF.ProjectId,knob_32u4,6b6e6f62-5f33-4327-9534-2e6b69636164,rev?*
G04 #@! TF.SameCoordinates,Original*
G04 #@! TF.FileFunction,Paste,Top*
G04 #@! TF.FilePolarity,Positive*
%FSLAX46Y46*%
G04 Gerber Fmt 4.6, Leading zero omitted, Abs format (unit mm)*
G04 Created by KiCad (PCBNEW (5.1.4)-1) date 2020-08-01 13:26:49*
%MOMM*%
%LPD*%
G04 APERTURE LIST*
%ADD10R,2.000000X1.100000*%
%ADD11C,0.100000*%
%ADD12C,1.425000*%
%ADD13R,1.500000X0.550000*%
%ADD14R,0.550000X1.500000*%
G04 APERTURE END LIST*
D10*
X129200000Y-59700000D03*
X129200000Y-58000000D03*
X129200000Y-56300000D03*
X134000000Y-56300000D03*
X134000000Y-58000000D03*
X134000000Y-59700000D03*
D11*
G36*
X109649504Y-84288704D02*
G01*
X109673773Y-84292304D01*
X109697571Y-84298265D01*
X109720671Y-84306530D01*
X109742849Y-84317020D01*
X109763893Y-84329633D01*
X109783598Y-84344247D01*
X109801777Y-84360723D01*
X109818253Y-84378902D01*
X109832867Y-84398607D01*
X109845480Y-84419651D01*
X109855970Y-84441829D01*
X109864235Y-84464929D01*
X109870196Y-84488727D01*
X109873796Y-84512996D01*
X109875000Y-84537500D01*
X109875000Y-85462500D01*
X109873796Y-85487004D01*
X109870196Y-85511273D01*
X109864235Y-85535071D01*
X109855970Y-85558171D01*
X109845480Y-85580349D01*
X109832867Y-85601393D01*
X109818253Y-85621098D01*
X109801777Y-85639277D01*
X109783598Y-85655753D01*
X109763893Y-85670367D01*
X109742849Y-85682980D01*
X109720671Y-85693470D01*
X109697571Y-85701735D01*
X109673773Y-85707696D01*
X109649504Y-85711296D01*
X109625000Y-85712500D01*
X108375000Y-85712500D01*
X108350496Y-85711296D01*
X108326227Y-85707696D01*
X108302429Y-85701735D01*
X108279329Y-85693470D01*
X108257151Y-85682980D01*
X108236107Y-85670367D01*
X108216402Y-85655753D01*
X108198223Y-85639277D01*
X108181747Y-85621098D01*
X108167133Y-85601393D01*
X108154520Y-85580349D01*
X108144030Y-85558171D01*
X108135765Y-85535071D01*
X108129804Y-85511273D01*
X108126204Y-85487004D01*
X108125000Y-85462500D01*
X108125000Y-84537500D01*
X108126204Y-84512996D01*
X108129804Y-84488727D01*
X108135765Y-84464929D01*
X108144030Y-84441829D01*
X108154520Y-84419651D01*
X108167133Y-84398607D01*
X108181747Y-84378902D01*
X108198223Y-84360723D01*
X108216402Y-84344247D01*
X108236107Y-84329633D01*
X108257151Y-84317020D01*
X108279329Y-84306530D01*
X108302429Y-84298265D01*
X108326227Y-84292304D01*
X108350496Y-84288704D01*
X108375000Y-84287500D01*
X109625000Y-84287500D01*
X109649504Y-84288704D01*
X109649504Y-84288704D01*
G37*
D12*
X109000000Y-85000000D03*
D11*
G36*
X109649504Y-87263704D02*
G01*
X109673773Y-87267304D01*
X109697571Y-87273265D01*
X109720671Y-87281530D01*
X109742849Y-87292020D01*
X109763893Y-87304633D01*
X109783598Y-87319247D01*
X109801777Y-87335723D01*
X109818253Y-87353902D01*
X109832867Y-87373607D01*
X109845480Y-87394651D01*
X109855970Y-87416829D01*
X109864235Y-87439929D01*
X109870196Y-87463727D01*
X109873796Y-87487996D01*
X109875000Y-87512500D01*
X109875000Y-88437500D01*
X109873796Y-88462004D01*
X109870196Y-88486273D01*
X109864235Y-88510071D01*
X109855970Y-88533171D01*
X109845480Y-88555349D01*
X109832867Y-88576393D01*
X109818253Y-88596098D01*
X109801777Y-88614277D01*
X109783598Y-88630753D01*
X109763893Y-88645367D01*
X109742849Y-88657980D01*
X109720671Y-88668470D01*
X109697571Y-88676735D01*
X109673773Y-88682696D01*
X109649504Y-88686296D01*
X109625000Y-88687500D01*
X108375000Y-88687500D01*
X108350496Y-88686296D01*
X108326227Y-88682696D01*
X108302429Y-88676735D01*
X108279329Y-88668470D01*
X108257151Y-88657980D01*
X108236107Y-88645367D01*
X108216402Y-88630753D01*
X108198223Y-88614277D01*
X108181747Y-88596098D01*
X108167133Y-88576393D01*
X108154520Y-88555349D01*
X108144030Y-88533171D01*
X108135765Y-88510071D01*
X108129804Y-88486273D01*
X108126204Y-88462004D01*
X108125000Y-88437500D01*
X108125000Y-87512500D01*
X108126204Y-87487996D01*
X108129804Y-87463727D01*
X108135765Y-87439929D01*
X108144030Y-87416829D01*
X108154520Y-87394651D01*
X108167133Y-87373607D01*
X108181747Y-87353902D01*
X108198223Y-87335723D01*
X108216402Y-87319247D01*
X108236107Y-87304633D01*
X108257151Y-87292020D01*
X108279329Y-87281530D01*
X108302429Y-87273265D01*
X108326227Y-87267304D01*
X108350496Y-87263704D01*
X108375000Y-87262500D01*
X109625000Y-87262500D01*
X109649504Y-87263704D01*
X109649504Y-87263704D01*
G37*
D12*
X109000000Y-87975000D03*
D11*
G36*
X105649504Y-95776204D02*
G01*
X105673773Y-95779804D01*
X105697571Y-95785765D01*
X105720671Y-95794030D01*
X105742849Y-95804520D01*
X105763893Y-95817133D01*
X105783598Y-95831747D01*
X105801777Y-95848223D01*
X105818253Y-95866402D01*
X105832867Y-95886107D01*
X105845480Y-95907151D01*
X105855970Y-95929329D01*
X105864235Y-95952429D01*
X105870196Y-95976227D01*
X105873796Y-96000496D01*
X105875000Y-96025000D01*
X105875000Y-96950000D01*
X105873796Y-96974504D01*
X105870196Y-96998773D01*
X105864235Y-97022571D01*
X105855970Y-97045671D01*
X105845480Y-97067849D01*
X105832867Y-97088893D01*
X105818253Y-97108598D01*
X105801777Y-97126777D01*
X105783598Y-97143253D01*
X105763893Y-97157867D01*
X105742849Y-97170480D01*
X105720671Y-97180970D01*
X105697571Y-97189235D01*
X105673773Y-97195196D01*
X105649504Y-97198796D01*
X105625000Y-97200000D01*
X104375000Y-97200000D01*
X104350496Y-97198796D01*
X104326227Y-97195196D01*
X104302429Y-97189235D01*
X104279329Y-97180970D01*
X104257151Y-97170480D01*
X104236107Y-97157867D01*
X104216402Y-97143253D01*
X104198223Y-97126777D01*
X104181747Y-97108598D01*
X104167133Y-97088893D01*
X104154520Y-97067849D01*
X104144030Y-97045671D01*
X104135765Y-97022571D01*
X104129804Y-96998773D01*
X104126204Y-96974504D01*
X104125000Y-96950000D01*
X104125000Y-96025000D01*
X104126204Y-96000496D01*
X104129804Y-95976227D01*
X104135765Y-95952429D01*
X104144030Y-95929329D01*
X104154520Y-95907151D01*
X104167133Y-95886107D01*
X104181747Y-95866402D01*
X104198223Y-95848223D01*
X104216402Y-95831747D01*
X104236107Y-95817133D01*
X104257151Y-95804520D01*
X104279329Y-95794030D01*
X104302429Y-95785765D01*
X104326227Y-95779804D01*
X104350496Y-95776204D01*
X104375000Y-95775000D01*
X105625000Y-95775000D01*
X105649504Y-95776204D01*
X105649504Y-95776204D01*
G37*
D12*
X105000000Y-96487500D03*
D11*
G36*
X105649504Y-92801204D02*
G01*
X105673773Y-92804804D01*
X105697571Y-92810765D01*
X105720671Y-92819030D01*
X105742849Y-92829520D01*
X105763893Y-92842133D01*
X105783598Y-92856747D01*
X105801777Y-92873223D01*
X105818253Y-92891402D01*
X105832867Y-92911107D01*
X105845480Y-92932151D01*
X105855970Y-92954329D01*
X105864235Y-92977429D01*
X105870196Y-93001227D01*
X105873796Y-93025496D01*
X105875000Y-93050000D01*
X105875000Y-93975000D01*
X105873796Y-93999504D01*
X105870196Y-94023773D01*
X105864235Y-94047571D01*
X105855970Y-94070671D01*
X105845480Y-94092849D01*
X105832867Y-94113893D01*
X105818253Y-94133598D01*
X105801777Y-94151777D01*
X105783598Y-94168253D01*
X105763893Y-94182867D01*
X105742849Y-94195480D01*
X105720671Y-94205970D01*
X105697571Y-94214235D01*
X105673773Y-94220196D01*
X105649504Y-94223796D01*
X105625000Y-94225000D01*
X104375000Y-94225000D01*
X104350496Y-94223796D01*
X104326227Y-94220196D01*
X104302429Y-94214235D01*
X104279329Y-94205970D01*
X104257151Y-94195480D01*
X104236107Y-94182867D01*
X104216402Y-94168253D01*
X104198223Y-94151777D01*
X104181747Y-94133598D01*
X104167133Y-94113893D01*
X104154520Y-94092849D01*
X104144030Y-94070671D01*
X104135765Y-94047571D01*
X104129804Y-94023773D01*
X104126204Y-93999504D01*
X104125000Y-93975000D01*
X104125000Y-93050000D01*
X104126204Y-93025496D01*
X104129804Y-93001227D01*
X104135765Y-92977429D01*
X104144030Y-92954329D01*
X104154520Y-92932151D01*
X104167133Y-92911107D01*
X104181747Y-92891402D01*
X104198223Y-92873223D01*
X104216402Y-92856747D01*
X104236107Y-92842133D01*
X104257151Y-92829520D01*
X104279329Y-92819030D01*
X104302429Y-92810765D01*
X104326227Y-92804804D01*
X104350496Y-92801204D01*
X104375000Y-92800000D01*
X105625000Y-92800000D01*
X105649504Y-92801204D01*
X105649504Y-92801204D01*
G37*
D12*
X105000000Y-93512500D03*
D11*
G36*
X127149504Y-93263704D02*
G01*
X127173773Y-93267304D01*
X127197571Y-93273265D01*
X127220671Y-93281530D01*
X127242849Y-93292020D01*
X127263893Y-93304633D01*
X127283598Y-93319247D01*
X127301777Y-93335723D01*
X127318253Y-93353902D01*
X127332867Y-93373607D01*
X127345480Y-93394651D01*
X127355970Y-93416829D01*
X127364235Y-93439929D01*
X127370196Y-93463727D01*
X127373796Y-93487996D01*
X127375000Y-93512500D01*
X127375000Y-94437500D01*
X127373796Y-94462004D01*
X127370196Y-94486273D01*
X127364235Y-94510071D01*
X127355970Y-94533171D01*
X127345480Y-94555349D01*
X127332867Y-94576393D01*
X127318253Y-94596098D01*
X127301777Y-94614277D01*
X127283598Y-94630753D01*
X127263893Y-94645367D01*
X127242849Y-94657980D01*
X127220671Y-94668470D01*
X127197571Y-94676735D01*
X127173773Y-94682696D01*
X127149504Y-94686296D01*
X127125000Y-94687500D01*
X125875000Y-94687500D01*
X125850496Y-94686296D01*
X125826227Y-94682696D01*
X125802429Y-94676735D01*
X125779329Y-94668470D01*
X125757151Y-94657980D01*
X125736107Y-94645367D01*
X125716402Y-94630753D01*
X125698223Y-94614277D01*
X125681747Y-94596098D01*
X125667133Y-94576393D01*
X125654520Y-94555349D01*
X125644030Y-94533171D01*
X125635765Y-94510071D01*
X125629804Y-94486273D01*
X125626204Y-94462004D01*
X125625000Y-94437500D01*
X125625000Y-93512500D01*
X125626204Y-93487996D01*
X125629804Y-93463727D01*
X125635765Y-93439929D01*
X125644030Y-93416829D01*
X125654520Y-93394651D01*
X125667133Y-93373607D01*
X125681747Y-93353902D01*
X125698223Y-93335723D01*
X125716402Y-93319247D01*
X125736107Y-93304633D01*
X125757151Y-93292020D01*
X125779329Y-93281530D01*
X125802429Y-93273265D01*
X125826227Y-93267304D01*
X125850496Y-93263704D01*
X125875000Y-93262500D01*
X127125000Y-93262500D01*
X127149504Y-93263704D01*
X127149504Y-93263704D01*
G37*
D12*
X126500000Y-93975000D03*
D11*
G36*
X127149504Y-90288704D02*
G01*
X127173773Y-90292304D01*
X127197571Y-90298265D01*
X127220671Y-90306530D01*
X127242849Y-90317020D01*
X127263893Y-90329633D01*
X127283598Y-90344247D01*
X127301777Y-90360723D01*
X127318253Y-90378902D01*
X127332867Y-90398607D01*
X127345480Y-90419651D01*
X127355970Y-90441829D01*
X127364235Y-90464929D01*
X127370196Y-90488727D01*
X127373796Y-90512996D01*
X127375000Y-90537500D01*
X127375000Y-91462500D01*
X127373796Y-91487004D01*
X127370196Y-91511273D01*
X127364235Y-91535071D01*
X127355970Y-91558171D01*
X127345480Y-91580349D01*
X127332867Y-91601393D01*
X127318253Y-91621098D01*
X127301777Y-91639277D01*
X127283598Y-91655753D01*
X127263893Y-91670367D01*
X127242849Y-91682980D01*
X127220671Y-91693470D01*
X127197571Y-91701735D01*
X127173773Y-91707696D01*
X127149504Y-91711296D01*
X127125000Y-91712500D01*
X125875000Y-91712500D01*
X125850496Y-91711296D01*
X125826227Y-91707696D01*
X125802429Y-91701735D01*
X125779329Y-91693470D01*
X125757151Y-91682980D01*
X125736107Y-91670367D01*
X125716402Y-91655753D01*
X125698223Y-91639277D01*
X125681747Y-91621098D01*
X125667133Y-91601393D01*
X125654520Y-91580349D01*
X125644030Y-91558171D01*
X125635765Y-91535071D01*
X125629804Y-91511273D01*
X125626204Y-91487004D01*
X125625000Y-91462500D01*
X125625000Y-90537500D01*
X125626204Y-90512996D01*
X125629804Y-90488727D01*
X125635765Y-90464929D01*
X125644030Y-90441829D01*
X125654520Y-90419651D01*
X125667133Y-90398607D01*
X125681747Y-90378902D01*
X125698223Y-90360723D01*
X125716402Y-90344247D01*
X125736107Y-90329633D01*
X125757151Y-90317020D01*
X125779329Y-90306530D01*
X125802429Y-90298265D01*
X125826227Y-90292304D01*
X125850496Y-90288704D01*
X125875000Y-90287500D01*
X127125000Y-90287500D01*
X127149504Y-90288704D01*
X127149504Y-90288704D01*
G37*
D12*
X126500000Y-91000000D03*
D13*
X110300000Y-103000000D03*
X110300000Y-102200000D03*
X110300000Y-101400000D03*
X110300000Y-100600000D03*
X110300000Y-99800000D03*
X110300000Y-99000000D03*
X110300000Y-98200000D03*
X110300000Y-97400000D03*
X110300000Y-96600000D03*
X110300000Y-95800000D03*
X110300000Y-95000000D03*
D14*
X112000000Y-93300000D03*
X112800000Y-93300000D03*
X113600000Y-93300000D03*
X114400000Y-93300000D03*
X115200000Y-93300000D03*
X116000000Y-93300000D03*
X116800000Y-93300000D03*
X117600000Y-93300000D03*
X118400000Y-93300000D03*
X119200000Y-93300000D03*
X120000000Y-93300000D03*
D13*
X121700000Y-95000000D03*
X121700000Y-95800000D03*
X121700000Y-96600000D03*
X121700000Y-97400000D03*
X121700000Y-98200000D03*
X121700000Y-99000000D03*
X121700000Y-99800000D03*
X121700000Y-100600000D03*
X121700000Y-101400000D03*
X121700000Y-102200000D03*
X121700000Y-103000000D03*
D14*
X120000000Y-104700000D03*
X119200000Y-104700000D03*
X118400000Y-104700000D03*
X117600000Y-104700000D03*
X116800000Y-104700000D03*
X116000000Y-104700000D03*
X115200000Y-104700000D03*
X114400000Y-104700000D03*
X113600000Y-104700000D03*
X112800000Y-104700000D03*
X112000000Y-104700000D03*
D11*
G36*
X130474504Y-65626204D02*
G01*
X130498773Y-65629804D01*
X130522571Y-65635765D01*
X130545671Y-65644030D01*
X130567849Y-65654520D01*
X130588893Y-65667133D01*
X130608598Y-65681747D01*
X130626777Y-65698223D01*
X130643253Y-65716402D01*
X130657867Y-65736107D01*
X130670480Y-65757151D01*
X130680970Y-65779329D01*
X130689235Y-65802429D01*
X130695196Y-65826227D01*
X130698796Y-65850496D01*
X130700000Y-65875000D01*
X130700000Y-67125000D01*
X130698796Y-67149504D01*
X130695196Y-67173773D01*
X130689235Y-67197571D01*
X130680970Y-67220671D01*
X130670480Y-67242849D01*
X130657867Y-67263893D01*
X130643253Y-67283598D01*
X130626777Y-67301777D01*
X130608598Y-67318253D01*
X130588893Y-67332867D01*
X130567849Y-67345480D01*
X130545671Y-67355970D01*
X130522571Y-67364235D01*
X130498773Y-67370196D01*
X130474504Y-67373796D01*
X130450000Y-67375000D01*
X129525000Y-67375000D01*
X129500496Y-67373796D01*
X129476227Y-67370196D01*
X129452429Y-67364235D01*
X129429329Y-67355970D01*
X129407151Y-67345480D01*
X129386107Y-67332867D01*
X129366402Y-67318253D01*
X129348223Y-67301777D01*
X129331747Y-67283598D01*
X129317133Y-67263893D01*
X129304520Y-67242849D01*
X129294030Y-67220671D01*
X129285765Y-67197571D01*
X129279804Y-67173773D01*
X129276204Y-67149504D01*
X129275000Y-67125000D01*
X129275000Y-65875000D01*
X129276204Y-65850496D01*
X129279804Y-65826227D01*
X129285765Y-65802429D01*
X129294030Y-65779329D01*
X129304520Y-65757151D01*
X129317133Y-65736107D01*
X129331747Y-65716402D01*
X129348223Y-65698223D01*
X129366402Y-65681747D01*
X129386107Y-65667133D01*
X129407151Y-65654520D01*
X129429329Y-65644030D01*
X129452429Y-65635765D01*
X129476227Y-65629804D01*
X129500496Y-65626204D01*
X129525000Y-65625000D01*
X130450000Y-65625000D01*
X130474504Y-65626204D01*
X130474504Y-65626204D01*
G37*
D12*
X129987500Y-66500000D03*
D11*
G36*
X127499504Y-65626204D02*
G01*
X127523773Y-65629804D01*
X127547571Y-65635765D01*
X127570671Y-65644030D01*
X127592849Y-65654520D01*
X127613893Y-65667133D01*
X127633598Y-65681747D01*
X127651777Y-65698223D01*
X127668253Y-65716402D01*
X127682867Y-65736107D01*
X127695480Y-65757151D01*
X127705970Y-65779329D01*
X127714235Y-65802429D01*
X127720196Y-65826227D01*
X127723796Y-65850496D01*
X127725000Y-65875000D01*
X127725000Y-67125000D01*
X127723796Y-67149504D01*
X127720196Y-67173773D01*
X127714235Y-67197571D01*
X127705970Y-67220671D01*
X127695480Y-67242849D01*
X127682867Y-67263893D01*
X127668253Y-67283598D01*
X127651777Y-67301777D01*
X127633598Y-67318253D01*
X127613893Y-67332867D01*
X127592849Y-67345480D01*
X127570671Y-67355970D01*
X127547571Y-67364235D01*
X127523773Y-67370196D01*
X127499504Y-67373796D01*
X127475000Y-67375000D01*
X126550000Y-67375000D01*
X126525496Y-67373796D01*
X126501227Y-67370196D01*
X126477429Y-67364235D01*
X126454329Y-67355970D01*
X126432151Y-67345480D01*
X126411107Y-67332867D01*
X126391402Y-67318253D01*
X126373223Y-67301777D01*
X126356747Y-67283598D01*
X126342133Y-67263893D01*
X126329520Y-67242849D01*
X126319030Y-67220671D01*
X126310765Y-67197571D01*
X126304804Y-67173773D01*
X126301204Y-67149504D01*
X126300000Y-67125000D01*
X126300000Y-65875000D01*
X126301204Y-65850496D01*
X126304804Y-65826227D01*
X126310765Y-65802429D01*
X126319030Y-65779329D01*
X126329520Y-65757151D01*
X126342133Y-65736107D01*
X126356747Y-65716402D01*
X126373223Y-65698223D01*
X126391402Y-65681747D01*
X126411107Y-65667133D01*
X126432151Y-65654520D01*
X126454329Y-65644030D01*
X126477429Y-65635765D01*
X126501227Y-65629804D01*
X126525496Y-65626204D01*
X126550000Y-65625000D01*
X127475000Y-65625000D01*
X127499504Y-65626204D01*
X127499504Y-65626204D01*
G37*
D12*
X127012500Y-66500000D03*
D11*
G36*
X133745504Y-80568704D02*
G01*
X133769773Y-80572304D01*
X133793571Y-80578265D01*
X133816671Y-80586530D01*
X133838849Y-80597020D01*
X133859893Y-80609633D01*
X133879598Y-80624247D01*
X133897777Y-80640723D01*
X133914253Y-80658902D01*
X133928867Y-80678607D01*
X133941480Y-80699651D01*
X133951970Y-80721829D01*
X133960235Y-80744929D01*
X133966196Y-80768727D01*
X133969796Y-80792996D01*
X133971000Y-80817500D01*
X133971000Y-81742500D01*
X133969796Y-81767004D01*
X133966196Y-81791273D01*
X133960235Y-81815071D01*
X133951970Y-81838171D01*
X133941480Y-81860349D01*
X133928867Y-81881393D01*
X133914253Y-81901098D01*
X133897777Y-81919277D01*
X133879598Y-81935753D01*
X133859893Y-81950367D01*
X133838849Y-81962980D01*
X133816671Y-81973470D01*
X133793571Y-81981735D01*
X133769773Y-81987696D01*
X133745504Y-81991296D01*
X133721000Y-81992500D01*
X132471000Y-81992500D01*
X132446496Y-81991296D01*
X132422227Y-81987696D01*
X132398429Y-81981735D01*
X132375329Y-81973470D01*
X132353151Y-81962980D01*
X132332107Y-81950367D01*
X132312402Y-81935753D01*
X132294223Y-81919277D01*
X132277747Y-81901098D01*
X132263133Y-81881393D01*
X132250520Y-81860349D01*
X132240030Y-81838171D01*
X132231765Y-81815071D01*
X132225804Y-81791273D01*
X132222204Y-81767004D01*
X132221000Y-81742500D01*
X132221000Y-80817500D01*
X132222204Y-80792996D01*
X132225804Y-80768727D01*
X132231765Y-80744929D01*
X132240030Y-80721829D01*
X132250520Y-80699651D01*
X132263133Y-80678607D01*
X132277747Y-80658902D01*
X132294223Y-80640723D01*
X132312402Y-80624247D01*
X132332107Y-80609633D01*
X132353151Y-80597020D01*
X132375329Y-80586530D01*
X132398429Y-80578265D01*
X132422227Y-80572304D01*
X132446496Y-80568704D01*
X132471000Y-80567500D01*
X133721000Y-80567500D01*
X133745504Y-80568704D01*
X133745504Y-80568704D01*
G37*
D12*
X133096000Y-81280000D03*
D11*
G36*
X133745504Y-83543704D02*
G01*
X133769773Y-83547304D01*
X133793571Y-83553265D01*
X133816671Y-83561530D01*
X133838849Y-83572020D01*
X133859893Y-83584633D01*
X133879598Y-83599247D01*
X133897777Y-83615723D01*
X133914253Y-83633902D01*
X133928867Y-83653607D01*
X133941480Y-83674651D01*
X133951970Y-83696829D01*
X133960235Y-83719929D01*
X133966196Y-83743727D01*
X133969796Y-83767996D01*
X133971000Y-83792500D01*
X133971000Y-84717500D01*
X133969796Y-84742004D01*
X133966196Y-84766273D01*
X133960235Y-84790071D01*
X133951970Y-84813171D01*
X133941480Y-84835349D01*
X133928867Y-84856393D01*
X133914253Y-84876098D01*
X133897777Y-84894277D01*
X133879598Y-84910753D01*
X133859893Y-84925367D01*
X133838849Y-84937980D01*
X133816671Y-84948470D01*
X133793571Y-84956735D01*
X133769773Y-84962696D01*
X133745504Y-84966296D01*
X133721000Y-84967500D01*
X132471000Y-84967500D01*
X132446496Y-84966296D01*
X132422227Y-84962696D01*
X132398429Y-84956735D01*
X132375329Y-84948470D01*
X132353151Y-84937980D01*
X132332107Y-84925367D01*
X132312402Y-84910753D01*
X132294223Y-84894277D01*
X132277747Y-84876098D01*
X132263133Y-84856393D01*
X132250520Y-84835349D01*
X132240030Y-84813171D01*
X132231765Y-84790071D01*
X132225804Y-84766273D01*
X132222204Y-84742004D01*
X132221000Y-84717500D01*
X132221000Y-83792500D01*
X132222204Y-83767996D01*
X132225804Y-83743727D01*
X132231765Y-83719929D01*
X132240030Y-83696829D01*
X132250520Y-83674651D01*
X132263133Y-83653607D01*
X132277747Y-83633902D01*
X132294223Y-83615723D01*
X132312402Y-83599247D01*
X132332107Y-83584633D01*
X132353151Y-83572020D01*
X132375329Y-83561530D01*
X132398429Y-83553265D01*
X132422227Y-83547304D01*
X132446496Y-83543704D01*
X132471000Y-83542500D01*
X133721000Y-83542500D01*
X133745504Y-83543704D01*
X133745504Y-83543704D01*
G37*
D12*
X133096000Y-84255000D03*
D11*
G36*
X107649504Y-68763704D02*
G01*
X107673773Y-68767304D01*
X107697571Y-68773265D01*
X107720671Y-68781530D01*
X107742849Y-68792020D01*
X107763893Y-68804633D01*
X107783598Y-68819247D01*
X107801777Y-68835723D01*
X107818253Y-68853902D01*
X107832867Y-68873607D01*
X107845480Y-68894651D01*
X107855970Y-68916829D01*
X107864235Y-68939929D01*
X107870196Y-68963727D01*
X107873796Y-68987996D01*
X107875000Y-69012500D01*
X107875000Y-69937500D01*
X107873796Y-69962004D01*
X107870196Y-69986273D01*
X107864235Y-70010071D01*
X107855970Y-70033171D01*
X107845480Y-70055349D01*
X107832867Y-70076393D01*
X107818253Y-70096098D01*
X107801777Y-70114277D01*
X107783598Y-70130753D01*
X107763893Y-70145367D01*
X107742849Y-70157980D01*
X107720671Y-70168470D01*
X107697571Y-70176735D01*
X107673773Y-70182696D01*
X107649504Y-70186296D01*
X107625000Y-70187500D01*
X106375000Y-70187500D01*
X106350496Y-70186296D01*
X106326227Y-70182696D01*
X106302429Y-70176735D01*
X106279329Y-70168470D01*
X106257151Y-70157980D01*
X106236107Y-70145367D01*
X106216402Y-70130753D01*
X106198223Y-70114277D01*
X106181747Y-70096098D01*
X106167133Y-70076393D01*
X106154520Y-70055349D01*
X106144030Y-70033171D01*
X106135765Y-70010071D01*
X106129804Y-69986273D01*
X106126204Y-69962004D01*
X106125000Y-69937500D01*
X106125000Y-69012500D01*
X106126204Y-68987996D01*
X106129804Y-68963727D01*
X106135765Y-68939929D01*
X106144030Y-68916829D01*
X106154520Y-68894651D01*
X106167133Y-68873607D01*
X106181747Y-68853902D01*
X106198223Y-68835723D01*
X106216402Y-68819247D01*
X106236107Y-68804633D01*
X106257151Y-68792020D01*
X106279329Y-68781530D01*
X106302429Y-68773265D01*
X106326227Y-68767304D01*
X106350496Y-68763704D01*
X106375000Y-68762500D01*
X107625000Y-68762500D01*
X107649504Y-68763704D01*
X107649504Y-68763704D01*
G37*
D12*
X107000000Y-69475000D03*
D11*
G36*
X107649504Y-65788704D02*
G01*
X107673773Y-65792304D01*
X107697571Y-65798265D01*
X107720671Y-65806530D01*
X107742849Y-65817020D01*
X107763893Y-65829633D01*
X107783598Y-65844247D01*
X107801777Y-65860723D01*
X107818253Y-65878902D01*
X107832867Y-65898607D01*
X107845480Y-65919651D01*
X107855970Y-65941829D01*
X107864235Y-65964929D01*
X107870196Y-65988727D01*
X107873796Y-66012996D01*
X107875000Y-66037500D01*
X107875000Y-66962500D01*
X107873796Y-66987004D01*
X107870196Y-67011273D01*
X107864235Y-67035071D01*
X107855970Y-67058171D01*
X107845480Y-67080349D01*
X107832867Y-67101393D01*
X107818253Y-67121098D01*
X107801777Y-67139277D01*
X107783598Y-67155753D01*
X107763893Y-67170367D01*
X107742849Y-67182980D01*
X107720671Y-67193470D01*
X107697571Y-67201735D01*
X107673773Y-67207696D01*
X107649504Y-67211296D01*
X107625000Y-67212500D01*
X106375000Y-67212500D01*
X106350496Y-67211296D01*
X106326227Y-67207696D01*
X106302429Y-67201735D01*
X106279329Y-67193470D01*
X106257151Y-67182980D01*
X106236107Y-67170367D01*
X106216402Y-67155753D01*
X106198223Y-67139277D01*
X106181747Y-67121098D01*
X106167133Y-67101393D01*
X106154520Y-67080349D01*
X106144030Y-67058171D01*
X106135765Y-67035071D01*
X106129804Y-67011273D01*
X106126204Y-66987004D01*
X106125000Y-66962500D01*
X106125000Y-66037500D01*
X106126204Y-66012996D01*
X106129804Y-65988727D01*
X106135765Y-65964929D01*
X106144030Y-65941829D01*
X106154520Y-65919651D01*
X106167133Y-65898607D01*
X106181747Y-65878902D01*
X106198223Y-65860723D01*
X106216402Y-65844247D01*
X106236107Y-65829633D01*
X106257151Y-65817020D01*
X106279329Y-65806530D01*
X106302429Y-65798265D01*
X106326227Y-65792304D01*
X106350496Y-65788704D01*
X106375000Y-65787500D01*
X107625000Y-65787500D01*
X107649504Y-65788704D01*
X107649504Y-65788704D01*
G37*
D12*
X107000000Y-66500000D03*
D11*
G36*
X124487004Y-61126204D02*
G01*
X124511273Y-61129804D01*
X124535071Y-61135765D01*
X124558171Y-61144030D01*
X124580349Y-61154520D01*
X124601393Y-61167133D01*
X124621098Y-61181747D01*
X124639277Y-61198223D01*
X124655753Y-61216402D01*
X124670367Y-61236107D01*
X124682980Y-61257151D01*
X124693470Y-61279329D01*
X124701735Y-61302429D01*
X124707696Y-61326227D01*
X124711296Y-61350496D01*
X124712500Y-61375000D01*
X124712500Y-62625000D01*
X124711296Y-62649504D01*
X124707696Y-62673773D01*
X124701735Y-62697571D01*
X124693470Y-62720671D01*
X124682980Y-62742849D01*
X124670367Y-62763893D01*
X124655753Y-62783598D01*
X124639277Y-62801777D01*
X124621098Y-62818253D01*
X124601393Y-62832867D01*
X124580349Y-62845480D01*
X124558171Y-62855970D01*
X124535071Y-62864235D01*
X124511273Y-62870196D01*
X124487004Y-62873796D01*
X124462500Y-62875000D01*
X123537500Y-62875000D01*
X123512996Y-62873796D01*
X123488727Y-62870196D01*
X123464929Y-62864235D01*
X123441829Y-62855970D01*
X123419651Y-62845480D01*
X123398607Y-62832867D01*
X123378902Y-62818253D01*
X123360723Y-62801777D01*
X123344247Y-62783598D01*
X123329633Y-62763893D01*
X123317020Y-62742849D01*
X123306530Y-62720671D01*
X123298265Y-62697571D01*
X123292304Y-62673773D01*
X123288704Y-62649504D01*
X123287500Y-62625000D01*
X123287500Y-61375000D01*
X123288704Y-61350496D01*
X123292304Y-61326227D01*
X123298265Y-61302429D01*
X123306530Y-61279329D01*
X123317020Y-61257151D01*
X123329633Y-61236107D01*
X123344247Y-61216402D01*
X123360723Y-61198223D01*
X123378902Y-61181747D01*
X123398607Y-61167133D01*
X123419651Y-61154520D01*
X123441829Y-61144030D01*
X123464929Y-61135765D01*
X123488727Y-61129804D01*
X123512996Y-61126204D01*
X123537500Y-61125000D01*
X124462500Y-61125000D01*
X124487004Y-61126204D01*
X124487004Y-61126204D01*
G37*
D12*
X124000000Y-62000000D03*
D11*
G36*
X121512004Y-61126204D02*
G01*
X121536273Y-61129804D01*
X121560071Y-61135765D01*
X121583171Y-61144030D01*
X121605349Y-61154520D01*
X121626393Y-61167133D01*
X121646098Y-61181747D01*
X121664277Y-61198223D01*
X121680753Y-61216402D01*
X121695367Y-61236107D01*
X121707980Y-61257151D01*
X121718470Y-61279329D01*
X121726735Y-61302429D01*
X121732696Y-61326227D01*
X121736296Y-61350496D01*
X121737500Y-61375000D01*
X121737500Y-62625000D01*
X121736296Y-62649504D01*
X121732696Y-62673773D01*
X121726735Y-62697571D01*
X121718470Y-62720671D01*
X121707980Y-62742849D01*
X121695367Y-62763893D01*
X121680753Y-62783598D01*
X121664277Y-62801777D01*
X121646098Y-62818253D01*
X121626393Y-62832867D01*
X121605349Y-62845480D01*
X121583171Y-62855970D01*
X121560071Y-62864235D01*
X121536273Y-62870196D01*
X121512004Y-62873796D01*
X121487500Y-62875000D01*
X120562500Y-62875000D01*
X120537996Y-62873796D01*
X120513727Y-62870196D01*
X120489929Y-62864235D01*
X120466829Y-62855970D01*
X120444651Y-62845480D01*
X120423607Y-62832867D01*
X120403902Y-62818253D01*
X120385723Y-62801777D01*
X120369247Y-62783598D01*
X120354633Y-62763893D01*
X120342020Y-62742849D01*
X120331530Y-62720671D01*
X120323265Y-62697571D01*
X120317304Y-62673773D01*
X120313704Y-62649504D01*
X120312500Y-62625000D01*
X120312500Y-61375000D01*
X120313704Y-61350496D01*
X120317304Y-61326227D01*
X120323265Y-61302429D01*
X120331530Y-61279329D01*
X120342020Y-61257151D01*
X120354633Y-61236107D01*
X120369247Y-61216402D01*
X120385723Y-61198223D01*
X120403902Y-61181747D01*
X120423607Y-61167133D01*
X120444651Y-61154520D01*
X120466829Y-61144030D01*
X120489929Y-61135765D01*
X120513727Y-61129804D01*
X120537996Y-61126204D01*
X120562500Y-61125000D01*
X121487500Y-61125000D01*
X121512004Y-61126204D01*
X121512004Y-61126204D01*
G37*
D12*
X121025000Y-62000000D03*
D11*
G36*
X124474504Y-57126204D02*
G01*
X124498773Y-57129804D01*
X124522571Y-57135765D01*
X124545671Y-57144030D01*
X124567849Y-57154520D01*
X124588893Y-57167133D01*
X124608598Y-57181747D01*
X124626777Y-57198223D01*
X124643253Y-57216402D01*
X124657867Y-57236107D01*
X124670480Y-57257151D01*
X124680970Y-57279329D01*
X124689235Y-57302429D01*
X124695196Y-57326227D01*
X124698796Y-57350496D01*
X124700000Y-57375000D01*
X124700000Y-58625000D01*
X124698796Y-58649504D01*
X124695196Y-58673773D01*
X124689235Y-58697571D01*
X124680970Y-58720671D01*
X124670480Y-58742849D01*
X124657867Y-58763893D01*
X124643253Y-58783598D01*
X124626777Y-58801777D01*
X124608598Y-58818253D01*
X124588893Y-58832867D01*
X124567849Y-58845480D01*
X124545671Y-58855970D01*
X124522571Y-58864235D01*
X124498773Y-58870196D01*
X124474504Y-58873796D01*
X124450000Y-58875000D01*
X123525000Y-58875000D01*
X123500496Y-58873796D01*
X123476227Y-58870196D01*
X123452429Y-58864235D01*
X123429329Y-58855970D01*
X123407151Y-58845480D01*
X123386107Y-58832867D01*
X123366402Y-58818253D01*
X123348223Y-58801777D01*
X123331747Y-58783598D01*
X123317133Y-58763893D01*
X123304520Y-58742849D01*
X123294030Y-58720671D01*
X123285765Y-58697571D01*
X123279804Y-58673773D01*
X123276204Y-58649504D01*
X123275000Y-58625000D01*
X123275000Y-57375000D01*
X123276204Y-57350496D01*
X123279804Y-57326227D01*
X123285765Y-57302429D01*
X123294030Y-57279329D01*
X123304520Y-57257151D01*
X123317133Y-57236107D01*
X123331747Y-57216402D01*
X123348223Y-57198223D01*
X123366402Y-57181747D01*
X123386107Y-57167133D01*
X123407151Y-57154520D01*
X123429329Y-57144030D01*
X123452429Y-57135765D01*
X123476227Y-57129804D01*
X123500496Y-57126204D01*
X123525000Y-57125000D01*
X124450000Y-57125000D01*
X124474504Y-57126204D01*
X124474504Y-57126204D01*
G37*
D12*
X123987500Y-58000000D03*
D11*
G36*
X121499504Y-57126204D02*
G01*
X121523773Y-57129804D01*
X121547571Y-57135765D01*
X121570671Y-57144030D01*
X121592849Y-57154520D01*
X121613893Y-57167133D01*
X121633598Y-57181747D01*
X121651777Y-57198223D01*
X121668253Y-57216402D01*
X121682867Y-57236107D01*
X121695480Y-57257151D01*
X121705970Y-57279329D01*
X121714235Y-57302429D01*
X121720196Y-57326227D01*
X121723796Y-57350496D01*
X121725000Y-57375000D01*
X121725000Y-58625000D01*
X121723796Y-58649504D01*
X121720196Y-58673773D01*
X121714235Y-58697571D01*
X121705970Y-58720671D01*
X121695480Y-58742849D01*
X121682867Y-58763893D01*
X121668253Y-58783598D01*
X121651777Y-58801777D01*
X121633598Y-58818253D01*
X121613893Y-58832867D01*
X121592849Y-58845480D01*
X121570671Y-58855970D01*
X121547571Y-58864235D01*
X121523773Y-58870196D01*
X121499504Y-58873796D01*
X121475000Y-58875000D01*
X120550000Y-58875000D01*
X120525496Y-58873796D01*
X120501227Y-58870196D01*
X120477429Y-58864235D01*
X120454329Y-58855970D01*
X120432151Y-58845480D01*
X120411107Y-58832867D01*
X120391402Y-58818253D01*
X120373223Y-58801777D01*
X120356747Y-58783598D01*
X120342133Y-58763893D01*
X120329520Y-58742849D01*
X120319030Y-58720671D01*
X120310765Y-58697571D01*
X120304804Y-58673773D01*
X120301204Y-58649504D01*
X120300000Y-58625000D01*
X120300000Y-57375000D01*
X120301204Y-57350496D01*
X120304804Y-57326227D01*
X120310765Y-57302429D01*
X120319030Y-57279329D01*
X120329520Y-57257151D01*
X120342133Y-57236107D01*
X120356747Y-57216402D01*
X120373223Y-57198223D01*
X120391402Y-57181747D01*
X120411107Y-57167133D01*
X120432151Y-57154520D01*
X120454329Y-57144030D01*
X120477429Y-57135765D01*
X120501227Y-57129804D01*
X120525496Y-57126204D01*
X120550000Y-57125000D01*
X121475000Y-57125000D01*
X121499504Y-57126204D01*
X121499504Y-57126204D01*
G37*
D12*
X121012500Y-58000000D03*
D11*
G36*
X124487004Y-53126204D02*
G01*
X124511273Y-53129804D01*
X124535071Y-53135765D01*
X124558171Y-53144030D01*
X124580349Y-53154520D01*
X124601393Y-53167133D01*
X124621098Y-53181747D01*
X124639277Y-53198223D01*
X124655753Y-53216402D01*
X124670367Y-53236107D01*
X124682980Y-53257151D01*
X124693470Y-53279329D01*
X124701735Y-53302429D01*
X124707696Y-53326227D01*
X124711296Y-53350496D01*
X124712500Y-53375000D01*
X124712500Y-54625000D01*
X124711296Y-54649504D01*
X124707696Y-54673773D01*
X124701735Y-54697571D01*
X124693470Y-54720671D01*
X124682980Y-54742849D01*
X124670367Y-54763893D01*
X124655753Y-54783598D01*
X124639277Y-54801777D01*
X124621098Y-54818253D01*
X124601393Y-54832867D01*
X124580349Y-54845480D01*
X124558171Y-54855970D01*
X124535071Y-54864235D01*
X124511273Y-54870196D01*
X124487004Y-54873796D01*
X124462500Y-54875000D01*
X123537500Y-54875000D01*
X123512996Y-54873796D01*
X123488727Y-54870196D01*
X123464929Y-54864235D01*
X123441829Y-54855970D01*
X123419651Y-54845480D01*
X123398607Y-54832867D01*
X123378902Y-54818253D01*
X123360723Y-54801777D01*
X123344247Y-54783598D01*
X123329633Y-54763893D01*
X123317020Y-54742849D01*
X123306530Y-54720671D01*
X123298265Y-54697571D01*
X123292304Y-54673773D01*
X123288704Y-54649504D01*
X123287500Y-54625000D01*
X123287500Y-53375000D01*
X123288704Y-53350496D01*
X123292304Y-53326227D01*
X123298265Y-53302429D01*
X123306530Y-53279329D01*
X123317020Y-53257151D01*
X123329633Y-53236107D01*
X123344247Y-53216402D01*
X123360723Y-53198223D01*
X123378902Y-53181747D01*
X123398607Y-53167133D01*
X123419651Y-53154520D01*
X123441829Y-53144030D01*
X123464929Y-53135765D01*
X123488727Y-53129804D01*
X123512996Y-53126204D01*
X123537500Y-53125000D01*
X124462500Y-53125000D01*
X124487004Y-53126204D01*
X124487004Y-53126204D01*
G37*
D12*
X124000000Y-54000000D03*
D11*
G36*
X121512004Y-53126204D02*
G01*
X121536273Y-53129804D01*
X121560071Y-53135765D01*
X121583171Y-53144030D01*
X121605349Y-53154520D01*
X121626393Y-53167133D01*
X121646098Y-53181747D01*
X121664277Y-53198223D01*
X121680753Y-53216402D01*
X121695367Y-53236107D01*
X121707980Y-53257151D01*
X121718470Y-53279329D01*
X121726735Y-53302429D01*
X121732696Y-53326227D01*
X121736296Y-53350496D01*
X121737500Y-53375000D01*
X121737500Y-54625000D01*
X121736296Y-54649504D01*
X121732696Y-54673773D01*
X121726735Y-54697571D01*
X121718470Y-54720671D01*
X121707980Y-54742849D01*
X121695367Y-54763893D01*
X121680753Y-54783598D01*
X121664277Y-54801777D01*
X121646098Y-54818253D01*
X121626393Y-54832867D01*
X121605349Y-54845480D01*
X121583171Y-54855970D01*
X121560071Y-54864235D01*
X121536273Y-54870196D01*
X121512004Y-54873796D01*
X121487500Y-54875000D01*
X120562500Y-54875000D01*
X120537996Y-54873796D01*
X120513727Y-54870196D01*
X120489929Y-54864235D01*
X120466829Y-54855970D01*
X120444651Y-54845480D01*
X120423607Y-54832867D01*
X120403902Y-54818253D01*
X120385723Y-54801777D01*
X120369247Y-54783598D01*
X120354633Y-54763893D01*
X120342020Y-54742849D01*
X120331530Y-54720671D01*
X120323265Y-54697571D01*
X120317304Y-54673773D01*
X120313704Y-54649504D01*
X120312500Y-54625000D01*
X120312500Y-53375000D01*
X120313704Y-53350496D01*
X120317304Y-53326227D01*
X120323265Y-53302429D01*
X120331530Y-53279329D01*
X120342020Y-53257151D01*
X120354633Y-53236107D01*
X120369247Y-53216402D01*
X120385723Y-53198223D01*
X120403902Y-53181747D01*
X120423607Y-53167133D01*
X120444651Y-53154520D01*
X120466829Y-53144030D01*
X120489929Y-53135765D01*
X120513727Y-53129804D01*
X120537996Y-53126204D01*
X120562500Y-53125000D01*
X121487500Y-53125000D01*
X121512004Y-53126204D01*
X121512004Y-53126204D01*
G37*
D12*
X121025000Y-54000000D03*
D11*
G36*
X127649504Y-107788704D02*
G01*
X127673773Y-107792304D01*
X127697571Y-107798265D01*
X127720671Y-107806530D01*
X127742849Y-107817020D01*
X127763893Y-107829633D01*
X127783598Y-107844247D01*
X127801777Y-107860723D01*
X127818253Y-107878902D01*
X127832867Y-107898607D01*
X127845480Y-107919651D01*
X127855970Y-107941829D01*
X127864235Y-107964929D01*
X127870196Y-107988727D01*
X127873796Y-108012996D01*
X127875000Y-108037500D01*
X127875000Y-108962500D01*
X127873796Y-108987004D01*
X127870196Y-109011273D01*
X127864235Y-109035071D01*
X127855970Y-109058171D01*
X127845480Y-109080349D01*
X127832867Y-109101393D01*
X127818253Y-109121098D01*
X127801777Y-109139277D01*
X127783598Y-109155753D01*
X127763893Y-109170367D01*
X127742849Y-109182980D01*
X127720671Y-109193470D01*
X127697571Y-109201735D01*
X127673773Y-109207696D01*
X127649504Y-109211296D01*
X127625000Y-109212500D01*
X126375000Y-109212500D01*
X126350496Y-109211296D01*
X126326227Y-109207696D01*
X126302429Y-109201735D01*
X126279329Y-109193470D01*
X126257151Y-109182980D01*
X126236107Y-109170367D01*
X126216402Y-109155753D01*
X126198223Y-109139277D01*
X126181747Y-109121098D01*
X126167133Y-109101393D01*
X126154520Y-109080349D01*
X126144030Y-109058171D01*
X126135765Y-109035071D01*
X126129804Y-109011273D01*
X126126204Y-108987004D01*
X126125000Y-108962500D01*
X126125000Y-108037500D01*
X126126204Y-108012996D01*
X126129804Y-107988727D01*
X126135765Y-107964929D01*
X126144030Y-107941829D01*
X126154520Y-107919651D01*
X126167133Y-107898607D01*
X126181747Y-107878902D01*
X126198223Y-107860723D01*
X126216402Y-107844247D01*
X126236107Y-107829633D01*
X126257151Y-107817020D01*
X126279329Y-107806530D01*
X126302429Y-107798265D01*
X126326227Y-107792304D01*
X126350496Y-107788704D01*
X126375000Y-107787500D01*
X127625000Y-107787500D01*
X127649504Y-107788704D01*
X127649504Y-107788704D01*
G37*
D12*
X127000000Y-108500000D03*
D11*
G36*
X127649504Y-104813704D02*
G01*
X127673773Y-104817304D01*
X127697571Y-104823265D01*
X127720671Y-104831530D01*
X127742849Y-104842020D01*
X127763893Y-104854633D01*
X127783598Y-104869247D01*
X127801777Y-104885723D01*
X127818253Y-104903902D01*
X127832867Y-104923607D01*
X127845480Y-104944651D01*
X127855970Y-104966829D01*
X127864235Y-104989929D01*
X127870196Y-105013727D01*
X127873796Y-105037996D01*
X127875000Y-105062500D01*
X127875000Y-105987500D01*
X127873796Y-106012004D01*
X127870196Y-106036273D01*
X127864235Y-106060071D01*
X127855970Y-106083171D01*
X127845480Y-106105349D01*
X127832867Y-106126393D01*
X127818253Y-106146098D01*
X127801777Y-106164277D01*
X127783598Y-106180753D01*
X127763893Y-106195367D01*
X127742849Y-106207980D01*
X127720671Y-106218470D01*
X127697571Y-106226735D01*
X127673773Y-106232696D01*
X127649504Y-106236296D01*
X127625000Y-106237500D01*
X126375000Y-106237500D01*
X126350496Y-106236296D01*
X126326227Y-106232696D01*
X126302429Y-106226735D01*
X126279329Y-106218470D01*
X126257151Y-106207980D01*
X126236107Y-106195367D01*
X126216402Y-106180753D01*
X126198223Y-106164277D01*
X126181747Y-106146098D01*
X126167133Y-106126393D01*
X126154520Y-106105349D01*
X126144030Y-106083171D01*
X126135765Y-106060071D01*
X126129804Y-106036273D01*
X126126204Y-106012004D01*
X126125000Y-105987500D01*
X126125000Y-105062500D01*
X126126204Y-105037996D01*
X126129804Y-105013727D01*
X126135765Y-104989929D01*
X126144030Y-104966829D01*
X126154520Y-104944651D01*
X126167133Y-104923607D01*
X126181747Y-104903902D01*
X126198223Y-104885723D01*
X126216402Y-104869247D01*
X126236107Y-104854633D01*
X126257151Y-104842020D01*
X126279329Y-104831530D01*
X126302429Y-104823265D01*
X126326227Y-104817304D01*
X126350496Y-104813704D01*
X126375000Y-104812500D01*
X127625000Y-104812500D01*
X127649504Y-104813704D01*
X127649504Y-104813704D01*
G37*
D12*
X127000000Y-105525000D03*
D11*
G36*
X112487004Y-107626204D02*
G01*
X112511273Y-107629804D01*
X112535071Y-107635765D01*
X112558171Y-107644030D01*
X112580349Y-107654520D01*
X112601393Y-107667133D01*
X112621098Y-107681747D01*
X112639277Y-107698223D01*
X112655753Y-107716402D01*
X112670367Y-107736107D01*
X112682980Y-107757151D01*
X112693470Y-107779329D01*
X112701735Y-107802429D01*
X112707696Y-107826227D01*
X112711296Y-107850496D01*
X112712500Y-107875000D01*
X112712500Y-109125000D01*
X112711296Y-109149504D01*
X112707696Y-109173773D01*
X112701735Y-109197571D01*
X112693470Y-109220671D01*
X112682980Y-109242849D01*
X112670367Y-109263893D01*
X112655753Y-109283598D01*
X112639277Y-109301777D01*
X112621098Y-109318253D01*
X112601393Y-109332867D01*
X112580349Y-109345480D01*
X112558171Y-109355970D01*
X112535071Y-109364235D01*
X112511273Y-109370196D01*
X112487004Y-109373796D01*
X112462500Y-109375000D01*
X111537500Y-109375000D01*
X111512996Y-109373796D01*
X111488727Y-109370196D01*
X111464929Y-109364235D01*
X111441829Y-109355970D01*
X111419651Y-109345480D01*
X111398607Y-109332867D01*
X111378902Y-109318253D01*
X111360723Y-109301777D01*
X111344247Y-109283598D01*
X111329633Y-109263893D01*
X111317020Y-109242849D01*
X111306530Y-109220671D01*
X111298265Y-109197571D01*
X111292304Y-109173773D01*
X111288704Y-109149504D01*
X111287500Y-109125000D01*
X111287500Y-107875000D01*
X111288704Y-107850496D01*
X111292304Y-107826227D01*
X111298265Y-107802429D01*
X111306530Y-107779329D01*
X111317020Y-107757151D01*
X111329633Y-107736107D01*
X111344247Y-107716402D01*
X111360723Y-107698223D01*
X111378902Y-107681747D01*
X111398607Y-107667133D01*
X111419651Y-107654520D01*
X111441829Y-107644030D01*
X111464929Y-107635765D01*
X111488727Y-107629804D01*
X111512996Y-107626204D01*
X111537500Y-107625000D01*
X112462500Y-107625000D01*
X112487004Y-107626204D01*
X112487004Y-107626204D01*
G37*
D12*
X112000000Y-108500000D03*
D11*
G36*
X109512004Y-107626204D02*
G01*
X109536273Y-107629804D01*
X109560071Y-107635765D01*
X109583171Y-107644030D01*
X109605349Y-107654520D01*
X109626393Y-107667133D01*
X109646098Y-107681747D01*
X109664277Y-107698223D01*
X109680753Y-107716402D01*
X109695367Y-107736107D01*
X109707980Y-107757151D01*
X109718470Y-107779329D01*
X109726735Y-107802429D01*
X109732696Y-107826227D01*
X109736296Y-107850496D01*
X109737500Y-107875000D01*
X109737500Y-109125000D01*
X109736296Y-109149504D01*
X109732696Y-109173773D01*
X109726735Y-109197571D01*
X109718470Y-109220671D01*
X109707980Y-109242849D01*
X109695367Y-109263893D01*
X109680753Y-109283598D01*
X109664277Y-109301777D01*
X109646098Y-109318253D01*
X109626393Y-109332867D01*
X109605349Y-109345480D01*
X109583171Y-109355970D01*
X109560071Y-109364235D01*
X109536273Y-109370196D01*
X109512004Y-109373796D01*
X109487500Y-109375000D01*
X108562500Y-109375000D01*
X108537996Y-109373796D01*
X108513727Y-109370196D01*
X108489929Y-109364235D01*
X108466829Y-109355970D01*
X108444651Y-109345480D01*
X108423607Y-109332867D01*
X108403902Y-109318253D01*
X108385723Y-109301777D01*
X108369247Y-109283598D01*
X108354633Y-109263893D01*
X108342020Y-109242849D01*
X108331530Y-109220671D01*
X108323265Y-109197571D01*
X108317304Y-109173773D01*
X108313704Y-109149504D01*
X108312500Y-109125000D01*
X108312500Y-107875000D01*
X108313704Y-107850496D01*
X108317304Y-107826227D01*
X108323265Y-107802429D01*
X108331530Y-107779329D01*
X108342020Y-107757151D01*
X108354633Y-107736107D01*
X108369247Y-107716402D01*
X108385723Y-107698223D01*
X108403902Y-107681747D01*
X108423607Y-107667133D01*
X108444651Y-107654520D01*
X108466829Y-107644030D01*
X108489929Y-107635765D01*
X108513727Y-107629804D01*
X108537996Y-107626204D01*
X108562500Y-107625000D01*
X109487500Y-107625000D01*
X109512004Y-107626204D01*
X109512004Y-107626204D01*
G37*
D12*
X109025000Y-108500000D03*
D11*
G36*
X112487004Y-110626204D02*
G01*
X112511273Y-110629804D01*
X112535071Y-110635765D01*
X112558171Y-110644030D01*
X112580349Y-110654520D01*
X112601393Y-110667133D01*
X112621098Y-110681747D01*
X112639277Y-110698223D01*
X112655753Y-110716402D01*
X112670367Y-110736107D01*
X112682980Y-110757151D01*
X112693470Y-110779329D01*
X112701735Y-110802429D01*
X112707696Y-110826227D01*
X112711296Y-110850496D01*
X112712500Y-110875000D01*
X112712500Y-112125000D01*
X112711296Y-112149504D01*
X112707696Y-112173773D01*
X112701735Y-112197571D01*
X112693470Y-112220671D01*
X112682980Y-112242849D01*
X112670367Y-112263893D01*
X112655753Y-112283598D01*
X112639277Y-112301777D01*
X112621098Y-112318253D01*
X112601393Y-112332867D01*
X112580349Y-112345480D01*
X112558171Y-112355970D01*
X112535071Y-112364235D01*
X112511273Y-112370196D01*
X112487004Y-112373796D01*
X112462500Y-112375000D01*
X111537500Y-112375000D01*
X111512996Y-112373796D01*
X111488727Y-112370196D01*
X111464929Y-112364235D01*
X111441829Y-112355970D01*
X111419651Y-112345480D01*
X111398607Y-112332867D01*
X111378902Y-112318253D01*
X111360723Y-112301777D01*
X111344247Y-112283598D01*
X111329633Y-112263893D01*
X111317020Y-112242849D01*
X111306530Y-112220671D01*
X111298265Y-112197571D01*
X111292304Y-112173773D01*
X111288704Y-112149504D01*
X111287500Y-112125000D01*
X111287500Y-110875000D01*
X111288704Y-110850496D01*
X111292304Y-110826227D01*
X111298265Y-110802429D01*
X111306530Y-110779329D01*
X111317020Y-110757151D01*
X111329633Y-110736107D01*
X111344247Y-110716402D01*
X111360723Y-110698223D01*
X111378902Y-110681747D01*
X111398607Y-110667133D01*
X111419651Y-110654520D01*
X111441829Y-110644030D01*
X111464929Y-110635765D01*
X111488727Y-110629804D01*
X111512996Y-110626204D01*
X111537500Y-110625000D01*
X112462500Y-110625000D01*
X112487004Y-110626204D01*
X112487004Y-110626204D01*
G37*
D12*
X112000000Y-111500000D03*
D11*
G36*
X109512004Y-110626204D02*
G01*
X109536273Y-110629804D01*
X109560071Y-110635765D01*
X109583171Y-110644030D01*
X109605349Y-110654520D01*
X109626393Y-110667133D01*
X109646098Y-110681747D01*
X109664277Y-110698223D01*
X109680753Y-110716402D01*
X109695367Y-110736107D01*
X109707980Y-110757151D01*
X109718470Y-110779329D01*
X109726735Y-110802429D01*
X109732696Y-110826227D01*
X109736296Y-110850496D01*
X109737500Y-110875000D01*
X109737500Y-112125000D01*
X109736296Y-112149504D01*
X109732696Y-112173773D01*
X109726735Y-112197571D01*
X109718470Y-112220671D01*
X109707980Y-112242849D01*
X109695367Y-112263893D01*
X109680753Y-112283598D01*
X109664277Y-112301777D01*
X109646098Y-112318253D01*
X109626393Y-112332867D01*
X109605349Y-112345480D01*
X109583171Y-112355970D01*
X109560071Y-112364235D01*
X109536273Y-112370196D01*
X109512004Y-112373796D01*
X109487500Y-112375000D01*
X108562500Y-112375000D01*
X108537996Y-112373796D01*
X108513727Y-112370196D01*
X108489929Y-112364235D01*
X108466829Y-112355970D01*
X108444651Y-112345480D01*
X108423607Y-112332867D01*
X108403902Y-112318253D01*
X108385723Y-112301777D01*
X108369247Y-112283598D01*
X108354633Y-112263893D01*
X108342020Y-112242849D01*
X108331530Y-112220671D01*
X108323265Y-112197571D01*
X108317304Y-112173773D01*
X108313704Y-112149504D01*
X108312500Y-112125000D01*
X108312500Y-110875000D01*
X108313704Y-110850496D01*
X108317304Y-110826227D01*
X108323265Y-110802429D01*
X108331530Y-110779329D01*
X108342020Y-110757151D01*
X108354633Y-110736107D01*
X108369247Y-110716402D01*
X108385723Y-110698223D01*
X108403902Y-110681747D01*
X108423607Y-110667133D01*
X108444651Y-110654520D01*
X108466829Y-110644030D01*
X108489929Y-110635765D01*
X108513727Y-110629804D01*
X108537996Y-110626204D01*
X108562500Y-110625000D01*
X109487500Y-110625000D01*
X109512004Y-110626204D01*
X109512004Y-110626204D01*
G37*
D12*
X109025000Y-111500000D03*
D11*
G36*
X109649504Y-77288704D02*
G01*
X109673773Y-77292304D01*
X109697571Y-77298265D01*
X109720671Y-77306530D01*
X109742849Y-77317020D01*
X109763893Y-77329633D01*
X109783598Y-77344247D01*
X109801777Y-77360723D01*
X109818253Y-77378902D01*
X109832867Y-77398607D01*
X109845480Y-77419651D01*
X109855970Y-77441829D01*
X109864235Y-77464929D01*
X109870196Y-77488727D01*
X109873796Y-77512996D01*
X109875000Y-77537500D01*
X109875000Y-78462500D01*
X109873796Y-78487004D01*
X109870196Y-78511273D01*
X109864235Y-78535071D01*
X109855970Y-78558171D01*
X109845480Y-78580349D01*
X109832867Y-78601393D01*
X109818253Y-78621098D01*
X109801777Y-78639277D01*
X109783598Y-78655753D01*
X109763893Y-78670367D01*
X109742849Y-78682980D01*
X109720671Y-78693470D01*
X109697571Y-78701735D01*
X109673773Y-78707696D01*
X109649504Y-78711296D01*
X109625000Y-78712500D01*
X108375000Y-78712500D01*
X108350496Y-78711296D01*
X108326227Y-78707696D01*
X108302429Y-78701735D01*
X108279329Y-78693470D01*
X108257151Y-78682980D01*
X108236107Y-78670367D01*
X108216402Y-78655753D01*
X108198223Y-78639277D01*
X108181747Y-78621098D01*
X108167133Y-78601393D01*
X108154520Y-78580349D01*
X108144030Y-78558171D01*
X108135765Y-78535071D01*
X108129804Y-78511273D01*
X108126204Y-78487004D01*
X108125000Y-78462500D01*
X108125000Y-77537500D01*
X108126204Y-77512996D01*
X108129804Y-77488727D01*
X108135765Y-77464929D01*
X108144030Y-77441829D01*
X108154520Y-77419651D01*
X108167133Y-77398607D01*
X108181747Y-77378902D01*
X108198223Y-77360723D01*
X108216402Y-77344247D01*
X108236107Y-77329633D01*
X108257151Y-77317020D01*
X108279329Y-77306530D01*
X108302429Y-77298265D01*
X108326227Y-77292304D01*
X108350496Y-77288704D01*
X108375000Y-77287500D01*
X109625000Y-77287500D01*
X109649504Y-77288704D01*
X109649504Y-77288704D01*
G37*
D12*
X109000000Y-78000000D03*
D11*
G36*
X109649504Y-80263704D02*
G01*
X109673773Y-80267304D01*
X109697571Y-80273265D01*
X109720671Y-80281530D01*
X109742849Y-80292020D01*
X109763893Y-80304633D01*
X109783598Y-80319247D01*
X109801777Y-80335723D01*
X109818253Y-80353902D01*
X109832867Y-80373607D01*
X109845480Y-80394651D01*
X109855970Y-80416829D01*
X109864235Y-80439929D01*
X109870196Y-80463727D01*
X109873796Y-80487996D01*
X109875000Y-80512500D01*
X109875000Y-81437500D01*
X109873796Y-81462004D01*
X109870196Y-81486273D01*
X109864235Y-81510071D01*
X109855970Y-81533171D01*
X109845480Y-81555349D01*
X109832867Y-81576393D01*
X109818253Y-81596098D01*
X109801777Y-81614277D01*
X109783598Y-81630753D01*
X109763893Y-81645367D01*
X109742849Y-81657980D01*
X109720671Y-81668470D01*
X109697571Y-81676735D01*
X109673773Y-81682696D01*
X109649504Y-81686296D01*
X109625000Y-81687500D01*
X108375000Y-81687500D01*
X108350496Y-81686296D01*
X108326227Y-81682696D01*
X108302429Y-81676735D01*
X108279329Y-81668470D01*
X108257151Y-81657980D01*
X108236107Y-81645367D01*
X108216402Y-81630753D01*
X108198223Y-81614277D01*
X108181747Y-81596098D01*
X108167133Y-81576393D01*
X108154520Y-81555349D01*
X108144030Y-81533171D01*
X108135765Y-81510071D01*
X108129804Y-81486273D01*
X108126204Y-81462004D01*
X108125000Y-81437500D01*
X108125000Y-80512500D01*
X108126204Y-80487996D01*
X108129804Y-80463727D01*
X108135765Y-80439929D01*
X108144030Y-80416829D01*
X108154520Y-80394651D01*
X108167133Y-80373607D01*
X108181747Y-80353902D01*
X108198223Y-80335723D01*
X108216402Y-80319247D01*
X108236107Y-80304633D01*
X108257151Y-80292020D01*
X108279329Y-80281530D01*
X108302429Y-80273265D01*
X108326227Y-80267304D01*
X108350496Y-80263704D01*
X108375000Y-80262500D01*
X109625000Y-80262500D01*
X109649504Y-80263704D01*
X109649504Y-80263704D01*
G37*
D12*
X109000000Y-80975000D03*
D11*
G36*
X118149504Y-107813704D02*
G01*
X118173773Y-107817304D01*
X118197571Y-107823265D01*
X118220671Y-107831530D01*
X118242849Y-107842020D01*
X118263893Y-107854633D01*
X118283598Y-107869247D01*
X118301777Y-107885723D01*
X118318253Y-107903902D01*
X118332867Y-107923607D01*
X118345480Y-107944651D01*
X118355970Y-107966829D01*
X118364235Y-107989929D01*
X118370196Y-108013727D01*
X118373796Y-108037996D01*
X118375000Y-108062500D01*
X118375000Y-108987500D01*
X118373796Y-109012004D01*
X118370196Y-109036273D01*
X118364235Y-109060071D01*
X118355970Y-109083171D01*
X118345480Y-109105349D01*
X118332867Y-109126393D01*
X118318253Y-109146098D01*
X118301777Y-109164277D01*
X118283598Y-109180753D01*
X118263893Y-109195367D01*
X118242849Y-109207980D01*
X118220671Y-109218470D01*
X118197571Y-109226735D01*
X118173773Y-109232696D01*
X118149504Y-109236296D01*
X118125000Y-109237500D01*
X116875000Y-109237500D01*
X116850496Y-109236296D01*
X116826227Y-109232696D01*
X116802429Y-109226735D01*
X116779329Y-109218470D01*
X116757151Y-109207980D01*
X116736107Y-109195367D01*
X116716402Y-109180753D01*
X116698223Y-109164277D01*
X116681747Y-109146098D01*
X116667133Y-109126393D01*
X116654520Y-109105349D01*
X116644030Y-109083171D01*
X116635765Y-109060071D01*
X116629804Y-109036273D01*
X116626204Y-109012004D01*
X116625000Y-108987500D01*
X116625000Y-108062500D01*
X116626204Y-108037996D01*
X116629804Y-108013727D01*
X116635765Y-107989929D01*
X116644030Y-107966829D01*
X116654520Y-107944651D01*
X116667133Y-107923607D01*
X116681747Y-107903902D01*
X116698223Y-107885723D01*
X116716402Y-107869247D01*
X116736107Y-107854633D01*
X116757151Y-107842020D01*
X116779329Y-107831530D01*
X116802429Y-107823265D01*
X116826227Y-107817304D01*
X116850496Y-107813704D01*
X116875000Y-107812500D01*
X118125000Y-107812500D01*
X118149504Y-107813704D01*
X118149504Y-107813704D01*
G37*
D12*
X117500000Y-108525000D03*
D11*
G36*
X118149504Y-110788704D02*
G01*
X118173773Y-110792304D01*
X118197571Y-110798265D01*
X118220671Y-110806530D01*
X118242849Y-110817020D01*
X118263893Y-110829633D01*
X118283598Y-110844247D01*
X118301777Y-110860723D01*
X118318253Y-110878902D01*
X118332867Y-110898607D01*
X118345480Y-110919651D01*
X118355970Y-110941829D01*
X118364235Y-110964929D01*
X118370196Y-110988727D01*
X118373796Y-111012996D01*
X118375000Y-111037500D01*
X118375000Y-111962500D01*
X118373796Y-111987004D01*
X118370196Y-112011273D01*
X118364235Y-112035071D01*
X118355970Y-112058171D01*
X118345480Y-112080349D01*
X118332867Y-112101393D01*
X118318253Y-112121098D01*
X118301777Y-112139277D01*
X118283598Y-112155753D01*
X118263893Y-112170367D01*
X118242849Y-112182980D01*
X118220671Y-112193470D01*
X118197571Y-112201735D01*
X118173773Y-112207696D01*
X118149504Y-112211296D01*
X118125000Y-112212500D01*
X116875000Y-112212500D01*
X116850496Y-112211296D01*
X116826227Y-112207696D01*
X116802429Y-112201735D01*
X116779329Y-112193470D01*
X116757151Y-112182980D01*
X116736107Y-112170367D01*
X116716402Y-112155753D01*
X116698223Y-112139277D01*
X116681747Y-112121098D01*
X116667133Y-112101393D01*
X116654520Y-112080349D01*
X116644030Y-112058171D01*
X116635765Y-112035071D01*
X116629804Y-112011273D01*
X116626204Y-111987004D01*
X116625000Y-111962500D01*
X116625000Y-111037500D01*
X116626204Y-111012996D01*
X116629804Y-110988727D01*
X116635765Y-110964929D01*
X116644030Y-110941829D01*
X116654520Y-110919651D01*
X116667133Y-110898607D01*
X116681747Y-110878902D01*
X116698223Y-110860723D01*
X116716402Y-110844247D01*
X116736107Y-110829633D01*
X116757151Y-110817020D01*
X116779329Y-110806530D01*
X116802429Y-110798265D01*
X116826227Y-110792304D01*
X116850496Y-110788704D01*
X116875000Y-110787500D01*
X118125000Y-110787500D01*
X118149504Y-110788704D01*
X118149504Y-110788704D01*
G37*
D12*
X117500000Y-111500000D03*
D11*
G36*
X135578504Y-107711204D02*
G01*
X135602773Y-107714804D01*
X135626571Y-107720765D01*
X135649671Y-107729030D01*
X135671849Y-107739520D01*
X135692893Y-107752133D01*
X135712598Y-107766747D01*
X135730777Y-107783223D01*
X135747253Y-107801402D01*
X135761867Y-107821107D01*
X135774480Y-107842151D01*
X135784970Y-107864329D01*
X135793235Y-107887429D01*
X135799196Y-107911227D01*
X135802796Y-107935496D01*
X135804000Y-107960000D01*
X135804000Y-109210000D01*
X135802796Y-109234504D01*
X135799196Y-109258773D01*
X135793235Y-109282571D01*
X135784970Y-109305671D01*
X135774480Y-109327849D01*
X135761867Y-109348893D01*
X135747253Y-109368598D01*
X135730777Y-109386777D01*
X135712598Y-109403253D01*
X135692893Y-109417867D01*
X135671849Y-109430480D01*
X135649671Y-109440970D01*
X135626571Y-109449235D01*
X135602773Y-109455196D01*
X135578504Y-109458796D01*
X135554000Y-109460000D01*
X134629000Y-109460000D01*
X134604496Y-109458796D01*
X134580227Y-109455196D01*
X134556429Y-109449235D01*
X134533329Y-109440970D01*
X134511151Y-109430480D01*
X134490107Y-109417867D01*
X134470402Y-109403253D01*
X134452223Y-109386777D01*
X134435747Y-109368598D01*
X134421133Y-109348893D01*
X134408520Y-109327849D01*
X134398030Y-109305671D01*
X134389765Y-109282571D01*
X134383804Y-109258773D01*
X134380204Y-109234504D01*
X134379000Y-109210000D01*
X134379000Y-107960000D01*
X134380204Y-107935496D01*
X134383804Y-107911227D01*
X134389765Y-107887429D01*
X134398030Y-107864329D01*
X134408520Y-107842151D01*
X134421133Y-107821107D01*
X134435747Y-107801402D01*
X134452223Y-107783223D01*
X134470402Y-107766747D01*
X134490107Y-107752133D01*
X134511151Y-107739520D01*
X134533329Y-107729030D01*
X134556429Y-107720765D01*
X134580227Y-107714804D01*
X134604496Y-107711204D01*
X134629000Y-107710000D01*
X135554000Y-107710000D01*
X135578504Y-107711204D01*
X135578504Y-107711204D01*
G37*
D12*
X135091500Y-108585000D03*
D11*
G36*
X132603504Y-107711204D02*
G01*
X132627773Y-107714804D01*
X132651571Y-107720765D01*
X132674671Y-107729030D01*
X132696849Y-107739520D01*
X132717893Y-107752133D01*
X132737598Y-107766747D01*
X132755777Y-107783223D01*
X132772253Y-107801402D01*
X132786867Y-107821107D01*
X132799480Y-107842151D01*
X132809970Y-107864329D01*
X132818235Y-107887429D01*
X132824196Y-107911227D01*
X132827796Y-107935496D01*
X132829000Y-107960000D01*
X132829000Y-109210000D01*
X132827796Y-109234504D01*
X132824196Y-109258773D01*
X132818235Y-109282571D01*
X132809970Y-109305671D01*
X132799480Y-109327849D01*
X132786867Y-109348893D01*
X132772253Y-109368598D01*
X132755777Y-109386777D01*
X132737598Y-109403253D01*
X132717893Y-109417867D01*
X132696849Y-109430480D01*
X132674671Y-109440970D01*
X132651571Y-109449235D01*
X132627773Y-109455196D01*
X132603504Y-109458796D01*
X132579000Y-109460000D01*
X131654000Y-109460000D01*
X131629496Y-109458796D01*
X131605227Y-109455196D01*
X131581429Y-109449235D01*
X131558329Y-109440970D01*
X131536151Y-109430480D01*
X131515107Y-109417867D01*
X131495402Y-109403253D01*
X131477223Y-109386777D01*
X131460747Y-109368598D01*
X131446133Y-109348893D01*
X131433520Y-109327849D01*
X131423030Y-109305671D01*
X131414765Y-109282571D01*
X131408804Y-109258773D01*
X131405204Y-109234504D01*
X131404000Y-109210000D01*
X131404000Y-107960000D01*
X131405204Y-107935496D01*
X131408804Y-107911227D01*
X131414765Y-107887429D01*
X131423030Y-107864329D01*
X131433520Y-107842151D01*
X131446133Y-107821107D01*
X131460747Y-107801402D01*
X131477223Y-107783223D01*
X131495402Y-107766747D01*
X131515107Y-107752133D01*
X131536151Y-107739520D01*
X131558329Y-107729030D01*
X131581429Y-107720765D01*
X131605227Y-107714804D01*
X131629496Y-107711204D01*
X131654000Y-107710000D01*
X132579000Y-107710000D01*
X132603504Y-107711204D01*
X132603504Y-107711204D01*
G37*
D12*
X132116500Y-108585000D03*
D11*
G36*
X135462004Y-89423204D02*
G01*
X135486273Y-89426804D01*
X135510071Y-89432765D01*
X135533171Y-89441030D01*
X135555349Y-89451520D01*
X135576393Y-89464133D01*
X135596098Y-89478747D01*
X135614277Y-89495223D01*
X135630753Y-89513402D01*
X135645367Y-89533107D01*
X135657980Y-89554151D01*
X135668470Y-89576329D01*
X135676735Y-89599429D01*
X135682696Y-89623227D01*
X135686296Y-89647496D01*
X135687500Y-89672000D01*
X135687500Y-90922000D01*
X135686296Y-90946504D01*
X135682696Y-90970773D01*
X135676735Y-90994571D01*
X135668470Y-91017671D01*
X135657980Y-91039849D01*
X135645367Y-91060893D01*
X135630753Y-91080598D01*
X135614277Y-91098777D01*
X135596098Y-91115253D01*
X135576393Y-91129867D01*
X135555349Y-91142480D01*
X135533171Y-91152970D01*
X135510071Y-91161235D01*
X135486273Y-91167196D01*
X135462004Y-91170796D01*
X135437500Y-91172000D01*
X134512500Y-91172000D01*
X134487996Y-91170796D01*
X134463727Y-91167196D01*
X134439929Y-91161235D01*
X134416829Y-91152970D01*
X134394651Y-91142480D01*
X134373607Y-91129867D01*
X134353902Y-91115253D01*
X134335723Y-91098777D01*
X134319247Y-91080598D01*
X134304633Y-91060893D01*
X134292020Y-91039849D01*
X134281530Y-91017671D01*
X134273265Y-90994571D01*
X134267304Y-90970773D01*
X134263704Y-90946504D01*
X134262500Y-90922000D01*
X134262500Y-89672000D01*
X134263704Y-89647496D01*
X134267304Y-89623227D01*
X134273265Y-89599429D01*
X134281530Y-89576329D01*
X134292020Y-89554151D01*
X134304633Y-89533107D01*
X134319247Y-89513402D01*
X134335723Y-89495223D01*
X134353902Y-89478747D01*
X134373607Y-89464133D01*
X134394651Y-89451520D01*
X134416829Y-89441030D01*
X134439929Y-89432765D01*
X134463727Y-89426804D01*
X134487996Y-89423204D01*
X134512500Y-89422000D01*
X135437500Y-89422000D01*
X135462004Y-89423204D01*
X135462004Y-89423204D01*
G37*
D12*
X134975000Y-90297000D03*
D11*
G36*
X132487004Y-89423204D02*
G01*
X132511273Y-89426804D01*
X132535071Y-89432765D01*
X132558171Y-89441030D01*
X132580349Y-89451520D01*
X132601393Y-89464133D01*
X132621098Y-89478747D01*
X132639277Y-89495223D01*
X132655753Y-89513402D01*
X132670367Y-89533107D01*
X132682980Y-89554151D01*
X132693470Y-89576329D01*
X132701735Y-89599429D01*
X132707696Y-89623227D01*
X132711296Y-89647496D01*
X132712500Y-89672000D01*
X132712500Y-90922000D01*
X132711296Y-90946504D01*
X132707696Y-90970773D01*
X132701735Y-90994571D01*
X132693470Y-91017671D01*
X132682980Y-91039849D01*
X132670367Y-91060893D01*
X132655753Y-91080598D01*
X132639277Y-91098777D01*
X132621098Y-91115253D01*
X132601393Y-91129867D01*
X132580349Y-91142480D01*
X132558171Y-91152970D01*
X132535071Y-91161235D01*
X132511273Y-91167196D01*
X132487004Y-91170796D01*
X132462500Y-91172000D01*
X131537500Y-91172000D01*
X131512996Y-91170796D01*
X131488727Y-91167196D01*
X131464929Y-91161235D01*
X131441829Y-91152970D01*
X131419651Y-91142480D01*
X131398607Y-91129867D01*
X131378902Y-91115253D01*
X131360723Y-91098777D01*
X131344247Y-91080598D01*
X131329633Y-91060893D01*
X131317020Y-91039849D01*
X131306530Y-91017671D01*
X131298265Y-90994571D01*
X131292304Y-90970773D01*
X131288704Y-90946504D01*
X131287500Y-90922000D01*
X131287500Y-89672000D01*
X131288704Y-89647496D01*
X131292304Y-89623227D01*
X131298265Y-89599429D01*
X131306530Y-89576329D01*
X131317020Y-89554151D01*
X131329633Y-89533107D01*
X131344247Y-89513402D01*
X131360723Y-89495223D01*
X131378902Y-89478747D01*
X131398607Y-89464133D01*
X131419651Y-89451520D01*
X131441829Y-89441030D01*
X131464929Y-89432765D01*
X131488727Y-89426804D01*
X131512996Y-89423204D01*
X131537500Y-89422000D01*
X132462500Y-89422000D01*
X132487004Y-89423204D01*
X132487004Y-89423204D01*
G37*
D12*
X132000000Y-90297000D03*
M02*
