G04 #@! TF.GenerationSoftware,KiCad,Pcbnew,(5.1.4)-1*
G04 #@! TF.CreationDate,2020-08-01T13:26:49+05:30*
G04 #@! TF.ProjectId,knob_32u4,6b6e6f62-5f33-4327-9534-2e6b69636164,rev?*
G04 #@! TF.SameCoordinates,Original*
G04 #@! TF.FileFunction,Legend,Top*
G04 #@! TF.FilePolarity,Positive*
%FSLAX46Y46*%
G04 Gerber Fmt 4.6, Leading zero omitted, Abs format (unit mm)*
G04 Created by KiCad (PCBNEW (5.1.4)-1) date 2020-08-01 13:26:49*
%MOMM*%
%LPD*%
G04 APERTURE LIST*
%ADD10C,0.120000*%
%ADD11C,0.150000*%
G04 APERTURE END LIST*
D10*
X129100000Y-55300000D02*
X134100000Y-55300000D01*
X135200000Y-59600000D02*
X135200000Y-60700000D01*
X135200000Y-60700000D02*
X129100000Y-60700000D01*
X123000000Y-79000000D02*
G75*
G03X123000000Y-79000000I-3000000J0D01*
G01*
X114100000Y-77000000D02*
X114100000Y-72900000D01*
X125900000Y-72900000D02*
X125900000Y-77000000D01*
X125900000Y-81000000D02*
X125900000Y-85100000D01*
X114100000Y-81000000D02*
X114100000Y-85100000D01*
X114100000Y-85100000D02*
X125900000Y-85100000D01*
X116200000Y-86500000D02*
X115900000Y-86800000D01*
X115900000Y-86800000D02*
X115900000Y-86200000D01*
X115900000Y-86200000D02*
X116200000Y-86500000D01*
X114100000Y-72900000D02*
X116500000Y-72900000D01*
X118700000Y-72900000D02*
X121300000Y-72900000D01*
X123500000Y-72900000D02*
X125900000Y-72900000D01*
X119500000Y-79000000D02*
X120500000Y-79000000D01*
X120000000Y-79500000D02*
X120000000Y-78500000D01*
X109910000Y-87089564D02*
X109910000Y-85885436D01*
X108090000Y-87089564D02*
X108090000Y-85885436D01*
X104090000Y-94397936D02*
X104090000Y-95602064D01*
X105910000Y-94397936D02*
X105910000Y-95602064D01*
X125590000Y-91885436D02*
X125590000Y-93089564D01*
X127410000Y-91885436D02*
X127410000Y-93089564D01*
X130825000Y-102212000D02*
G75*
G03X135875000Y-102212000I2525000J0D01*
G01*
X130825000Y-95962000D02*
G75*
G02X135875000Y-95962000I2525000J0D01*
G01*
X130825000Y-95962000D02*
X130825000Y-102212000D01*
X135875000Y-95962000D02*
X135875000Y-102212000D01*
D11*
X111400000Y-104175000D02*
X111400000Y-105450000D01*
X110825000Y-93825000D02*
X110825000Y-94500000D01*
X121175000Y-93825000D02*
X121175000Y-94500000D01*
X121175000Y-104175000D02*
X121175000Y-103500000D01*
X110825000Y-104175000D02*
X110825000Y-103500000D01*
X121175000Y-104175000D02*
X120500000Y-104175000D01*
X121175000Y-93825000D02*
X120500000Y-93825000D01*
X110825000Y-93825000D02*
X111500000Y-93825000D01*
X110825000Y-104175000D02*
X111400000Y-104175000D01*
D10*
X109000000Y-54750000D02*
X107500000Y-54750000D01*
X105000000Y-56000000D02*
X105000000Y-60500000D01*
X107500000Y-61750000D02*
X109000000Y-61750000D01*
X111500000Y-60500000D02*
X111500000Y-56000000D01*
X127897936Y-67410000D02*
X129102064Y-67410000D01*
X127897936Y-65590000D02*
X129102064Y-65590000D01*
X134006000Y-83369564D02*
X134006000Y-82165436D01*
X132186000Y-83369564D02*
X132186000Y-82165436D01*
X106090000Y-67385436D02*
X106090000Y-68589564D01*
X107910000Y-67385436D02*
X107910000Y-68589564D01*
X121910436Y-62910000D02*
X123114564Y-62910000D01*
X121910436Y-61090000D02*
X123114564Y-61090000D01*
X121897936Y-58910000D02*
X123102064Y-58910000D01*
X121897936Y-57090000D02*
X123102064Y-57090000D01*
X121910436Y-54910000D02*
X123114564Y-54910000D01*
X121910436Y-53090000D02*
X123114564Y-53090000D01*
X126090000Y-106410436D02*
X126090000Y-107614564D01*
X127910000Y-106410436D02*
X127910000Y-107614564D01*
X109910436Y-109410000D02*
X111114564Y-109410000D01*
X109910436Y-107590000D02*
X111114564Y-107590000D01*
X109910436Y-112410000D02*
X111114564Y-112410000D01*
X109910436Y-110590000D02*
X111114564Y-110590000D01*
X102670000Y-73470000D02*
X104000000Y-73470000D01*
X102670000Y-74800000D02*
X102670000Y-73470000D01*
X102670000Y-76070000D02*
X105330000Y-76070000D01*
X105330000Y-76070000D02*
X105330000Y-88830000D01*
X102670000Y-76070000D02*
X102670000Y-88830000D01*
X102670000Y-88830000D02*
X105330000Y-88830000D01*
X109910000Y-80089564D02*
X109910000Y-78885436D01*
X108090000Y-80089564D02*
X108090000Y-78885436D01*
X118410000Y-110614564D02*
X118410000Y-109410436D01*
X116590000Y-110614564D02*
X116590000Y-109410436D01*
X133001936Y-109495000D02*
X134206064Y-109495000D01*
X133001936Y-107675000D02*
X134206064Y-107675000D01*
X132885436Y-91207000D02*
X134089564Y-91207000D01*
X132885436Y-89387000D02*
X134089564Y-89387000D01*
D11*
X130861904Y-61952380D02*
X130861904Y-60952380D01*
X131100000Y-60952380D01*
X131242857Y-61000000D01*
X131338095Y-61095238D01*
X131385714Y-61190476D01*
X131433333Y-61380952D01*
X131433333Y-61523809D01*
X131385714Y-61714285D01*
X131338095Y-61809523D01*
X131242857Y-61904761D01*
X131100000Y-61952380D01*
X130861904Y-61952380D01*
X132385714Y-61952380D02*
X131814285Y-61952380D01*
X132100000Y-61952380D02*
X132100000Y-60952380D01*
X132004761Y-61095238D01*
X131909523Y-61190476D01*
X131814285Y-61238095D01*
X113204761Y-85033333D02*
X113252380Y-84890476D01*
X113252380Y-84652380D01*
X113204761Y-84557142D01*
X113157142Y-84509523D01*
X113061904Y-84461904D01*
X112966666Y-84461904D01*
X112871428Y-84509523D01*
X112823809Y-84557142D01*
X112776190Y-84652380D01*
X112728571Y-84842857D01*
X112680952Y-84938095D01*
X112633333Y-84985714D01*
X112538095Y-85033333D01*
X112442857Y-85033333D01*
X112347619Y-84985714D01*
X112300000Y-84938095D01*
X112252380Y-84842857D01*
X112252380Y-84604761D01*
X112300000Y-84461904D01*
X112252380Y-84128571D02*
X113252380Y-83890476D01*
X112538095Y-83700000D01*
X113252380Y-83509523D01*
X112252380Y-83271428D01*
X112252380Y-82985714D02*
X112252380Y-82366666D01*
X112633333Y-82700000D01*
X112633333Y-82557142D01*
X112680952Y-82461904D01*
X112728571Y-82414285D01*
X112823809Y-82366666D01*
X113061904Y-82366666D01*
X113157142Y-82414285D01*
X113204761Y-82461904D01*
X113252380Y-82557142D01*
X113252380Y-82842857D01*
X113204761Y-82938095D01*
X113157142Y-82985714D01*
X107632380Y-86654166D02*
X107156190Y-86987500D01*
X107632380Y-87225595D02*
X106632380Y-87225595D01*
X106632380Y-86844642D01*
X106680000Y-86749404D01*
X106727619Y-86701785D01*
X106822857Y-86654166D01*
X106965714Y-86654166D01*
X107060952Y-86701785D01*
X107108571Y-86749404D01*
X107156190Y-86844642D01*
X107156190Y-87225595D01*
X107632380Y-86177976D02*
X107632380Y-85987500D01*
X107584761Y-85892261D01*
X107537142Y-85844642D01*
X107394285Y-85749404D01*
X107203809Y-85701785D01*
X106822857Y-85701785D01*
X106727619Y-85749404D01*
X106680000Y-85797023D01*
X106632380Y-85892261D01*
X106632380Y-86082738D01*
X106680000Y-86177976D01*
X106727619Y-86225595D01*
X106822857Y-86273214D01*
X107060952Y-86273214D01*
X107156190Y-86225595D01*
X107203809Y-86177976D01*
X107251428Y-86082738D01*
X107251428Y-85892261D01*
X107203809Y-85797023D01*
X107156190Y-85749404D01*
X107060952Y-85701785D01*
X107177142Y-95166666D02*
X107224761Y-95214285D01*
X107272380Y-95357142D01*
X107272380Y-95452380D01*
X107224761Y-95595238D01*
X107129523Y-95690476D01*
X107034285Y-95738095D01*
X106843809Y-95785714D01*
X106700952Y-95785714D01*
X106510476Y-95738095D01*
X106415238Y-95690476D01*
X106320000Y-95595238D01*
X106272380Y-95452380D01*
X106272380Y-95357142D01*
X106320000Y-95214285D01*
X106367619Y-95166666D01*
X106272380Y-94833333D02*
X106272380Y-94166666D01*
X107272380Y-94595238D01*
X128677142Y-92654166D02*
X128724761Y-92701785D01*
X128772380Y-92844642D01*
X128772380Y-92939880D01*
X128724761Y-93082738D01*
X128629523Y-93177976D01*
X128534285Y-93225595D01*
X128343809Y-93273214D01*
X128200952Y-93273214D01*
X128010476Y-93225595D01*
X127915238Y-93177976D01*
X127820000Y-93082738D01*
X127772380Y-92939880D01*
X127772380Y-92844642D01*
X127820000Y-92701785D01*
X127867619Y-92654166D01*
X127772380Y-91797023D02*
X127772380Y-91987500D01*
X127820000Y-92082738D01*
X127867619Y-92130357D01*
X128010476Y-92225595D01*
X128200952Y-92273214D01*
X128581904Y-92273214D01*
X128677142Y-92225595D01*
X128724761Y-92177976D01*
X128772380Y-92082738D01*
X128772380Y-91892261D01*
X128724761Y-91797023D01*
X128677142Y-91749404D01*
X128581904Y-91701785D01*
X128343809Y-91701785D01*
X128248571Y-91749404D01*
X128200952Y-91797023D01*
X128153333Y-91892261D01*
X128153333Y-92082738D01*
X128200952Y-92177976D01*
X128248571Y-92225595D01*
X128343809Y-92273214D01*
X136851190Y-99563190D02*
X137327380Y-99563190D01*
X136327380Y-99896523D02*
X136851190Y-99563190D01*
X136327380Y-99229857D01*
X137327380Y-98372714D02*
X137327380Y-98944142D01*
X137327380Y-98658428D02*
X136327380Y-98658428D01*
X136470238Y-98753666D01*
X136565476Y-98848904D01*
X136613095Y-98944142D01*
X108002380Y-99761904D02*
X108811904Y-99761904D01*
X108907142Y-99714285D01*
X108954761Y-99666666D01*
X109002380Y-99571428D01*
X109002380Y-99380952D01*
X108954761Y-99285714D01*
X108907142Y-99238095D01*
X108811904Y-99190476D01*
X108002380Y-99190476D01*
X109002380Y-98190476D02*
X109002380Y-98761904D01*
X109002380Y-98476190D02*
X108002380Y-98476190D01*
X108145238Y-98571428D01*
X108240476Y-98666666D01*
X108288095Y-98761904D01*
X104404761Y-59583333D02*
X104452380Y-59440476D01*
X104452380Y-59202380D01*
X104404761Y-59107142D01*
X104357142Y-59059523D01*
X104261904Y-59011904D01*
X104166666Y-59011904D01*
X104071428Y-59059523D01*
X104023809Y-59107142D01*
X103976190Y-59202380D01*
X103928571Y-59392857D01*
X103880952Y-59488095D01*
X103833333Y-59535714D01*
X103738095Y-59583333D01*
X103642857Y-59583333D01*
X103547619Y-59535714D01*
X103500000Y-59488095D01*
X103452380Y-59392857D01*
X103452380Y-59154761D01*
X103500000Y-59011904D01*
X103452380Y-58678571D02*
X104452380Y-58440476D01*
X103738095Y-58250000D01*
X104452380Y-58059523D01*
X103452380Y-57821428D01*
X104452380Y-56916666D02*
X104452380Y-57488095D01*
X104452380Y-57202380D02*
X103452380Y-57202380D01*
X103595238Y-57297619D01*
X103690476Y-57392857D01*
X103738095Y-57488095D01*
X127857142Y-65132380D02*
X127523809Y-64656190D01*
X127285714Y-65132380D02*
X127285714Y-64132380D01*
X127666666Y-64132380D01*
X127761904Y-64180000D01*
X127809523Y-64227619D01*
X127857142Y-64322857D01*
X127857142Y-64465714D01*
X127809523Y-64560952D01*
X127761904Y-64608571D01*
X127666666Y-64656190D01*
X127285714Y-64656190D01*
X128809523Y-65132380D02*
X128238095Y-65132380D01*
X128523809Y-65132380D02*
X128523809Y-64132380D01*
X128428571Y-64275238D01*
X128333333Y-64370476D01*
X128238095Y-64418095D01*
X129761904Y-65132380D02*
X129190476Y-65132380D01*
X129476190Y-65132380D02*
X129476190Y-64132380D01*
X129380952Y-64275238D01*
X129285714Y-64370476D01*
X129190476Y-64418095D01*
X131728380Y-83410357D02*
X131252190Y-83743690D01*
X131728380Y-83981785D02*
X130728380Y-83981785D01*
X130728380Y-83600833D01*
X130776000Y-83505595D01*
X130823619Y-83457976D01*
X130918857Y-83410357D01*
X131061714Y-83410357D01*
X131156952Y-83457976D01*
X131204571Y-83505595D01*
X131252190Y-83600833D01*
X131252190Y-83981785D01*
X131728380Y-82457976D02*
X131728380Y-83029404D01*
X131728380Y-82743690D02*
X130728380Y-82743690D01*
X130871238Y-82838928D01*
X130966476Y-82934166D01*
X131014095Y-83029404D01*
X130728380Y-81838928D02*
X130728380Y-81743690D01*
X130776000Y-81648452D01*
X130823619Y-81600833D01*
X130918857Y-81553214D01*
X131109333Y-81505595D01*
X131347428Y-81505595D01*
X131537904Y-81553214D01*
X131633142Y-81600833D01*
X131680761Y-81648452D01*
X131728380Y-81743690D01*
X131728380Y-81838928D01*
X131680761Y-81934166D01*
X131633142Y-81981785D01*
X131537904Y-82029404D01*
X131347428Y-82077023D01*
X131109333Y-82077023D01*
X130918857Y-82029404D01*
X130823619Y-81981785D01*
X130776000Y-81934166D01*
X130728380Y-81838928D01*
X109272380Y-68154166D02*
X108796190Y-68487500D01*
X109272380Y-68725595D02*
X108272380Y-68725595D01*
X108272380Y-68344642D01*
X108320000Y-68249404D01*
X108367619Y-68201785D01*
X108462857Y-68154166D01*
X108605714Y-68154166D01*
X108700952Y-68201785D01*
X108748571Y-68249404D01*
X108796190Y-68344642D01*
X108796190Y-68725595D01*
X108272380Y-67820833D02*
X108272380Y-67154166D01*
X109272380Y-67582738D01*
X122345833Y-60632380D02*
X122012500Y-60156190D01*
X121774404Y-60632380D02*
X121774404Y-59632380D01*
X122155357Y-59632380D01*
X122250595Y-59680000D01*
X122298214Y-59727619D01*
X122345833Y-59822857D01*
X122345833Y-59965714D01*
X122298214Y-60060952D01*
X122250595Y-60108571D01*
X122155357Y-60156190D01*
X121774404Y-60156190D01*
X123202976Y-59632380D02*
X123012500Y-59632380D01*
X122917261Y-59680000D01*
X122869642Y-59727619D01*
X122774404Y-59870476D01*
X122726785Y-60060952D01*
X122726785Y-60441904D01*
X122774404Y-60537142D01*
X122822023Y-60584761D01*
X122917261Y-60632380D01*
X123107738Y-60632380D01*
X123202976Y-60584761D01*
X123250595Y-60537142D01*
X123298214Y-60441904D01*
X123298214Y-60203809D01*
X123250595Y-60108571D01*
X123202976Y-60060952D01*
X123107738Y-60013333D01*
X122917261Y-60013333D01*
X122822023Y-60060952D01*
X122774404Y-60108571D01*
X122726785Y-60203809D01*
X122333333Y-56632380D02*
X122000000Y-56156190D01*
X121761904Y-56632380D02*
X121761904Y-55632380D01*
X122142857Y-55632380D01*
X122238095Y-55680000D01*
X122285714Y-55727619D01*
X122333333Y-55822857D01*
X122333333Y-55965714D01*
X122285714Y-56060952D01*
X122238095Y-56108571D01*
X122142857Y-56156190D01*
X121761904Y-56156190D01*
X123238095Y-55632380D02*
X122761904Y-55632380D01*
X122714285Y-56108571D01*
X122761904Y-56060952D01*
X122857142Y-56013333D01*
X123095238Y-56013333D01*
X123190476Y-56060952D01*
X123238095Y-56108571D01*
X123285714Y-56203809D01*
X123285714Y-56441904D01*
X123238095Y-56537142D01*
X123190476Y-56584761D01*
X123095238Y-56632380D01*
X122857142Y-56632380D01*
X122761904Y-56584761D01*
X122714285Y-56537142D01*
X122345833Y-52632380D02*
X122012500Y-52156190D01*
X121774404Y-52632380D02*
X121774404Y-51632380D01*
X122155357Y-51632380D01*
X122250595Y-51680000D01*
X122298214Y-51727619D01*
X122345833Y-51822857D01*
X122345833Y-51965714D01*
X122298214Y-52060952D01*
X122250595Y-52108571D01*
X122155357Y-52156190D01*
X121774404Y-52156190D01*
X123202976Y-51965714D02*
X123202976Y-52632380D01*
X122964880Y-51584761D02*
X122726785Y-52299047D01*
X123345833Y-52299047D01*
X128452380Y-107666666D02*
X127976190Y-108000000D01*
X128452380Y-108238095D02*
X127452380Y-108238095D01*
X127452380Y-107857142D01*
X127500000Y-107761904D01*
X127547619Y-107714285D01*
X127642857Y-107666666D01*
X127785714Y-107666666D01*
X127880952Y-107714285D01*
X127928571Y-107761904D01*
X127976190Y-107857142D01*
X127976190Y-108238095D01*
X127452380Y-107333333D02*
X127452380Y-106714285D01*
X127833333Y-107047619D01*
X127833333Y-106904761D01*
X127880952Y-106809523D01*
X127928571Y-106761904D01*
X128023809Y-106714285D01*
X128261904Y-106714285D01*
X128357142Y-106761904D01*
X128404761Y-106809523D01*
X128452380Y-106904761D01*
X128452380Y-107190476D01*
X128404761Y-107285714D01*
X128357142Y-107333333D01*
X110345833Y-107132380D02*
X110012500Y-106656190D01*
X109774404Y-107132380D02*
X109774404Y-106132380D01*
X110155357Y-106132380D01*
X110250595Y-106180000D01*
X110298214Y-106227619D01*
X110345833Y-106322857D01*
X110345833Y-106465714D01*
X110298214Y-106560952D01*
X110250595Y-106608571D01*
X110155357Y-106656190D01*
X109774404Y-106656190D01*
X110726785Y-106227619D02*
X110774404Y-106180000D01*
X110869642Y-106132380D01*
X111107738Y-106132380D01*
X111202976Y-106180000D01*
X111250595Y-106227619D01*
X111298214Y-106322857D01*
X111298214Y-106418095D01*
X111250595Y-106560952D01*
X110679166Y-107132380D01*
X111298214Y-107132380D01*
X110345833Y-110132380D02*
X110012500Y-109656190D01*
X109774404Y-110132380D02*
X109774404Y-109132380D01*
X110155357Y-109132380D01*
X110250595Y-109180000D01*
X110298214Y-109227619D01*
X110345833Y-109322857D01*
X110345833Y-109465714D01*
X110298214Y-109560952D01*
X110250595Y-109608571D01*
X110155357Y-109656190D01*
X109774404Y-109656190D01*
X111298214Y-110132380D02*
X110726785Y-110132380D01*
X111012500Y-110132380D02*
X111012500Y-109132380D01*
X110917261Y-109275238D01*
X110822023Y-109370476D01*
X110726785Y-109418095D01*
X103666666Y-71922380D02*
X103666666Y-72636666D01*
X103619047Y-72779523D01*
X103523809Y-72874761D01*
X103380952Y-72922380D01*
X103285714Y-72922380D01*
X104666666Y-72922380D02*
X104095238Y-72922380D01*
X104380952Y-72922380D02*
X104380952Y-71922380D01*
X104285714Y-72065238D01*
X104190476Y-72160476D01*
X104095238Y-72208095D01*
X107537142Y-79654166D02*
X107584761Y-79701785D01*
X107632380Y-79844642D01*
X107632380Y-79939880D01*
X107584761Y-80082738D01*
X107489523Y-80177976D01*
X107394285Y-80225595D01*
X107203809Y-80273214D01*
X107060952Y-80273214D01*
X106870476Y-80225595D01*
X106775238Y-80177976D01*
X106680000Y-80082738D01*
X106632380Y-79939880D01*
X106632380Y-79844642D01*
X106680000Y-79701785D01*
X106727619Y-79654166D01*
X106965714Y-78797023D02*
X107632380Y-78797023D01*
X106584761Y-79035119D02*
X107299047Y-79273214D01*
X107299047Y-78654166D01*
X116037142Y-110179166D02*
X116084761Y-110226785D01*
X116132380Y-110369642D01*
X116132380Y-110464880D01*
X116084761Y-110607738D01*
X115989523Y-110702976D01*
X115894285Y-110750595D01*
X115703809Y-110798214D01*
X115560952Y-110798214D01*
X115370476Y-110750595D01*
X115275238Y-110702976D01*
X115180000Y-110607738D01*
X115132380Y-110464880D01*
X115132380Y-110369642D01*
X115180000Y-110226785D01*
X115227619Y-110179166D01*
X115132380Y-109845833D02*
X115132380Y-109226785D01*
X115513333Y-109560119D01*
X115513333Y-109417261D01*
X115560952Y-109322023D01*
X115608571Y-109274404D01*
X115703809Y-109226785D01*
X115941904Y-109226785D01*
X116037142Y-109274404D01*
X116084761Y-109322023D01*
X116132380Y-109417261D01*
X116132380Y-109702976D01*
X116084761Y-109798214D01*
X116037142Y-109845833D01*
X133437333Y-107122142D02*
X133389714Y-107169761D01*
X133246857Y-107217380D01*
X133151619Y-107217380D01*
X133008761Y-107169761D01*
X132913523Y-107074523D01*
X132865904Y-106979285D01*
X132818285Y-106788809D01*
X132818285Y-106645952D01*
X132865904Y-106455476D01*
X132913523Y-106360238D01*
X133008761Y-106265000D01*
X133151619Y-106217380D01*
X133246857Y-106217380D01*
X133389714Y-106265000D01*
X133437333Y-106312619D01*
X133818285Y-106312619D02*
X133865904Y-106265000D01*
X133961142Y-106217380D01*
X134199238Y-106217380D01*
X134294476Y-106265000D01*
X134342095Y-106312619D01*
X134389714Y-106407857D01*
X134389714Y-106503095D01*
X134342095Y-106645952D01*
X133770666Y-107217380D01*
X134389714Y-107217380D01*
X133320833Y-88834142D02*
X133273214Y-88881761D01*
X133130357Y-88929380D01*
X133035119Y-88929380D01*
X132892261Y-88881761D01*
X132797023Y-88786523D01*
X132749404Y-88691285D01*
X132701785Y-88500809D01*
X132701785Y-88357952D01*
X132749404Y-88167476D01*
X132797023Y-88072238D01*
X132892261Y-87977000D01*
X133035119Y-87929380D01*
X133130357Y-87929380D01*
X133273214Y-87977000D01*
X133320833Y-88024619D01*
X134273214Y-88929380D02*
X133701785Y-88929380D01*
X133987500Y-88929380D02*
X133987500Y-87929380D01*
X133892261Y-88072238D01*
X133797023Y-88167476D01*
X133701785Y-88215095D01*
M02*
