M48
; DRILL file {KiCad (5.1.4)-1} date 08/01/20 13:26:39
; FORMAT={-:-/ absolute / inch / decimal}
; #@! TF.CreationDate,2020-08-01T13:26:39+05:30
; #@! TF.GenerationSoftware,Kicad,Pcbnew,(5.1.4)-1
FMAT,2
INCH
T1C0.0197
T2C0.0315
T3C0.0394
T4C0.0433
T5C0.0591
%
G90
G05
T1
X4.2323Y-4.1142
X4.3307Y-3.6024
X4.4685Y-2.6575
X4.5472Y-3.563
X4.626Y-2.126
X4.626Y-2.2835
X4.626Y-2.4409
X4.626Y-3.5236
X4.8031Y-4.2323
X4.8228Y-4.3701
X4.8819Y-4.2913
X4.9803Y-3.8189
X5.1181Y-3.2677
T2
X5.25Y-3.805
X5.25Y-3.9971
T3
X4.626Y-2.8346
X4.626Y-3.4055
X4.7244Y-3.4055
X4.8228Y-2.8346
X4.8228Y-3.4055
X4.0945Y-2.9449
X4.0945Y-3.0449
X4.0945Y-3.1449
X4.0945Y-3.2449
X4.0945Y-3.3449
X4.0945Y-3.4449
X4.0945Y-4.0701
X4.0945Y-4.1701
X4.0945Y-4.2701
X4.0945Y-4.3701
T4
X4.1732Y-2.1654
X4.1732Y-2.4213
X4.3504Y-2.1654
X4.3504Y-2.4213
T5
G00X4.5039Y-3.1358
M15
G01X4.5039Y-3.0846
M16
G05
G00X4.9449Y-3.1358
M15
G01X4.9449Y-3.0846
M16
G05
T0
M30
