G04 #@! TF.GenerationSoftware,KiCad,Pcbnew,(5.1.4)-1*
G04 #@! TF.CreationDate,2020-08-01T13:26:49+05:30*
G04 #@! TF.ProjectId,knob_32u4,6b6e6f62-5f33-4327-9534-2e6b69636164,rev?*
G04 #@! TF.SameCoordinates,Original*
G04 #@! TF.FileFunction,Copper,L2,Bot*
G04 #@! TF.FilePolarity,Positive*
%FSLAX46Y46*%
G04 Gerber Fmt 4.6, Leading zero omitted, Abs format (unit mm)*
G04 Created by KiCad (PCBNEW (5.1.4)-1) date 2020-08-01 13:26:49*
%MOMM*%
%LPD*%
G04 APERTURE LIST*
%ADD10R,2.000000X2.000000*%
%ADD11C,2.000000*%
%ADD12R,2.000000X3.200000*%
%ADD13O,1.700000X1.700000*%
%ADD14R,1.700000X1.700000*%
%ADD15C,1.500000*%
%ADD16C,0.900000*%
%ADD17C,0.250000*%
%ADD18C,0.254000*%
G04 APERTURE END LIST*
D10*
X117500000Y-86500000D03*
D11*
X120000000Y-86500000D03*
X122500000Y-86500000D03*
D12*
X114400000Y-79000000D03*
X125600000Y-79000000D03*
D11*
X117500000Y-72000000D03*
X122500000Y-72000000D03*
D13*
X104000000Y-103380000D03*
X104000000Y-105920000D03*
X104000000Y-108460000D03*
D14*
X104000000Y-111000000D03*
D15*
X133350000Y-101527000D03*
X133350000Y-96647000D03*
D11*
X106000000Y-55000000D03*
X110500000Y-55000000D03*
X106000000Y-61500000D03*
X110500000Y-61500000D03*
D13*
X104000000Y-87500000D03*
X104000000Y-84960000D03*
X104000000Y-82420000D03*
X104000000Y-79880000D03*
X104000000Y-77340000D03*
D14*
X104000000Y-74800000D03*
D16*
X122500000Y-111000000D03*
X130000000Y-83000000D03*
X107500000Y-104500000D03*
X122000000Y-107500000D03*
X124000000Y-109000000D03*
X117500000Y-54000000D03*
X110000000Y-91500000D03*
X117500000Y-58000000D03*
X126500000Y-97000000D03*
X117500000Y-62000000D03*
X117500000Y-89500000D03*
X113500000Y-67500000D03*
X115500000Y-90500000D03*
D17*
X104000000Y-88702081D02*
X104000000Y-103380000D01*
X104000000Y-87500000D02*
X104000000Y-88702081D01*
X105460000Y-84960000D02*
X104000000Y-84960000D01*
X106000000Y-85500000D02*
X105460000Y-84960000D01*
X122500000Y-111000000D02*
X106000000Y-94500000D01*
X106000000Y-94500000D02*
X106000000Y-85500000D01*
X129286000Y-84074000D02*
X130000000Y-83000000D01*
X129286000Y-97500000D02*
X129286000Y-84074000D01*
X126492000Y-101092000D02*
X129286000Y-97500000D01*
X126500000Y-110000000D02*
X126492000Y-101092000D01*
X122500000Y-111000000D02*
X125500000Y-111000000D01*
X125500000Y-111000000D02*
X126500000Y-110000000D01*
X103000000Y-82500000D02*
X104000000Y-82420000D01*
X102000000Y-83500000D02*
X103000000Y-82500000D01*
X102000000Y-110100000D02*
X102000000Y-83500000D01*
X104000000Y-111000000D02*
X102900000Y-111000000D01*
X102900000Y-111000000D02*
X102000000Y-110100000D01*
X107500000Y-104500000D02*
X106500000Y-105500000D01*
X105100000Y-111000000D02*
X104000000Y-111000000D01*
X106500000Y-109600000D02*
X105100000Y-111000000D01*
X106500000Y-105500000D02*
X106500000Y-109600000D01*
X121000000Y-107500000D02*
X122000000Y-107500000D01*
X107000000Y-93500000D02*
X121000000Y-107500000D01*
X107000000Y-81500000D02*
X107000000Y-93500000D01*
X104000000Y-79880000D02*
X105880000Y-79880000D01*
X105880000Y-79880000D02*
X107000000Y-81500000D01*
X105100000Y-74800000D02*
X104000000Y-74800000D01*
X108000000Y-77700000D02*
X105100000Y-74800000D01*
X108000000Y-92000000D02*
X108000000Y-77700000D01*
X124000000Y-109000000D02*
X124000000Y-107500000D01*
X124000000Y-107500000D02*
X108000000Y-92000000D01*
X110500000Y-90500000D02*
X110500000Y-67500000D01*
X110500000Y-67500000D02*
X115500000Y-62000000D01*
X115500000Y-62000000D02*
X115500000Y-56000000D01*
X115500000Y-56000000D02*
X117500000Y-54000000D01*
X110000000Y-91500000D02*
X110500000Y-90500000D01*
X117500000Y-58000000D02*
X117500000Y-59000000D01*
X117500000Y-59000000D02*
X121000000Y-62500000D01*
X121000000Y-62500000D02*
X121000000Y-66000000D01*
X121000000Y-66000000D02*
X125000000Y-70000000D01*
X125000000Y-70000000D02*
X125000000Y-74500000D01*
X125000000Y-74500000D02*
X122500000Y-77000000D01*
X122500000Y-77000000D02*
X122500000Y-81500000D01*
X122500000Y-81500000D02*
X125000000Y-84000000D01*
X125000000Y-84000000D02*
X125000000Y-95500000D01*
X125000000Y-95500000D02*
X126500000Y-97000000D01*
X117500000Y-89500000D02*
X117000000Y-89000000D01*
X117000000Y-89000000D02*
X115000000Y-89000000D01*
X115000000Y-89000000D02*
X114500000Y-88500000D01*
X114500000Y-88500000D02*
X114500000Y-85000000D01*
X114500000Y-85000000D02*
X117500000Y-82000000D01*
X117500000Y-82000000D02*
X117500000Y-77000000D01*
X117500000Y-77000000D02*
X114500000Y-74000000D01*
X114500000Y-74000000D02*
X114500000Y-70000000D01*
X114500000Y-70000000D02*
X117500000Y-67000000D01*
X117500000Y-67000000D02*
X117500000Y-62000000D01*
X111500000Y-69500000D02*
X113500000Y-67500000D01*
X111500000Y-87500000D02*
X111500000Y-69500000D01*
X113500000Y-90000000D02*
X111500000Y-87500000D01*
X115500000Y-90500000D02*
X113500000Y-90000000D01*
D18*
G36*
X139340001Y-114340000D02*
G01*
X100660000Y-114340000D01*
X100660000Y-83500000D01*
X101236324Y-83500000D01*
X101240001Y-83537333D01*
X101240000Y-110062678D01*
X101236324Y-110100000D01*
X101240000Y-110137322D01*
X101240000Y-110137332D01*
X101250997Y-110248985D01*
X101269006Y-110308353D01*
X101294454Y-110392246D01*
X101365026Y-110524276D01*
X101404871Y-110572826D01*
X101459999Y-110640001D01*
X101489002Y-110663803D01*
X102336201Y-111511003D01*
X102359999Y-111540001D01*
X102475724Y-111634974D01*
X102511928Y-111654326D01*
X102511928Y-111850000D01*
X102524188Y-111974482D01*
X102560498Y-112094180D01*
X102619463Y-112204494D01*
X102698815Y-112301185D01*
X102795506Y-112380537D01*
X102905820Y-112439502D01*
X103025518Y-112475812D01*
X103150000Y-112488072D01*
X104850000Y-112488072D01*
X104974482Y-112475812D01*
X105094180Y-112439502D01*
X105204494Y-112380537D01*
X105301185Y-112301185D01*
X105380537Y-112204494D01*
X105439502Y-112094180D01*
X105475812Y-111974482D01*
X105488072Y-111850000D01*
X105488072Y-111654326D01*
X105524276Y-111634974D01*
X105640001Y-111540001D01*
X105663804Y-111510997D01*
X107011003Y-110163799D01*
X107040001Y-110140001D01*
X107085139Y-110085000D01*
X107134974Y-110024277D01*
X107205546Y-109892247D01*
X107249003Y-109748986D01*
X107260000Y-109637333D01*
X107260000Y-109637323D01*
X107263676Y-109600000D01*
X107260000Y-109562678D01*
X107260000Y-105814801D01*
X107489801Y-105585000D01*
X107606863Y-105585000D01*
X107816483Y-105543304D01*
X108013940Y-105461515D01*
X108191647Y-105342775D01*
X108342775Y-105191647D01*
X108461515Y-105013940D01*
X108543304Y-104816483D01*
X108585000Y-104606863D01*
X108585000Y-104393137D01*
X108543304Y-104183517D01*
X108461515Y-103986060D01*
X108342775Y-103808353D01*
X108191647Y-103657225D01*
X108013940Y-103538485D01*
X107816483Y-103456696D01*
X107606863Y-103415000D01*
X107393137Y-103415000D01*
X107183517Y-103456696D01*
X106986060Y-103538485D01*
X106808353Y-103657225D01*
X106657225Y-103808353D01*
X106538485Y-103986060D01*
X106456696Y-104183517D01*
X106415000Y-104393137D01*
X106415000Y-104510199D01*
X105989002Y-104936196D01*
X105959999Y-104959999D01*
X105915731Y-105013940D01*
X105865026Y-105075724D01*
X105803063Y-105191647D01*
X105794454Y-105207754D01*
X105750997Y-105351015D01*
X105740000Y-105462668D01*
X105740000Y-105462678D01*
X105736324Y-105500000D01*
X105740000Y-105537323D01*
X105740001Y-109285197D01*
X105312543Y-109712655D01*
X105301185Y-109698815D01*
X105204494Y-109619463D01*
X105094180Y-109560498D01*
X105025313Y-109539607D01*
X105055134Y-109515134D01*
X105240706Y-109289014D01*
X105378599Y-109031034D01*
X105463513Y-108751111D01*
X105492185Y-108460000D01*
X105463513Y-108168889D01*
X105378599Y-107888966D01*
X105240706Y-107630986D01*
X105055134Y-107404866D01*
X104829014Y-107219294D01*
X104774209Y-107190000D01*
X104829014Y-107160706D01*
X105055134Y-106975134D01*
X105240706Y-106749014D01*
X105378599Y-106491034D01*
X105463513Y-106211111D01*
X105492185Y-105920000D01*
X105463513Y-105628889D01*
X105378599Y-105348966D01*
X105240706Y-105090986D01*
X105055134Y-104864866D01*
X104829014Y-104679294D01*
X104764477Y-104644799D01*
X104881355Y-104575178D01*
X105097588Y-104380269D01*
X105271641Y-104146920D01*
X105396825Y-103884099D01*
X105441476Y-103736890D01*
X105320155Y-103507000D01*
X104127000Y-103507000D01*
X104127000Y-103527000D01*
X103873000Y-103527000D01*
X103873000Y-103507000D01*
X103853000Y-103507000D01*
X103853000Y-103253000D01*
X103873000Y-103253000D01*
X103873000Y-102059186D01*
X104127000Y-102059186D01*
X104127000Y-103253000D01*
X105320155Y-103253000D01*
X105441476Y-103023110D01*
X105396825Y-102875901D01*
X105271641Y-102613080D01*
X105097588Y-102379731D01*
X104881355Y-102184822D01*
X104631252Y-102035843D01*
X104356891Y-101938519D01*
X104127000Y-102059186D01*
X103873000Y-102059186D01*
X103643109Y-101938519D01*
X103368748Y-102035843D01*
X103118645Y-102184822D01*
X102902412Y-102379731D01*
X102760000Y-102570660D01*
X102760000Y-88309340D01*
X102902412Y-88500269D01*
X103118645Y-88695178D01*
X103368748Y-88844157D01*
X103643109Y-88941481D01*
X103873000Y-88820814D01*
X103873000Y-87627000D01*
X103853000Y-87627000D01*
X103853000Y-87373000D01*
X103873000Y-87373000D01*
X103873000Y-87353000D01*
X104127000Y-87353000D01*
X104127000Y-87373000D01*
X104147000Y-87373000D01*
X104147000Y-87627000D01*
X104127000Y-87627000D01*
X104127000Y-88820814D01*
X104356891Y-88941481D01*
X104631252Y-88844157D01*
X104881355Y-88695178D01*
X105097588Y-88500269D01*
X105240001Y-88309339D01*
X105240000Y-94462678D01*
X105236324Y-94500000D01*
X105240000Y-94537322D01*
X105240000Y-94537332D01*
X105250997Y-94648985D01*
X105277491Y-94736324D01*
X105294454Y-94792246D01*
X105365026Y-94924276D01*
X105404871Y-94972826D01*
X105459999Y-95040001D01*
X105489003Y-95063804D01*
X121415000Y-110989802D01*
X121415000Y-111106863D01*
X121456696Y-111316483D01*
X121538485Y-111513940D01*
X121657225Y-111691647D01*
X121808353Y-111842775D01*
X121986060Y-111961515D01*
X122183517Y-112043304D01*
X122393137Y-112085000D01*
X122606863Y-112085000D01*
X122816483Y-112043304D01*
X123013940Y-111961515D01*
X123191647Y-111842775D01*
X123274422Y-111760000D01*
X125462678Y-111760000D01*
X125500000Y-111763676D01*
X125537322Y-111760000D01*
X125537333Y-111760000D01*
X125648986Y-111749003D01*
X125792247Y-111705546D01*
X125924276Y-111634974D01*
X126040001Y-111540001D01*
X126063804Y-111510998D01*
X127011246Y-110563556D01*
X127040485Y-110539516D01*
X127087214Y-110482471D01*
X127134974Y-110424276D01*
X127135139Y-110423968D01*
X127135354Y-110423705D01*
X127170094Y-110358571D01*
X127205546Y-110292247D01*
X127205646Y-110291916D01*
X127205808Y-110291613D01*
X127227246Y-110220710D01*
X127249003Y-110148986D01*
X127249037Y-110148640D01*
X127249136Y-110148313D01*
X127256336Y-110074530D01*
X127263677Y-110000000D01*
X127259966Y-109962325D01*
X127252269Y-101390589D01*
X131965000Y-101390589D01*
X131965000Y-101663411D01*
X132018225Y-101930989D01*
X132122629Y-102183043D01*
X132274201Y-102409886D01*
X132467114Y-102602799D01*
X132693957Y-102754371D01*
X132946011Y-102858775D01*
X133213589Y-102912000D01*
X133486411Y-102912000D01*
X133753989Y-102858775D01*
X134006043Y-102754371D01*
X134232886Y-102602799D01*
X134425799Y-102409886D01*
X134577371Y-102183043D01*
X134681775Y-101930989D01*
X134735000Y-101663411D01*
X134735000Y-101390589D01*
X134681775Y-101123011D01*
X134577371Y-100870957D01*
X134425799Y-100644114D01*
X134232886Y-100451201D01*
X134006043Y-100299629D01*
X133753989Y-100195225D01*
X133486411Y-100142000D01*
X133213589Y-100142000D01*
X132946011Y-100195225D01*
X132693957Y-100299629D01*
X132467114Y-100451201D01*
X132274201Y-100644114D01*
X132122629Y-100870957D01*
X132018225Y-101123011D01*
X131965000Y-101390589D01*
X127252269Y-101390589D01*
X127252234Y-101352476D01*
X129879799Y-97974448D01*
X129920974Y-97924276D01*
X129943353Y-97882409D01*
X129968682Y-97842268D01*
X129978555Y-97816551D01*
X129991546Y-97792247D01*
X130005327Y-97746817D01*
X130022338Y-97702507D01*
X130027005Y-97675352D01*
X130035003Y-97648986D01*
X130039656Y-97601742D01*
X130047696Y-97554963D01*
X130046000Y-97490098D01*
X130046000Y-96510589D01*
X131965000Y-96510589D01*
X131965000Y-96783411D01*
X132018225Y-97050989D01*
X132122629Y-97303043D01*
X132274201Y-97529886D01*
X132467114Y-97722799D01*
X132693957Y-97874371D01*
X132946011Y-97978775D01*
X133213589Y-98032000D01*
X133486411Y-98032000D01*
X133753989Y-97978775D01*
X134006043Y-97874371D01*
X134232886Y-97722799D01*
X134425799Y-97529886D01*
X134577371Y-97303043D01*
X134681775Y-97050989D01*
X134735000Y-96783411D01*
X134735000Y-96510589D01*
X134681775Y-96243011D01*
X134577371Y-95990957D01*
X134425799Y-95764114D01*
X134232886Y-95571201D01*
X134006043Y-95419629D01*
X133753989Y-95315225D01*
X133486411Y-95262000D01*
X133213589Y-95262000D01*
X132946011Y-95315225D01*
X132693957Y-95419629D01*
X132467114Y-95571201D01*
X132274201Y-95764114D01*
X132122629Y-95990957D01*
X132018225Y-96243011D01*
X131965000Y-96510589D01*
X130046000Y-96510589D01*
X130046000Y-84303574D01*
X130204178Y-84065643D01*
X130316483Y-84043304D01*
X130513940Y-83961515D01*
X130691647Y-83842775D01*
X130842775Y-83691647D01*
X130961515Y-83513940D01*
X131043304Y-83316483D01*
X131085000Y-83106863D01*
X131085000Y-82893137D01*
X131043304Y-82683517D01*
X130961515Y-82486060D01*
X130842775Y-82308353D01*
X130691647Y-82157225D01*
X130513940Y-82038485D01*
X130316483Y-81956696D01*
X130106863Y-81915000D01*
X129893137Y-81915000D01*
X129683517Y-81956696D01*
X129486060Y-82038485D01*
X129308353Y-82157225D01*
X129157225Y-82308353D01*
X129038485Y-82486060D01*
X128956696Y-82683517D01*
X128915000Y-82893137D01*
X128915000Y-83106863D01*
X128938337Y-83224187D01*
X128674255Y-83621420D01*
X128651027Y-83649724D01*
X128632926Y-83683587D01*
X128632430Y-83684334D01*
X128615252Y-83716653D01*
X128580455Y-83781753D01*
X128580194Y-83782612D01*
X128579774Y-83783403D01*
X128558429Y-83854364D01*
X128536998Y-83925014D01*
X128536911Y-83925902D01*
X128536651Y-83926765D01*
X128529554Y-84000598D01*
X128526001Y-84036667D01*
X128526001Y-84037554D01*
X128522326Y-84075784D01*
X128526001Y-84112223D01*
X128526000Y-97239222D01*
X125897977Y-100617840D01*
X125856646Y-100668295D01*
X125834468Y-100709876D01*
X125809318Y-100749733D01*
X125799323Y-100775769D01*
X125786192Y-100800387D01*
X125772550Y-100845505D01*
X125755662Y-100889495D01*
X125750937Y-100916987D01*
X125742864Y-100943687D01*
X125738287Y-100990592D01*
X125730304Y-101037038D01*
X125732009Y-101102251D01*
X125739717Y-109685481D01*
X125185199Y-110240000D01*
X123274422Y-110240000D01*
X123191647Y-110157225D01*
X123013940Y-110038485D01*
X122816483Y-109956696D01*
X122606863Y-109915000D01*
X122489802Y-109915000D01*
X120811957Y-108237156D01*
X120851014Y-108249003D01*
X120962667Y-108260000D01*
X120962677Y-108260000D01*
X121000000Y-108263676D01*
X121037323Y-108260000D01*
X121225578Y-108260000D01*
X121308353Y-108342775D01*
X121486060Y-108461515D01*
X121683517Y-108543304D01*
X121893137Y-108585000D01*
X122106863Y-108585000D01*
X122316483Y-108543304D01*
X122513940Y-108461515D01*
X122691647Y-108342775D01*
X122842775Y-108191647D01*
X122961515Y-108013940D01*
X123043304Y-107816483D01*
X123074181Y-107661254D01*
X123240001Y-107821893D01*
X123240001Y-108225577D01*
X123157225Y-108308353D01*
X123038485Y-108486060D01*
X122956696Y-108683517D01*
X122915000Y-108893137D01*
X122915000Y-109106863D01*
X122956696Y-109316483D01*
X123038485Y-109513940D01*
X123157225Y-109691647D01*
X123308353Y-109842775D01*
X123486060Y-109961515D01*
X123683517Y-110043304D01*
X123893137Y-110085000D01*
X124106863Y-110085000D01*
X124316483Y-110043304D01*
X124513940Y-109961515D01*
X124691647Y-109842775D01*
X124842775Y-109691647D01*
X124961515Y-109513940D01*
X125043304Y-109316483D01*
X125085000Y-109106863D01*
X125085000Y-108893137D01*
X125043304Y-108683517D01*
X124961515Y-108486060D01*
X124842775Y-108308353D01*
X124760000Y-108225578D01*
X124760000Y-107531276D01*
X124763580Y-107487879D01*
X124755754Y-107419560D01*
X124749003Y-107351014D01*
X124747235Y-107345185D01*
X124746543Y-107339145D01*
X124725541Y-107273669D01*
X124705546Y-107207753D01*
X124702675Y-107202382D01*
X124700818Y-107196592D01*
X124667425Y-107136435D01*
X124634974Y-107075724D01*
X124631114Y-107071020D01*
X124628160Y-107065699D01*
X124583651Y-107013186D01*
X124540001Y-106959999D01*
X124506335Y-106932370D01*
X109630388Y-92521297D01*
X109683517Y-92543304D01*
X109893137Y-92585000D01*
X110106863Y-92585000D01*
X110316483Y-92543304D01*
X110513940Y-92461515D01*
X110691647Y-92342775D01*
X110842775Y-92191647D01*
X110961515Y-92013940D01*
X111043304Y-91816483D01*
X111085000Y-91606863D01*
X111085000Y-91393137D01*
X111043304Y-91183517D01*
X111027284Y-91144842D01*
X111175133Y-90849144D01*
X111205546Y-90792247D01*
X111219447Y-90746420D01*
X111236557Y-90701708D01*
X111241125Y-90674957D01*
X111249003Y-90648986D01*
X111253696Y-90601339D01*
X111261756Y-90554137D01*
X111260000Y-90489665D01*
X111260000Y-88416594D01*
X112897984Y-90464073D01*
X112934389Y-90513113D01*
X112972389Y-90547523D01*
X113008197Y-90584236D01*
X113027766Y-90597668D01*
X113045359Y-90613599D01*
X113089346Y-90639936D01*
X113131626Y-90668957D01*
X113153443Y-90678314D01*
X113173803Y-90690505D01*
X113222086Y-90707756D01*
X113269211Y-90727968D01*
X113328985Y-90740635D01*
X114561805Y-91048840D01*
X114657225Y-91191647D01*
X114808353Y-91342775D01*
X114986060Y-91461515D01*
X115183517Y-91543304D01*
X115393137Y-91585000D01*
X115606863Y-91585000D01*
X115816483Y-91543304D01*
X116013940Y-91461515D01*
X116191647Y-91342775D01*
X116342775Y-91191647D01*
X116461515Y-91013940D01*
X116543304Y-90816483D01*
X116585000Y-90606863D01*
X116585000Y-90393137D01*
X116543304Y-90183517D01*
X116461515Y-89986060D01*
X116342775Y-89808353D01*
X116294422Y-89760000D01*
X116445461Y-89760000D01*
X116456696Y-89816483D01*
X116538485Y-90013940D01*
X116657225Y-90191647D01*
X116808353Y-90342775D01*
X116986060Y-90461515D01*
X117183517Y-90543304D01*
X117393137Y-90585000D01*
X117606863Y-90585000D01*
X117816483Y-90543304D01*
X118013940Y-90461515D01*
X118191647Y-90342775D01*
X118342775Y-90191647D01*
X118461515Y-90013940D01*
X118543304Y-89816483D01*
X118585000Y-89606863D01*
X118585000Y-89393137D01*
X118543304Y-89183517D01*
X118461515Y-88986060D01*
X118342775Y-88808353D01*
X118191647Y-88657225D01*
X118013940Y-88538485D01*
X117816483Y-88456696D01*
X117606863Y-88415000D01*
X117485170Y-88415000D01*
X117424276Y-88365026D01*
X117292247Y-88294454D01*
X117148986Y-88250997D01*
X117037333Y-88240000D01*
X117037322Y-88240000D01*
X117000000Y-88236324D01*
X116962678Y-88240000D01*
X115314801Y-88240000D01*
X115260000Y-88185199D01*
X115260000Y-85500000D01*
X115861928Y-85500000D01*
X115861928Y-87500000D01*
X115874188Y-87624482D01*
X115910498Y-87744180D01*
X115969463Y-87854494D01*
X116048815Y-87951185D01*
X116145506Y-88030537D01*
X116255820Y-88089502D01*
X116375518Y-88125812D01*
X116500000Y-88138072D01*
X118500000Y-88138072D01*
X118624482Y-88125812D01*
X118744180Y-88089502D01*
X118854494Y-88030537D01*
X118951185Y-87951185D01*
X119030537Y-87854494D01*
X119085976Y-87750777D01*
X119139956Y-87899814D01*
X119429571Y-88040704D01*
X119741108Y-88122384D01*
X120062595Y-88141718D01*
X120381675Y-88097961D01*
X120686088Y-87992795D01*
X120860044Y-87899814D01*
X120955808Y-87635413D01*
X120000000Y-86679605D01*
X119985858Y-86693748D01*
X119806253Y-86514143D01*
X119820395Y-86500000D01*
X120179605Y-86500000D01*
X121135413Y-87455808D01*
X121165075Y-87445065D01*
X121230013Y-87542252D01*
X121457748Y-87769987D01*
X121725537Y-87948918D01*
X122023088Y-88072168D01*
X122338967Y-88135000D01*
X122661033Y-88135000D01*
X122976912Y-88072168D01*
X123274463Y-87948918D01*
X123542252Y-87769987D01*
X123769987Y-87542252D01*
X123948918Y-87274463D01*
X124072168Y-86976912D01*
X124135000Y-86661033D01*
X124135000Y-86338967D01*
X124072168Y-86023088D01*
X123948918Y-85725537D01*
X123769987Y-85457748D01*
X123542252Y-85230013D01*
X123274463Y-85051082D01*
X122976912Y-84927832D01*
X122661033Y-84865000D01*
X122338967Y-84865000D01*
X122023088Y-84927832D01*
X121725537Y-85051082D01*
X121457748Y-85230013D01*
X121230013Y-85457748D01*
X121165075Y-85554935D01*
X121135413Y-85544192D01*
X120179605Y-86500000D01*
X119820395Y-86500000D01*
X119806253Y-86485858D01*
X119985858Y-86306253D01*
X120000000Y-86320395D01*
X120955808Y-85364587D01*
X120860044Y-85100186D01*
X120570429Y-84959296D01*
X120258892Y-84877616D01*
X119937405Y-84858282D01*
X119618325Y-84902039D01*
X119313912Y-85007205D01*
X119139956Y-85100186D01*
X119085976Y-85249223D01*
X119030537Y-85145506D01*
X118951185Y-85048815D01*
X118854494Y-84969463D01*
X118744180Y-84910498D01*
X118624482Y-84874188D01*
X118500000Y-84861928D01*
X116500000Y-84861928D01*
X116375518Y-84874188D01*
X116255820Y-84910498D01*
X116145506Y-84969463D01*
X116048815Y-85048815D01*
X115969463Y-85145506D01*
X115910498Y-85255820D01*
X115874188Y-85375518D01*
X115861928Y-85500000D01*
X115260000Y-85500000D01*
X115260000Y-85314801D01*
X118011004Y-82563798D01*
X118040001Y-82540001D01*
X118134974Y-82424276D01*
X118205546Y-82292247D01*
X118249003Y-82148986D01*
X118260000Y-82037333D01*
X118260000Y-82037325D01*
X118263676Y-82000000D01*
X118260000Y-81962675D01*
X118260000Y-77037325D01*
X118263676Y-77000000D01*
X118260000Y-76962675D01*
X118260000Y-76962667D01*
X118249003Y-76851014D01*
X118205546Y-76707753D01*
X118134974Y-76575724D01*
X118040001Y-76459999D01*
X118011003Y-76436201D01*
X115260000Y-73685199D01*
X115260000Y-73135413D01*
X116544192Y-73135413D01*
X116639956Y-73399814D01*
X116929571Y-73540704D01*
X117241108Y-73622384D01*
X117562595Y-73641718D01*
X117881675Y-73597961D01*
X118186088Y-73492795D01*
X118360044Y-73399814D01*
X118455808Y-73135413D01*
X117500000Y-72179605D01*
X116544192Y-73135413D01*
X115260000Y-73135413D01*
X115260000Y-72062595D01*
X115858282Y-72062595D01*
X115902039Y-72381675D01*
X116007205Y-72686088D01*
X116100186Y-72860044D01*
X116364587Y-72955808D01*
X117320395Y-72000000D01*
X117679605Y-72000000D01*
X118635413Y-72955808D01*
X118899814Y-72860044D01*
X119040704Y-72570429D01*
X119122384Y-72258892D01*
X119141718Y-71937405D01*
X119128219Y-71838967D01*
X120865000Y-71838967D01*
X120865000Y-72161033D01*
X120927832Y-72476912D01*
X121051082Y-72774463D01*
X121230013Y-73042252D01*
X121457748Y-73269987D01*
X121725537Y-73448918D01*
X122023088Y-73572168D01*
X122338967Y-73635000D01*
X122661033Y-73635000D01*
X122976912Y-73572168D01*
X123274463Y-73448918D01*
X123542252Y-73269987D01*
X123769987Y-73042252D01*
X123948918Y-72774463D01*
X124072168Y-72476912D01*
X124135000Y-72161033D01*
X124135000Y-71838967D01*
X124072168Y-71523088D01*
X123948918Y-71225537D01*
X123769987Y-70957748D01*
X123542252Y-70730013D01*
X123274463Y-70551082D01*
X122976912Y-70427832D01*
X122661033Y-70365000D01*
X122338967Y-70365000D01*
X122023088Y-70427832D01*
X121725537Y-70551082D01*
X121457748Y-70730013D01*
X121230013Y-70957748D01*
X121051082Y-71225537D01*
X120927832Y-71523088D01*
X120865000Y-71838967D01*
X119128219Y-71838967D01*
X119097961Y-71618325D01*
X118992795Y-71313912D01*
X118899814Y-71139956D01*
X118635413Y-71044192D01*
X117679605Y-72000000D01*
X117320395Y-72000000D01*
X116364587Y-71044192D01*
X116100186Y-71139956D01*
X115959296Y-71429571D01*
X115877616Y-71741108D01*
X115858282Y-72062595D01*
X115260000Y-72062595D01*
X115260000Y-70864587D01*
X116544192Y-70864587D01*
X117500000Y-71820395D01*
X118455808Y-70864587D01*
X118360044Y-70600186D01*
X118070429Y-70459296D01*
X117758892Y-70377616D01*
X117437405Y-70358282D01*
X117118325Y-70402039D01*
X116813912Y-70507205D01*
X116639956Y-70600186D01*
X116544192Y-70864587D01*
X115260000Y-70864587D01*
X115260000Y-70314801D01*
X118011004Y-67563798D01*
X118040001Y-67540001D01*
X118134974Y-67424276D01*
X118205546Y-67292247D01*
X118249003Y-67148986D01*
X118260000Y-67037333D01*
X118260000Y-67037325D01*
X118263676Y-67000000D01*
X118260000Y-66962675D01*
X118260000Y-62774422D01*
X118342775Y-62691647D01*
X118461515Y-62513940D01*
X118543304Y-62316483D01*
X118585000Y-62106863D01*
X118585000Y-61893137D01*
X118543304Y-61683517D01*
X118461515Y-61486060D01*
X118342775Y-61308353D01*
X118191647Y-61157225D01*
X118013940Y-61038485D01*
X117816483Y-60956696D01*
X117606863Y-60915000D01*
X117393137Y-60915000D01*
X117183517Y-60956696D01*
X116986060Y-61038485D01*
X116808353Y-61157225D01*
X116657225Y-61308353D01*
X116538485Y-61486060D01*
X116456696Y-61683517D01*
X116415000Y-61893137D01*
X116415000Y-62106863D01*
X116456696Y-62316483D01*
X116538485Y-62513940D01*
X116657225Y-62691647D01*
X116740001Y-62774423D01*
X116740000Y-66685198D01*
X113988998Y-69436201D01*
X113960000Y-69459999D01*
X113936202Y-69488997D01*
X113936201Y-69488998D01*
X113865026Y-69575724D01*
X113794454Y-69707754D01*
X113768825Y-69792246D01*
X113750999Y-69851013D01*
X113750998Y-69851015D01*
X113736324Y-70000000D01*
X113740001Y-70037332D01*
X113740000Y-73962677D01*
X113736324Y-74000000D01*
X113740000Y-74037322D01*
X113740000Y-74037332D01*
X113750997Y-74148985D01*
X113784672Y-74259999D01*
X113794454Y-74292246D01*
X113865026Y-74424276D01*
X113904871Y-74472826D01*
X113959999Y-74540001D01*
X113989003Y-74563804D01*
X116740001Y-77314803D01*
X116740000Y-81685198D01*
X113988998Y-84436201D01*
X113960000Y-84459999D01*
X113936202Y-84488997D01*
X113936201Y-84488998D01*
X113865026Y-84575724D01*
X113794454Y-84707754D01*
X113781942Y-84749002D01*
X113750998Y-84851014D01*
X113749618Y-84865026D01*
X113736324Y-85000000D01*
X113740001Y-85037332D01*
X113740000Y-88462677D01*
X113736324Y-88500000D01*
X113740000Y-88537322D01*
X113740000Y-88537332D01*
X113750997Y-88648985D01*
X113794454Y-88792246D01*
X113865026Y-88924276D01*
X113879146Y-88941481D01*
X113959999Y-89040001D01*
X113989003Y-89063804D01*
X114355747Y-89430548D01*
X113933204Y-89324912D01*
X112260000Y-87233407D01*
X112260000Y-77400000D01*
X112761928Y-77400000D01*
X112761928Y-80600000D01*
X112774188Y-80724482D01*
X112810498Y-80844180D01*
X112869463Y-80954494D01*
X112948815Y-81051185D01*
X113045506Y-81130537D01*
X113155820Y-81189502D01*
X113275518Y-81225812D01*
X113400000Y-81238072D01*
X115400000Y-81238072D01*
X115524482Y-81225812D01*
X115644180Y-81189502D01*
X115754494Y-81130537D01*
X115851185Y-81051185D01*
X115930537Y-80954494D01*
X115989502Y-80844180D01*
X116025812Y-80724482D01*
X116038072Y-80600000D01*
X116038072Y-77400000D01*
X116025812Y-77275518D01*
X115989502Y-77155820D01*
X115930537Y-77045506D01*
X115851185Y-76948815D01*
X115754494Y-76869463D01*
X115644180Y-76810498D01*
X115524482Y-76774188D01*
X115400000Y-76761928D01*
X113400000Y-76761928D01*
X113275518Y-76774188D01*
X113155820Y-76810498D01*
X113045506Y-76869463D01*
X112948815Y-76948815D01*
X112869463Y-77045506D01*
X112810498Y-77155820D01*
X112774188Y-77275518D01*
X112761928Y-77400000D01*
X112260000Y-77400000D01*
X112260000Y-69814801D01*
X113489802Y-68585000D01*
X113606863Y-68585000D01*
X113816483Y-68543304D01*
X114013940Y-68461515D01*
X114191647Y-68342775D01*
X114342775Y-68191647D01*
X114461515Y-68013940D01*
X114543304Y-67816483D01*
X114585000Y-67606863D01*
X114585000Y-67393137D01*
X114543304Y-67183517D01*
X114461515Y-66986060D01*
X114342775Y-66808353D01*
X114191647Y-66657225D01*
X114013940Y-66538485D01*
X113816483Y-66456696D01*
X113606863Y-66415000D01*
X113393137Y-66415000D01*
X113183517Y-66456696D01*
X112986060Y-66538485D01*
X112808353Y-66657225D01*
X112657225Y-66808353D01*
X112538485Y-66986060D01*
X112456696Y-67183517D01*
X112415000Y-67393137D01*
X112415000Y-67510198D01*
X111260000Y-68665199D01*
X111260000Y-67793820D01*
X116025035Y-62552283D01*
X116040001Y-62540001D01*
X116075277Y-62497017D01*
X116087467Y-62483608D01*
X116098965Y-62468153D01*
X116134974Y-62424276D01*
X116143563Y-62408208D01*
X116154435Y-62393594D01*
X116178779Y-62342323D01*
X116205546Y-62292247D01*
X116210835Y-62274813D01*
X116218648Y-62258357D01*
X116232524Y-62203312D01*
X116249003Y-62148986D01*
X116250789Y-62130853D01*
X116255241Y-62113192D01*
X116258111Y-62056510D01*
X116260000Y-62037333D01*
X116260000Y-62019209D01*
X116262812Y-61963676D01*
X116260000Y-61944521D01*
X116260000Y-57893137D01*
X116415000Y-57893137D01*
X116415000Y-58106863D01*
X116456696Y-58316483D01*
X116538485Y-58513940D01*
X116657225Y-58691647D01*
X116740001Y-58774423D01*
X116740001Y-58962668D01*
X116736324Y-59000000D01*
X116750998Y-59148985D01*
X116794454Y-59292246D01*
X116865026Y-59424276D01*
X116936201Y-59511002D01*
X116960000Y-59540001D01*
X116988998Y-59563799D01*
X120240000Y-62814803D01*
X120240001Y-65962668D01*
X120236324Y-66000000D01*
X120250998Y-66148985D01*
X120294454Y-66292246D01*
X120365026Y-66424276D01*
X120436201Y-66511002D01*
X120460000Y-66540001D01*
X120488998Y-66563799D01*
X124240000Y-70314802D01*
X124240001Y-74185197D01*
X121989003Y-76436196D01*
X121959999Y-76459999D01*
X121904871Y-76527174D01*
X121865026Y-76575724D01*
X121794455Y-76707753D01*
X121794454Y-76707754D01*
X121750997Y-76851015D01*
X121740000Y-76962668D01*
X121740000Y-76962678D01*
X121736324Y-77000000D01*
X121740000Y-77037323D01*
X121740001Y-81462667D01*
X121736324Y-81500000D01*
X121740001Y-81537333D01*
X121750998Y-81648986D01*
X121754795Y-81661502D01*
X121794454Y-81792246D01*
X121865026Y-81924276D01*
X121936201Y-82011002D01*
X121960000Y-82040001D01*
X121988998Y-82063799D01*
X124240000Y-84314802D01*
X124240001Y-95462668D01*
X124236324Y-95500000D01*
X124250998Y-95648985D01*
X124294454Y-95792246D01*
X124365026Y-95924276D01*
X124436201Y-96011002D01*
X124460000Y-96040001D01*
X124488998Y-96063799D01*
X125415000Y-96989802D01*
X125415000Y-97106863D01*
X125456696Y-97316483D01*
X125538485Y-97513940D01*
X125657225Y-97691647D01*
X125808353Y-97842775D01*
X125986060Y-97961515D01*
X126183517Y-98043304D01*
X126393137Y-98085000D01*
X126606863Y-98085000D01*
X126816483Y-98043304D01*
X127013940Y-97961515D01*
X127191647Y-97842775D01*
X127342775Y-97691647D01*
X127461515Y-97513940D01*
X127543304Y-97316483D01*
X127585000Y-97106863D01*
X127585000Y-96893137D01*
X127543304Y-96683517D01*
X127461515Y-96486060D01*
X127342775Y-96308353D01*
X127191647Y-96157225D01*
X127013940Y-96038485D01*
X126816483Y-95956696D01*
X126606863Y-95915000D01*
X126489802Y-95915000D01*
X125760000Y-95185199D01*
X125760000Y-84037323D01*
X125763676Y-84000000D01*
X125760000Y-83962677D01*
X125760000Y-83962667D01*
X125749003Y-83851014D01*
X125705546Y-83707753D01*
X125693028Y-83684334D01*
X125634974Y-83575723D01*
X125563799Y-83488997D01*
X125540001Y-83459999D01*
X125511004Y-83436202D01*
X123260000Y-81185199D01*
X123260000Y-77400000D01*
X123961928Y-77400000D01*
X123961928Y-80600000D01*
X123974188Y-80724482D01*
X124010498Y-80844180D01*
X124069463Y-80954494D01*
X124148815Y-81051185D01*
X124245506Y-81130537D01*
X124355820Y-81189502D01*
X124475518Y-81225812D01*
X124600000Y-81238072D01*
X126600000Y-81238072D01*
X126724482Y-81225812D01*
X126844180Y-81189502D01*
X126954494Y-81130537D01*
X127051185Y-81051185D01*
X127130537Y-80954494D01*
X127189502Y-80844180D01*
X127225812Y-80724482D01*
X127238072Y-80600000D01*
X127238072Y-77400000D01*
X127225812Y-77275518D01*
X127189502Y-77155820D01*
X127130537Y-77045506D01*
X127051185Y-76948815D01*
X126954494Y-76869463D01*
X126844180Y-76810498D01*
X126724482Y-76774188D01*
X126600000Y-76761928D01*
X124600000Y-76761928D01*
X124475518Y-76774188D01*
X124355820Y-76810498D01*
X124245506Y-76869463D01*
X124148815Y-76948815D01*
X124069463Y-77045506D01*
X124010498Y-77155820D01*
X123974188Y-77275518D01*
X123961928Y-77400000D01*
X123260000Y-77400000D01*
X123260000Y-77314801D01*
X125511003Y-75063799D01*
X125540001Y-75040001D01*
X125566332Y-75007917D01*
X125634974Y-74924277D01*
X125705546Y-74792247D01*
X125714212Y-74763677D01*
X125749003Y-74648986D01*
X125760000Y-74537333D01*
X125760000Y-74537323D01*
X125763676Y-74500000D01*
X125760000Y-74462677D01*
X125760000Y-70037322D01*
X125763676Y-69999999D01*
X125760000Y-69962676D01*
X125760000Y-69962667D01*
X125749003Y-69851014D01*
X125705546Y-69707753D01*
X125634974Y-69575724D01*
X125540001Y-69459999D01*
X125511004Y-69436202D01*
X121760000Y-65685199D01*
X121760000Y-62537322D01*
X121763676Y-62499999D01*
X121760000Y-62462676D01*
X121760000Y-62462667D01*
X121749003Y-62351014D01*
X121705546Y-62207753D01*
X121634974Y-62075724D01*
X121621811Y-62059685D01*
X121563799Y-61988996D01*
X121563795Y-61988992D01*
X121540001Y-61959999D01*
X121511009Y-61936206D01*
X118304612Y-58729810D01*
X118342775Y-58691647D01*
X118461515Y-58513940D01*
X118543304Y-58316483D01*
X118585000Y-58106863D01*
X118585000Y-57893137D01*
X118543304Y-57683517D01*
X118461515Y-57486060D01*
X118342775Y-57308353D01*
X118191647Y-57157225D01*
X118013940Y-57038485D01*
X117816483Y-56956696D01*
X117606863Y-56915000D01*
X117393137Y-56915000D01*
X117183517Y-56956696D01*
X116986060Y-57038485D01*
X116808353Y-57157225D01*
X116657225Y-57308353D01*
X116538485Y-57486060D01*
X116456696Y-57683517D01*
X116415000Y-57893137D01*
X116260000Y-57893137D01*
X116260000Y-56314801D01*
X117489802Y-55085000D01*
X117606863Y-55085000D01*
X117816483Y-55043304D01*
X118013940Y-54961515D01*
X118191647Y-54842775D01*
X118342775Y-54691647D01*
X118461515Y-54513940D01*
X118543304Y-54316483D01*
X118585000Y-54106863D01*
X118585000Y-53893137D01*
X118543304Y-53683517D01*
X118461515Y-53486060D01*
X118342775Y-53308353D01*
X118191647Y-53157225D01*
X118013940Y-53038485D01*
X117816483Y-52956696D01*
X117606863Y-52915000D01*
X117393137Y-52915000D01*
X117183517Y-52956696D01*
X116986060Y-53038485D01*
X116808353Y-53157225D01*
X116657225Y-53308353D01*
X116538485Y-53486060D01*
X116456696Y-53683517D01*
X116415000Y-53893137D01*
X116415000Y-54010198D01*
X114988998Y-55436201D01*
X114960000Y-55459999D01*
X114936202Y-55488997D01*
X114936201Y-55488998D01*
X114865026Y-55575724D01*
X114794454Y-55707754D01*
X114750998Y-55851015D01*
X114736324Y-56000000D01*
X114740001Y-56037332D01*
X114740000Y-61706179D01*
X109974966Y-66947717D01*
X109960000Y-66959999D01*
X109924724Y-67002982D01*
X109912533Y-67016393D01*
X109901031Y-67031853D01*
X109865027Y-67075724D01*
X109856441Y-67091787D01*
X109845564Y-67106407D01*
X109821212Y-67157696D01*
X109794455Y-67207753D01*
X109789168Y-67225184D01*
X109781352Y-67241644D01*
X109767473Y-67296701D01*
X109750998Y-67351014D01*
X109749212Y-67369143D01*
X109744759Y-67386810D01*
X109741888Y-67443509D01*
X109740001Y-67462667D01*
X109740001Y-67480772D01*
X109737188Y-67536324D01*
X109740001Y-67555486D01*
X109740000Y-90320591D01*
X109668925Y-90462740D01*
X109486060Y-90538485D01*
X109308353Y-90657225D01*
X109157225Y-90808353D01*
X109038485Y-90986060D01*
X108956696Y-91183517D01*
X108915000Y-91393137D01*
X108915000Y-91606863D01*
X108956696Y-91816483D01*
X108992792Y-91903626D01*
X108760000Y-91678109D01*
X108760000Y-77737322D01*
X108763676Y-77699999D01*
X108760000Y-77662676D01*
X108760000Y-77662667D01*
X108749003Y-77551014D01*
X108705546Y-77407753D01*
X108634974Y-77275724D01*
X108540001Y-77159999D01*
X108511003Y-77136201D01*
X105663804Y-74289003D01*
X105640001Y-74259999D01*
X105524276Y-74165026D01*
X105488072Y-74145674D01*
X105488072Y-73950000D01*
X105475812Y-73825518D01*
X105439502Y-73705820D01*
X105380537Y-73595506D01*
X105301185Y-73498815D01*
X105204494Y-73419463D01*
X105094180Y-73360498D01*
X104974482Y-73324188D01*
X104850000Y-73311928D01*
X103150000Y-73311928D01*
X103025518Y-73324188D01*
X102905820Y-73360498D01*
X102795506Y-73419463D01*
X102698815Y-73498815D01*
X102619463Y-73595506D01*
X102560498Y-73705820D01*
X102524188Y-73825518D01*
X102511928Y-73950000D01*
X102511928Y-75650000D01*
X102524188Y-75774482D01*
X102560498Y-75894180D01*
X102619463Y-76004494D01*
X102698815Y-76101185D01*
X102795506Y-76180537D01*
X102905820Y-76239502D01*
X102974687Y-76260393D01*
X102944866Y-76284866D01*
X102759294Y-76510986D01*
X102621401Y-76768966D01*
X102536487Y-77048889D01*
X102507815Y-77340000D01*
X102536487Y-77631111D01*
X102621401Y-77911034D01*
X102759294Y-78169014D01*
X102944866Y-78395134D01*
X103170986Y-78580706D01*
X103225791Y-78610000D01*
X103170986Y-78639294D01*
X102944866Y-78824866D01*
X102759294Y-79050986D01*
X102621401Y-79308966D01*
X102536487Y-79588889D01*
X102507815Y-79880000D01*
X102536487Y-80171111D01*
X102621401Y-80451034D01*
X102759294Y-80709014D01*
X102944866Y-80935134D01*
X103170986Y-81120706D01*
X103225791Y-81150000D01*
X103170986Y-81179294D01*
X102944866Y-81364866D01*
X102759294Y-81590986D01*
X102628762Y-81835195D01*
X102614976Y-81844045D01*
X102575724Y-81865026D01*
X102552121Y-81884396D01*
X102526440Y-81900883D01*
X102494411Y-81931758D01*
X102488997Y-81936201D01*
X102467471Y-81957727D01*
X102418657Y-82004782D01*
X102414648Y-82010550D01*
X101488998Y-82936201D01*
X101460000Y-82959999D01*
X101436202Y-82988997D01*
X101436201Y-82988998D01*
X101365026Y-83075724D01*
X101294454Y-83207754D01*
X101269325Y-83290598D01*
X101250998Y-83351014D01*
X101240264Y-83459999D01*
X101236324Y-83500000D01*
X100660000Y-83500000D01*
X100660000Y-61338967D01*
X104365000Y-61338967D01*
X104365000Y-61661033D01*
X104427832Y-61976912D01*
X104551082Y-62274463D01*
X104730013Y-62542252D01*
X104957748Y-62769987D01*
X105225537Y-62948918D01*
X105523088Y-63072168D01*
X105838967Y-63135000D01*
X106161033Y-63135000D01*
X106476912Y-63072168D01*
X106774463Y-62948918D01*
X107042252Y-62769987D01*
X107176826Y-62635413D01*
X109544192Y-62635413D01*
X109639956Y-62899814D01*
X109929571Y-63040704D01*
X110241108Y-63122384D01*
X110562595Y-63141718D01*
X110881675Y-63097961D01*
X111186088Y-62992795D01*
X111360044Y-62899814D01*
X111455808Y-62635413D01*
X110500000Y-61679605D01*
X109544192Y-62635413D01*
X107176826Y-62635413D01*
X107269987Y-62542252D01*
X107448918Y-62274463D01*
X107572168Y-61976912D01*
X107635000Y-61661033D01*
X107635000Y-61562595D01*
X108858282Y-61562595D01*
X108902039Y-61881675D01*
X109007205Y-62186088D01*
X109100186Y-62360044D01*
X109364587Y-62455808D01*
X110320395Y-61500000D01*
X110679605Y-61500000D01*
X111635413Y-62455808D01*
X111899814Y-62360044D01*
X112040704Y-62070429D01*
X112122384Y-61758892D01*
X112141718Y-61437405D01*
X112097961Y-61118325D01*
X111992795Y-60813912D01*
X111899814Y-60639956D01*
X111635413Y-60544192D01*
X110679605Y-61500000D01*
X110320395Y-61500000D01*
X109364587Y-60544192D01*
X109100186Y-60639956D01*
X108959296Y-60929571D01*
X108877616Y-61241108D01*
X108858282Y-61562595D01*
X107635000Y-61562595D01*
X107635000Y-61338967D01*
X107572168Y-61023088D01*
X107448918Y-60725537D01*
X107269987Y-60457748D01*
X107176826Y-60364587D01*
X109544192Y-60364587D01*
X110500000Y-61320395D01*
X111455808Y-60364587D01*
X111360044Y-60100186D01*
X111070429Y-59959296D01*
X110758892Y-59877616D01*
X110437405Y-59858282D01*
X110118325Y-59902039D01*
X109813912Y-60007205D01*
X109639956Y-60100186D01*
X109544192Y-60364587D01*
X107176826Y-60364587D01*
X107042252Y-60230013D01*
X106774463Y-60051082D01*
X106476912Y-59927832D01*
X106161033Y-59865000D01*
X105838967Y-59865000D01*
X105523088Y-59927832D01*
X105225537Y-60051082D01*
X104957748Y-60230013D01*
X104730013Y-60457748D01*
X104551082Y-60725537D01*
X104427832Y-61023088D01*
X104365000Y-61338967D01*
X100660000Y-61338967D01*
X100660000Y-54838967D01*
X104365000Y-54838967D01*
X104365000Y-55161033D01*
X104427832Y-55476912D01*
X104551082Y-55774463D01*
X104730013Y-56042252D01*
X104957748Y-56269987D01*
X105225537Y-56448918D01*
X105523088Y-56572168D01*
X105838967Y-56635000D01*
X106161033Y-56635000D01*
X106476912Y-56572168D01*
X106774463Y-56448918D01*
X107042252Y-56269987D01*
X107176826Y-56135413D01*
X109544192Y-56135413D01*
X109639956Y-56399814D01*
X109929571Y-56540704D01*
X110241108Y-56622384D01*
X110562595Y-56641718D01*
X110881675Y-56597961D01*
X111186088Y-56492795D01*
X111360044Y-56399814D01*
X111455808Y-56135413D01*
X110500000Y-55179605D01*
X109544192Y-56135413D01*
X107176826Y-56135413D01*
X107269987Y-56042252D01*
X107448918Y-55774463D01*
X107572168Y-55476912D01*
X107635000Y-55161033D01*
X107635000Y-55062595D01*
X108858282Y-55062595D01*
X108902039Y-55381675D01*
X109007205Y-55686088D01*
X109100186Y-55860044D01*
X109364587Y-55955808D01*
X110320395Y-55000000D01*
X110679605Y-55000000D01*
X111635413Y-55955808D01*
X111899814Y-55860044D01*
X112040704Y-55570429D01*
X112122384Y-55258892D01*
X112141718Y-54937405D01*
X112097961Y-54618325D01*
X111992795Y-54313912D01*
X111899814Y-54139956D01*
X111635413Y-54044192D01*
X110679605Y-55000000D01*
X110320395Y-55000000D01*
X109364587Y-54044192D01*
X109100186Y-54139956D01*
X108959296Y-54429571D01*
X108877616Y-54741108D01*
X108858282Y-55062595D01*
X107635000Y-55062595D01*
X107635000Y-54838967D01*
X107572168Y-54523088D01*
X107448918Y-54225537D01*
X107269987Y-53957748D01*
X107176826Y-53864587D01*
X109544192Y-53864587D01*
X110500000Y-54820395D01*
X111455808Y-53864587D01*
X111360044Y-53600186D01*
X111070429Y-53459296D01*
X110758892Y-53377616D01*
X110437405Y-53358282D01*
X110118325Y-53402039D01*
X109813912Y-53507205D01*
X109639956Y-53600186D01*
X109544192Y-53864587D01*
X107176826Y-53864587D01*
X107042252Y-53730013D01*
X106774463Y-53551082D01*
X106476912Y-53427832D01*
X106161033Y-53365000D01*
X105838967Y-53365000D01*
X105523088Y-53427832D01*
X105225537Y-53551082D01*
X104957748Y-53730013D01*
X104730013Y-53957748D01*
X104551082Y-54225537D01*
X104427832Y-54523088D01*
X104365000Y-54838967D01*
X100660000Y-54838967D01*
X100660000Y-50660000D01*
X139340000Y-50660000D01*
X139340001Y-114340000D01*
X139340001Y-114340000D01*
G37*
X139340001Y-114340000D02*
X100660000Y-114340000D01*
X100660000Y-83500000D01*
X101236324Y-83500000D01*
X101240001Y-83537333D01*
X101240000Y-110062678D01*
X101236324Y-110100000D01*
X101240000Y-110137322D01*
X101240000Y-110137332D01*
X101250997Y-110248985D01*
X101269006Y-110308353D01*
X101294454Y-110392246D01*
X101365026Y-110524276D01*
X101404871Y-110572826D01*
X101459999Y-110640001D01*
X101489002Y-110663803D01*
X102336201Y-111511003D01*
X102359999Y-111540001D01*
X102475724Y-111634974D01*
X102511928Y-111654326D01*
X102511928Y-111850000D01*
X102524188Y-111974482D01*
X102560498Y-112094180D01*
X102619463Y-112204494D01*
X102698815Y-112301185D01*
X102795506Y-112380537D01*
X102905820Y-112439502D01*
X103025518Y-112475812D01*
X103150000Y-112488072D01*
X104850000Y-112488072D01*
X104974482Y-112475812D01*
X105094180Y-112439502D01*
X105204494Y-112380537D01*
X105301185Y-112301185D01*
X105380537Y-112204494D01*
X105439502Y-112094180D01*
X105475812Y-111974482D01*
X105488072Y-111850000D01*
X105488072Y-111654326D01*
X105524276Y-111634974D01*
X105640001Y-111540001D01*
X105663804Y-111510997D01*
X107011003Y-110163799D01*
X107040001Y-110140001D01*
X107085139Y-110085000D01*
X107134974Y-110024277D01*
X107205546Y-109892247D01*
X107249003Y-109748986D01*
X107260000Y-109637333D01*
X107260000Y-109637323D01*
X107263676Y-109600000D01*
X107260000Y-109562678D01*
X107260000Y-105814801D01*
X107489801Y-105585000D01*
X107606863Y-105585000D01*
X107816483Y-105543304D01*
X108013940Y-105461515D01*
X108191647Y-105342775D01*
X108342775Y-105191647D01*
X108461515Y-105013940D01*
X108543304Y-104816483D01*
X108585000Y-104606863D01*
X108585000Y-104393137D01*
X108543304Y-104183517D01*
X108461515Y-103986060D01*
X108342775Y-103808353D01*
X108191647Y-103657225D01*
X108013940Y-103538485D01*
X107816483Y-103456696D01*
X107606863Y-103415000D01*
X107393137Y-103415000D01*
X107183517Y-103456696D01*
X106986060Y-103538485D01*
X106808353Y-103657225D01*
X106657225Y-103808353D01*
X106538485Y-103986060D01*
X106456696Y-104183517D01*
X106415000Y-104393137D01*
X106415000Y-104510199D01*
X105989002Y-104936196D01*
X105959999Y-104959999D01*
X105915731Y-105013940D01*
X105865026Y-105075724D01*
X105803063Y-105191647D01*
X105794454Y-105207754D01*
X105750997Y-105351015D01*
X105740000Y-105462668D01*
X105740000Y-105462678D01*
X105736324Y-105500000D01*
X105740000Y-105537323D01*
X105740001Y-109285197D01*
X105312543Y-109712655D01*
X105301185Y-109698815D01*
X105204494Y-109619463D01*
X105094180Y-109560498D01*
X105025313Y-109539607D01*
X105055134Y-109515134D01*
X105240706Y-109289014D01*
X105378599Y-109031034D01*
X105463513Y-108751111D01*
X105492185Y-108460000D01*
X105463513Y-108168889D01*
X105378599Y-107888966D01*
X105240706Y-107630986D01*
X105055134Y-107404866D01*
X104829014Y-107219294D01*
X104774209Y-107190000D01*
X104829014Y-107160706D01*
X105055134Y-106975134D01*
X105240706Y-106749014D01*
X105378599Y-106491034D01*
X105463513Y-106211111D01*
X105492185Y-105920000D01*
X105463513Y-105628889D01*
X105378599Y-105348966D01*
X105240706Y-105090986D01*
X105055134Y-104864866D01*
X104829014Y-104679294D01*
X104764477Y-104644799D01*
X104881355Y-104575178D01*
X105097588Y-104380269D01*
X105271641Y-104146920D01*
X105396825Y-103884099D01*
X105441476Y-103736890D01*
X105320155Y-103507000D01*
X104127000Y-103507000D01*
X104127000Y-103527000D01*
X103873000Y-103527000D01*
X103873000Y-103507000D01*
X103853000Y-103507000D01*
X103853000Y-103253000D01*
X103873000Y-103253000D01*
X103873000Y-102059186D01*
X104127000Y-102059186D01*
X104127000Y-103253000D01*
X105320155Y-103253000D01*
X105441476Y-103023110D01*
X105396825Y-102875901D01*
X105271641Y-102613080D01*
X105097588Y-102379731D01*
X104881355Y-102184822D01*
X104631252Y-102035843D01*
X104356891Y-101938519D01*
X104127000Y-102059186D01*
X103873000Y-102059186D01*
X103643109Y-101938519D01*
X103368748Y-102035843D01*
X103118645Y-102184822D01*
X102902412Y-102379731D01*
X102760000Y-102570660D01*
X102760000Y-88309340D01*
X102902412Y-88500269D01*
X103118645Y-88695178D01*
X103368748Y-88844157D01*
X103643109Y-88941481D01*
X103873000Y-88820814D01*
X103873000Y-87627000D01*
X103853000Y-87627000D01*
X103853000Y-87373000D01*
X103873000Y-87373000D01*
X103873000Y-87353000D01*
X104127000Y-87353000D01*
X104127000Y-87373000D01*
X104147000Y-87373000D01*
X104147000Y-87627000D01*
X104127000Y-87627000D01*
X104127000Y-88820814D01*
X104356891Y-88941481D01*
X104631252Y-88844157D01*
X104881355Y-88695178D01*
X105097588Y-88500269D01*
X105240001Y-88309339D01*
X105240000Y-94462678D01*
X105236324Y-94500000D01*
X105240000Y-94537322D01*
X105240000Y-94537332D01*
X105250997Y-94648985D01*
X105277491Y-94736324D01*
X105294454Y-94792246D01*
X105365026Y-94924276D01*
X105404871Y-94972826D01*
X105459999Y-95040001D01*
X105489003Y-95063804D01*
X121415000Y-110989802D01*
X121415000Y-111106863D01*
X121456696Y-111316483D01*
X121538485Y-111513940D01*
X121657225Y-111691647D01*
X121808353Y-111842775D01*
X121986060Y-111961515D01*
X122183517Y-112043304D01*
X122393137Y-112085000D01*
X122606863Y-112085000D01*
X122816483Y-112043304D01*
X123013940Y-111961515D01*
X123191647Y-111842775D01*
X123274422Y-111760000D01*
X125462678Y-111760000D01*
X125500000Y-111763676D01*
X125537322Y-111760000D01*
X125537333Y-111760000D01*
X125648986Y-111749003D01*
X125792247Y-111705546D01*
X125924276Y-111634974D01*
X126040001Y-111540001D01*
X126063804Y-111510998D01*
X127011246Y-110563556D01*
X127040485Y-110539516D01*
X127087214Y-110482471D01*
X127134974Y-110424276D01*
X127135139Y-110423968D01*
X127135354Y-110423705D01*
X127170094Y-110358571D01*
X127205546Y-110292247D01*
X127205646Y-110291916D01*
X127205808Y-110291613D01*
X127227246Y-110220710D01*
X127249003Y-110148986D01*
X127249037Y-110148640D01*
X127249136Y-110148313D01*
X127256336Y-110074530D01*
X127263677Y-110000000D01*
X127259966Y-109962325D01*
X127252269Y-101390589D01*
X131965000Y-101390589D01*
X131965000Y-101663411D01*
X132018225Y-101930989D01*
X132122629Y-102183043D01*
X132274201Y-102409886D01*
X132467114Y-102602799D01*
X132693957Y-102754371D01*
X132946011Y-102858775D01*
X133213589Y-102912000D01*
X133486411Y-102912000D01*
X133753989Y-102858775D01*
X134006043Y-102754371D01*
X134232886Y-102602799D01*
X134425799Y-102409886D01*
X134577371Y-102183043D01*
X134681775Y-101930989D01*
X134735000Y-101663411D01*
X134735000Y-101390589D01*
X134681775Y-101123011D01*
X134577371Y-100870957D01*
X134425799Y-100644114D01*
X134232886Y-100451201D01*
X134006043Y-100299629D01*
X133753989Y-100195225D01*
X133486411Y-100142000D01*
X133213589Y-100142000D01*
X132946011Y-100195225D01*
X132693957Y-100299629D01*
X132467114Y-100451201D01*
X132274201Y-100644114D01*
X132122629Y-100870957D01*
X132018225Y-101123011D01*
X131965000Y-101390589D01*
X127252269Y-101390589D01*
X127252234Y-101352476D01*
X129879799Y-97974448D01*
X129920974Y-97924276D01*
X129943353Y-97882409D01*
X129968682Y-97842268D01*
X129978555Y-97816551D01*
X129991546Y-97792247D01*
X130005327Y-97746817D01*
X130022338Y-97702507D01*
X130027005Y-97675352D01*
X130035003Y-97648986D01*
X130039656Y-97601742D01*
X130047696Y-97554963D01*
X130046000Y-97490098D01*
X130046000Y-96510589D01*
X131965000Y-96510589D01*
X131965000Y-96783411D01*
X132018225Y-97050989D01*
X132122629Y-97303043D01*
X132274201Y-97529886D01*
X132467114Y-97722799D01*
X132693957Y-97874371D01*
X132946011Y-97978775D01*
X133213589Y-98032000D01*
X133486411Y-98032000D01*
X133753989Y-97978775D01*
X134006043Y-97874371D01*
X134232886Y-97722799D01*
X134425799Y-97529886D01*
X134577371Y-97303043D01*
X134681775Y-97050989D01*
X134735000Y-96783411D01*
X134735000Y-96510589D01*
X134681775Y-96243011D01*
X134577371Y-95990957D01*
X134425799Y-95764114D01*
X134232886Y-95571201D01*
X134006043Y-95419629D01*
X133753989Y-95315225D01*
X133486411Y-95262000D01*
X133213589Y-95262000D01*
X132946011Y-95315225D01*
X132693957Y-95419629D01*
X132467114Y-95571201D01*
X132274201Y-95764114D01*
X132122629Y-95990957D01*
X132018225Y-96243011D01*
X131965000Y-96510589D01*
X130046000Y-96510589D01*
X130046000Y-84303574D01*
X130204178Y-84065643D01*
X130316483Y-84043304D01*
X130513940Y-83961515D01*
X130691647Y-83842775D01*
X130842775Y-83691647D01*
X130961515Y-83513940D01*
X131043304Y-83316483D01*
X131085000Y-83106863D01*
X131085000Y-82893137D01*
X131043304Y-82683517D01*
X130961515Y-82486060D01*
X130842775Y-82308353D01*
X130691647Y-82157225D01*
X130513940Y-82038485D01*
X130316483Y-81956696D01*
X130106863Y-81915000D01*
X129893137Y-81915000D01*
X129683517Y-81956696D01*
X129486060Y-82038485D01*
X129308353Y-82157225D01*
X129157225Y-82308353D01*
X129038485Y-82486060D01*
X128956696Y-82683517D01*
X128915000Y-82893137D01*
X128915000Y-83106863D01*
X128938337Y-83224187D01*
X128674255Y-83621420D01*
X128651027Y-83649724D01*
X128632926Y-83683587D01*
X128632430Y-83684334D01*
X128615252Y-83716653D01*
X128580455Y-83781753D01*
X128580194Y-83782612D01*
X128579774Y-83783403D01*
X128558429Y-83854364D01*
X128536998Y-83925014D01*
X128536911Y-83925902D01*
X128536651Y-83926765D01*
X128529554Y-84000598D01*
X128526001Y-84036667D01*
X128526001Y-84037554D01*
X128522326Y-84075784D01*
X128526001Y-84112223D01*
X128526000Y-97239222D01*
X125897977Y-100617840D01*
X125856646Y-100668295D01*
X125834468Y-100709876D01*
X125809318Y-100749733D01*
X125799323Y-100775769D01*
X125786192Y-100800387D01*
X125772550Y-100845505D01*
X125755662Y-100889495D01*
X125750937Y-100916987D01*
X125742864Y-100943687D01*
X125738287Y-100990592D01*
X125730304Y-101037038D01*
X125732009Y-101102251D01*
X125739717Y-109685481D01*
X125185199Y-110240000D01*
X123274422Y-110240000D01*
X123191647Y-110157225D01*
X123013940Y-110038485D01*
X122816483Y-109956696D01*
X122606863Y-109915000D01*
X122489802Y-109915000D01*
X120811957Y-108237156D01*
X120851014Y-108249003D01*
X120962667Y-108260000D01*
X120962677Y-108260000D01*
X121000000Y-108263676D01*
X121037323Y-108260000D01*
X121225578Y-108260000D01*
X121308353Y-108342775D01*
X121486060Y-108461515D01*
X121683517Y-108543304D01*
X121893137Y-108585000D01*
X122106863Y-108585000D01*
X122316483Y-108543304D01*
X122513940Y-108461515D01*
X122691647Y-108342775D01*
X122842775Y-108191647D01*
X122961515Y-108013940D01*
X123043304Y-107816483D01*
X123074181Y-107661254D01*
X123240001Y-107821893D01*
X123240001Y-108225577D01*
X123157225Y-108308353D01*
X123038485Y-108486060D01*
X122956696Y-108683517D01*
X122915000Y-108893137D01*
X122915000Y-109106863D01*
X122956696Y-109316483D01*
X123038485Y-109513940D01*
X123157225Y-109691647D01*
X123308353Y-109842775D01*
X123486060Y-109961515D01*
X123683517Y-110043304D01*
X123893137Y-110085000D01*
X124106863Y-110085000D01*
X124316483Y-110043304D01*
X124513940Y-109961515D01*
X124691647Y-109842775D01*
X124842775Y-109691647D01*
X124961515Y-109513940D01*
X125043304Y-109316483D01*
X125085000Y-109106863D01*
X125085000Y-108893137D01*
X125043304Y-108683517D01*
X124961515Y-108486060D01*
X124842775Y-108308353D01*
X124760000Y-108225578D01*
X124760000Y-107531276D01*
X124763580Y-107487879D01*
X124755754Y-107419560D01*
X124749003Y-107351014D01*
X124747235Y-107345185D01*
X124746543Y-107339145D01*
X124725541Y-107273669D01*
X124705546Y-107207753D01*
X124702675Y-107202382D01*
X124700818Y-107196592D01*
X124667425Y-107136435D01*
X124634974Y-107075724D01*
X124631114Y-107071020D01*
X124628160Y-107065699D01*
X124583651Y-107013186D01*
X124540001Y-106959999D01*
X124506335Y-106932370D01*
X109630388Y-92521297D01*
X109683517Y-92543304D01*
X109893137Y-92585000D01*
X110106863Y-92585000D01*
X110316483Y-92543304D01*
X110513940Y-92461515D01*
X110691647Y-92342775D01*
X110842775Y-92191647D01*
X110961515Y-92013940D01*
X111043304Y-91816483D01*
X111085000Y-91606863D01*
X111085000Y-91393137D01*
X111043304Y-91183517D01*
X111027284Y-91144842D01*
X111175133Y-90849144D01*
X111205546Y-90792247D01*
X111219447Y-90746420D01*
X111236557Y-90701708D01*
X111241125Y-90674957D01*
X111249003Y-90648986D01*
X111253696Y-90601339D01*
X111261756Y-90554137D01*
X111260000Y-90489665D01*
X111260000Y-88416594D01*
X112897984Y-90464073D01*
X112934389Y-90513113D01*
X112972389Y-90547523D01*
X113008197Y-90584236D01*
X113027766Y-90597668D01*
X113045359Y-90613599D01*
X113089346Y-90639936D01*
X113131626Y-90668957D01*
X113153443Y-90678314D01*
X113173803Y-90690505D01*
X113222086Y-90707756D01*
X113269211Y-90727968D01*
X113328985Y-90740635D01*
X114561805Y-91048840D01*
X114657225Y-91191647D01*
X114808353Y-91342775D01*
X114986060Y-91461515D01*
X115183517Y-91543304D01*
X115393137Y-91585000D01*
X115606863Y-91585000D01*
X115816483Y-91543304D01*
X116013940Y-91461515D01*
X116191647Y-91342775D01*
X116342775Y-91191647D01*
X116461515Y-91013940D01*
X116543304Y-90816483D01*
X116585000Y-90606863D01*
X116585000Y-90393137D01*
X116543304Y-90183517D01*
X116461515Y-89986060D01*
X116342775Y-89808353D01*
X116294422Y-89760000D01*
X116445461Y-89760000D01*
X116456696Y-89816483D01*
X116538485Y-90013940D01*
X116657225Y-90191647D01*
X116808353Y-90342775D01*
X116986060Y-90461515D01*
X117183517Y-90543304D01*
X117393137Y-90585000D01*
X117606863Y-90585000D01*
X117816483Y-90543304D01*
X118013940Y-90461515D01*
X118191647Y-90342775D01*
X118342775Y-90191647D01*
X118461515Y-90013940D01*
X118543304Y-89816483D01*
X118585000Y-89606863D01*
X118585000Y-89393137D01*
X118543304Y-89183517D01*
X118461515Y-88986060D01*
X118342775Y-88808353D01*
X118191647Y-88657225D01*
X118013940Y-88538485D01*
X117816483Y-88456696D01*
X117606863Y-88415000D01*
X117485170Y-88415000D01*
X117424276Y-88365026D01*
X117292247Y-88294454D01*
X117148986Y-88250997D01*
X117037333Y-88240000D01*
X117037322Y-88240000D01*
X117000000Y-88236324D01*
X116962678Y-88240000D01*
X115314801Y-88240000D01*
X115260000Y-88185199D01*
X115260000Y-85500000D01*
X115861928Y-85500000D01*
X115861928Y-87500000D01*
X115874188Y-87624482D01*
X115910498Y-87744180D01*
X115969463Y-87854494D01*
X116048815Y-87951185D01*
X116145506Y-88030537D01*
X116255820Y-88089502D01*
X116375518Y-88125812D01*
X116500000Y-88138072D01*
X118500000Y-88138072D01*
X118624482Y-88125812D01*
X118744180Y-88089502D01*
X118854494Y-88030537D01*
X118951185Y-87951185D01*
X119030537Y-87854494D01*
X119085976Y-87750777D01*
X119139956Y-87899814D01*
X119429571Y-88040704D01*
X119741108Y-88122384D01*
X120062595Y-88141718D01*
X120381675Y-88097961D01*
X120686088Y-87992795D01*
X120860044Y-87899814D01*
X120955808Y-87635413D01*
X120000000Y-86679605D01*
X119985858Y-86693748D01*
X119806253Y-86514143D01*
X119820395Y-86500000D01*
X120179605Y-86500000D01*
X121135413Y-87455808D01*
X121165075Y-87445065D01*
X121230013Y-87542252D01*
X121457748Y-87769987D01*
X121725537Y-87948918D01*
X122023088Y-88072168D01*
X122338967Y-88135000D01*
X122661033Y-88135000D01*
X122976912Y-88072168D01*
X123274463Y-87948918D01*
X123542252Y-87769987D01*
X123769987Y-87542252D01*
X123948918Y-87274463D01*
X124072168Y-86976912D01*
X124135000Y-86661033D01*
X124135000Y-86338967D01*
X124072168Y-86023088D01*
X123948918Y-85725537D01*
X123769987Y-85457748D01*
X123542252Y-85230013D01*
X123274463Y-85051082D01*
X122976912Y-84927832D01*
X122661033Y-84865000D01*
X122338967Y-84865000D01*
X122023088Y-84927832D01*
X121725537Y-85051082D01*
X121457748Y-85230013D01*
X121230013Y-85457748D01*
X121165075Y-85554935D01*
X121135413Y-85544192D01*
X120179605Y-86500000D01*
X119820395Y-86500000D01*
X119806253Y-86485858D01*
X119985858Y-86306253D01*
X120000000Y-86320395D01*
X120955808Y-85364587D01*
X120860044Y-85100186D01*
X120570429Y-84959296D01*
X120258892Y-84877616D01*
X119937405Y-84858282D01*
X119618325Y-84902039D01*
X119313912Y-85007205D01*
X119139956Y-85100186D01*
X119085976Y-85249223D01*
X119030537Y-85145506D01*
X118951185Y-85048815D01*
X118854494Y-84969463D01*
X118744180Y-84910498D01*
X118624482Y-84874188D01*
X118500000Y-84861928D01*
X116500000Y-84861928D01*
X116375518Y-84874188D01*
X116255820Y-84910498D01*
X116145506Y-84969463D01*
X116048815Y-85048815D01*
X115969463Y-85145506D01*
X115910498Y-85255820D01*
X115874188Y-85375518D01*
X115861928Y-85500000D01*
X115260000Y-85500000D01*
X115260000Y-85314801D01*
X118011004Y-82563798D01*
X118040001Y-82540001D01*
X118134974Y-82424276D01*
X118205546Y-82292247D01*
X118249003Y-82148986D01*
X118260000Y-82037333D01*
X118260000Y-82037325D01*
X118263676Y-82000000D01*
X118260000Y-81962675D01*
X118260000Y-77037325D01*
X118263676Y-77000000D01*
X118260000Y-76962675D01*
X118260000Y-76962667D01*
X118249003Y-76851014D01*
X118205546Y-76707753D01*
X118134974Y-76575724D01*
X118040001Y-76459999D01*
X118011003Y-76436201D01*
X115260000Y-73685199D01*
X115260000Y-73135413D01*
X116544192Y-73135413D01*
X116639956Y-73399814D01*
X116929571Y-73540704D01*
X117241108Y-73622384D01*
X117562595Y-73641718D01*
X117881675Y-73597961D01*
X118186088Y-73492795D01*
X118360044Y-73399814D01*
X118455808Y-73135413D01*
X117500000Y-72179605D01*
X116544192Y-73135413D01*
X115260000Y-73135413D01*
X115260000Y-72062595D01*
X115858282Y-72062595D01*
X115902039Y-72381675D01*
X116007205Y-72686088D01*
X116100186Y-72860044D01*
X116364587Y-72955808D01*
X117320395Y-72000000D01*
X117679605Y-72000000D01*
X118635413Y-72955808D01*
X118899814Y-72860044D01*
X119040704Y-72570429D01*
X119122384Y-72258892D01*
X119141718Y-71937405D01*
X119128219Y-71838967D01*
X120865000Y-71838967D01*
X120865000Y-72161033D01*
X120927832Y-72476912D01*
X121051082Y-72774463D01*
X121230013Y-73042252D01*
X121457748Y-73269987D01*
X121725537Y-73448918D01*
X122023088Y-73572168D01*
X122338967Y-73635000D01*
X122661033Y-73635000D01*
X122976912Y-73572168D01*
X123274463Y-73448918D01*
X123542252Y-73269987D01*
X123769987Y-73042252D01*
X123948918Y-72774463D01*
X124072168Y-72476912D01*
X124135000Y-72161033D01*
X124135000Y-71838967D01*
X124072168Y-71523088D01*
X123948918Y-71225537D01*
X123769987Y-70957748D01*
X123542252Y-70730013D01*
X123274463Y-70551082D01*
X122976912Y-70427832D01*
X122661033Y-70365000D01*
X122338967Y-70365000D01*
X122023088Y-70427832D01*
X121725537Y-70551082D01*
X121457748Y-70730013D01*
X121230013Y-70957748D01*
X121051082Y-71225537D01*
X120927832Y-71523088D01*
X120865000Y-71838967D01*
X119128219Y-71838967D01*
X119097961Y-71618325D01*
X118992795Y-71313912D01*
X118899814Y-71139956D01*
X118635413Y-71044192D01*
X117679605Y-72000000D01*
X117320395Y-72000000D01*
X116364587Y-71044192D01*
X116100186Y-71139956D01*
X115959296Y-71429571D01*
X115877616Y-71741108D01*
X115858282Y-72062595D01*
X115260000Y-72062595D01*
X115260000Y-70864587D01*
X116544192Y-70864587D01*
X117500000Y-71820395D01*
X118455808Y-70864587D01*
X118360044Y-70600186D01*
X118070429Y-70459296D01*
X117758892Y-70377616D01*
X117437405Y-70358282D01*
X117118325Y-70402039D01*
X116813912Y-70507205D01*
X116639956Y-70600186D01*
X116544192Y-70864587D01*
X115260000Y-70864587D01*
X115260000Y-70314801D01*
X118011004Y-67563798D01*
X118040001Y-67540001D01*
X118134974Y-67424276D01*
X118205546Y-67292247D01*
X118249003Y-67148986D01*
X118260000Y-67037333D01*
X118260000Y-67037325D01*
X118263676Y-67000000D01*
X118260000Y-66962675D01*
X118260000Y-62774422D01*
X118342775Y-62691647D01*
X118461515Y-62513940D01*
X118543304Y-62316483D01*
X118585000Y-62106863D01*
X118585000Y-61893137D01*
X118543304Y-61683517D01*
X118461515Y-61486060D01*
X118342775Y-61308353D01*
X118191647Y-61157225D01*
X118013940Y-61038485D01*
X117816483Y-60956696D01*
X117606863Y-60915000D01*
X117393137Y-60915000D01*
X117183517Y-60956696D01*
X116986060Y-61038485D01*
X116808353Y-61157225D01*
X116657225Y-61308353D01*
X116538485Y-61486060D01*
X116456696Y-61683517D01*
X116415000Y-61893137D01*
X116415000Y-62106863D01*
X116456696Y-62316483D01*
X116538485Y-62513940D01*
X116657225Y-62691647D01*
X116740001Y-62774423D01*
X116740000Y-66685198D01*
X113988998Y-69436201D01*
X113960000Y-69459999D01*
X113936202Y-69488997D01*
X113936201Y-69488998D01*
X113865026Y-69575724D01*
X113794454Y-69707754D01*
X113768825Y-69792246D01*
X113750999Y-69851013D01*
X113750998Y-69851015D01*
X113736324Y-70000000D01*
X113740001Y-70037332D01*
X113740000Y-73962677D01*
X113736324Y-74000000D01*
X113740000Y-74037322D01*
X113740000Y-74037332D01*
X113750997Y-74148985D01*
X113784672Y-74259999D01*
X113794454Y-74292246D01*
X113865026Y-74424276D01*
X113904871Y-74472826D01*
X113959999Y-74540001D01*
X113989003Y-74563804D01*
X116740001Y-77314803D01*
X116740000Y-81685198D01*
X113988998Y-84436201D01*
X113960000Y-84459999D01*
X113936202Y-84488997D01*
X113936201Y-84488998D01*
X113865026Y-84575724D01*
X113794454Y-84707754D01*
X113781942Y-84749002D01*
X113750998Y-84851014D01*
X113749618Y-84865026D01*
X113736324Y-85000000D01*
X113740001Y-85037332D01*
X113740000Y-88462677D01*
X113736324Y-88500000D01*
X113740000Y-88537322D01*
X113740000Y-88537332D01*
X113750997Y-88648985D01*
X113794454Y-88792246D01*
X113865026Y-88924276D01*
X113879146Y-88941481D01*
X113959999Y-89040001D01*
X113989003Y-89063804D01*
X114355747Y-89430548D01*
X113933204Y-89324912D01*
X112260000Y-87233407D01*
X112260000Y-77400000D01*
X112761928Y-77400000D01*
X112761928Y-80600000D01*
X112774188Y-80724482D01*
X112810498Y-80844180D01*
X112869463Y-80954494D01*
X112948815Y-81051185D01*
X113045506Y-81130537D01*
X113155820Y-81189502D01*
X113275518Y-81225812D01*
X113400000Y-81238072D01*
X115400000Y-81238072D01*
X115524482Y-81225812D01*
X115644180Y-81189502D01*
X115754494Y-81130537D01*
X115851185Y-81051185D01*
X115930537Y-80954494D01*
X115989502Y-80844180D01*
X116025812Y-80724482D01*
X116038072Y-80600000D01*
X116038072Y-77400000D01*
X116025812Y-77275518D01*
X115989502Y-77155820D01*
X115930537Y-77045506D01*
X115851185Y-76948815D01*
X115754494Y-76869463D01*
X115644180Y-76810498D01*
X115524482Y-76774188D01*
X115400000Y-76761928D01*
X113400000Y-76761928D01*
X113275518Y-76774188D01*
X113155820Y-76810498D01*
X113045506Y-76869463D01*
X112948815Y-76948815D01*
X112869463Y-77045506D01*
X112810498Y-77155820D01*
X112774188Y-77275518D01*
X112761928Y-77400000D01*
X112260000Y-77400000D01*
X112260000Y-69814801D01*
X113489802Y-68585000D01*
X113606863Y-68585000D01*
X113816483Y-68543304D01*
X114013940Y-68461515D01*
X114191647Y-68342775D01*
X114342775Y-68191647D01*
X114461515Y-68013940D01*
X114543304Y-67816483D01*
X114585000Y-67606863D01*
X114585000Y-67393137D01*
X114543304Y-67183517D01*
X114461515Y-66986060D01*
X114342775Y-66808353D01*
X114191647Y-66657225D01*
X114013940Y-66538485D01*
X113816483Y-66456696D01*
X113606863Y-66415000D01*
X113393137Y-66415000D01*
X113183517Y-66456696D01*
X112986060Y-66538485D01*
X112808353Y-66657225D01*
X112657225Y-66808353D01*
X112538485Y-66986060D01*
X112456696Y-67183517D01*
X112415000Y-67393137D01*
X112415000Y-67510198D01*
X111260000Y-68665199D01*
X111260000Y-67793820D01*
X116025035Y-62552283D01*
X116040001Y-62540001D01*
X116075277Y-62497017D01*
X116087467Y-62483608D01*
X116098965Y-62468153D01*
X116134974Y-62424276D01*
X116143563Y-62408208D01*
X116154435Y-62393594D01*
X116178779Y-62342323D01*
X116205546Y-62292247D01*
X116210835Y-62274813D01*
X116218648Y-62258357D01*
X116232524Y-62203312D01*
X116249003Y-62148986D01*
X116250789Y-62130853D01*
X116255241Y-62113192D01*
X116258111Y-62056510D01*
X116260000Y-62037333D01*
X116260000Y-62019209D01*
X116262812Y-61963676D01*
X116260000Y-61944521D01*
X116260000Y-57893137D01*
X116415000Y-57893137D01*
X116415000Y-58106863D01*
X116456696Y-58316483D01*
X116538485Y-58513940D01*
X116657225Y-58691647D01*
X116740001Y-58774423D01*
X116740001Y-58962668D01*
X116736324Y-59000000D01*
X116750998Y-59148985D01*
X116794454Y-59292246D01*
X116865026Y-59424276D01*
X116936201Y-59511002D01*
X116960000Y-59540001D01*
X116988998Y-59563799D01*
X120240000Y-62814803D01*
X120240001Y-65962668D01*
X120236324Y-66000000D01*
X120250998Y-66148985D01*
X120294454Y-66292246D01*
X120365026Y-66424276D01*
X120436201Y-66511002D01*
X120460000Y-66540001D01*
X120488998Y-66563799D01*
X124240000Y-70314802D01*
X124240001Y-74185197D01*
X121989003Y-76436196D01*
X121959999Y-76459999D01*
X121904871Y-76527174D01*
X121865026Y-76575724D01*
X121794455Y-76707753D01*
X121794454Y-76707754D01*
X121750997Y-76851015D01*
X121740000Y-76962668D01*
X121740000Y-76962678D01*
X121736324Y-77000000D01*
X121740000Y-77037323D01*
X121740001Y-81462667D01*
X121736324Y-81500000D01*
X121740001Y-81537333D01*
X121750998Y-81648986D01*
X121754795Y-81661502D01*
X121794454Y-81792246D01*
X121865026Y-81924276D01*
X121936201Y-82011002D01*
X121960000Y-82040001D01*
X121988998Y-82063799D01*
X124240000Y-84314802D01*
X124240001Y-95462668D01*
X124236324Y-95500000D01*
X124250998Y-95648985D01*
X124294454Y-95792246D01*
X124365026Y-95924276D01*
X124436201Y-96011002D01*
X124460000Y-96040001D01*
X124488998Y-96063799D01*
X125415000Y-96989802D01*
X125415000Y-97106863D01*
X125456696Y-97316483D01*
X125538485Y-97513940D01*
X125657225Y-97691647D01*
X125808353Y-97842775D01*
X125986060Y-97961515D01*
X126183517Y-98043304D01*
X126393137Y-98085000D01*
X126606863Y-98085000D01*
X126816483Y-98043304D01*
X127013940Y-97961515D01*
X127191647Y-97842775D01*
X127342775Y-97691647D01*
X127461515Y-97513940D01*
X127543304Y-97316483D01*
X127585000Y-97106863D01*
X127585000Y-96893137D01*
X127543304Y-96683517D01*
X127461515Y-96486060D01*
X127342775Y-96308353D01*
X127191647Y-96157225D01*
X127013940Y-96038485D01*
X126816483Y-95956696D01*
X126606863Y-95915000D01*
X126489802Y-95915000D01*
X125760000Y-95185199D01*
X125760000Y-84037323D01*
X125763676Y-84000000D01*
X125760000Y-83962677D01*
X125760000Y-83962667D01*
X125749003Y-83851014D01*
X125705546Y-83707753D01*
X125693028Y-83684334D01*
X125634974Y-83575723D01*
X125563799Y-83488997D01*
X125540001Y-83459999D01*
X125511004Y-83436202D01*
X123260000Y-81185199D01*
X123260000Y-77400000D01*
X123961928Y-77400000D01*
X123961928Y-80600000D01*
X123974188Y-80724482D01*
X124010498Y-80844180D01*
X124069463Y-80954494D01*
X124148815Y-81051185D01*
X124245506Y-81130537D01*
X124355820Y-81189502D01*
X124475518Y-81225812D01*
X124600000Y-81238072D01*
X126600000Y-81238072D01*
X126724482Y-81225812D01*
X126844180Y-81189502D01*
X126954494Y-81130537D01*
X127051185Y-81051185D01*
X127130537Y-80954494D01*
X127189502Y-80844180D01*
X127225812Y-80724482D01*
X127238072Y-80600000D01*
X127238072Y-77400000D01*
X127225812Y-77275518D01*
X127189502Y-77155820D01*
X127130537Y-77045506D01*
X127051185Y-76948815D01*
X126954494Y-76869463D01*
X126844180Y-76810498D01*
X126724482Y-76774188D01*
X126600000Y-76761928D01*
X124600000Y-76761928D01*
X124475518Y-76774188D01*
X124355820Y-76810498D01*
X124245506Y-76869463D01*
X124148815Y-76948815D01*
X124069463Y-77045506D01*
X124010498Y-77155820D01*
X123974188Y-77275518D01*
X123961928Y-77400000D01*
X123260000Y-77400000D01*
X123260000Y-77314801D01*
X125511003Y-75063799D01*
X125540001Y-75040001D01*
X125566332Y-75007917D01*
X125634974Y-74924277D01*
X125705546Y-74792247D01*
X125714212Y-74763677D01*
X125749003Y-74648986D01*
X125760000Y-74537333D01*
X125760000Y-74537323D01*
X125763676Y-74500000D01*
X125760000Y-74462677D01*
X125760000Y-70037322D01*
X125763676Y-69999999D01*
X125760000Y-69962676D01*
X125760000Y-69962667D01*
X125749003Y-69851014D01*
X125705546Y-69707753D01*
X125634974Y-69575724D01*
X125540001Y-69459999D01*
X125511004Y-69436202D01*
X121760000Y-65685199D01*
X121760000Y-62537322D01*
X121763676Y-62499999D01*
X121760000Y-62462676D01*
X121760000Y-62462667D01*
X121749003Y-62351014D01*
X121705546Y-62207753D01*
X121634974Y-62075724D01*
X121621811Y-62059685D01*
X121563799Y-61988996D01*
X121563795Y-61988992D01*
X121540001Y-61959999D01*
X121511009Y-61936206D01*
X118304612Y-58729810D01*
X118342775Y-58691647D01*
X118461515Y-58513940D01*
X118543304Y-58316483D01*
X118585000Y-58106863D01*
X118585000Y-57893137D01*
X118543304Y-57683517D01*
X118461515Y-57486060D01*
X118342775Y-57308353D01*
X118191647Y-57157225D01*
X118013940Y-57038485D01*
X117816483Y-56956696D01*
X117606863Y-56915000D01*
X117393137Y-56915000D01*
X117183517Y-56956696D01*
X116986060Y-57038485D01*
X116808353Y-57157225D01*
X116657225Y-57308353D01*
X116538485Y-57486060D01*
X116456696Y-57683517D01*
X116415000Y-57893137D01*
X116260000Y-57893137D01*
X116260000Y-56314801D01*
X117489802Y-55085000D01*
X117606863Y-55085000D01*
X117816483Y-55043304D01*
X118013940Y-54961515D01*
X118191647Y-54842775D01*
X118342775Y-54691647D01*
X118461515Y-54513940D01*
X118543304Y-54316483D01*
X118585000Y-54106863D01*
X118585000Y-53893137D01*
X118543304Y-53683517D01*
X118461515Y-53486060D01*
X118342775Y-53308353D01*
X118191647Y-53157225D01*
X118013940Y-53038485D01*
X117816483Y-52956696D01*
X117606863Y-52915000D01*
X117393137Y-52915000D01*
X117183517Y-52956696D01*
X116986060Y-53038485D01*
X116808353Y-53157225D01*
X116657225Y-53308353D01*
X116538485Y-53486060D01*
X116456696Y-53683517D01*
X116415000Y-53893137D01*
X116415000Y-54010198D01*
X114988998Y-55436201D01*
X114960000Y-55459999D01*
X114936202Y-55488997D01*
X114936201Y-55488998D01*
X114865026Y-55575724D01*
X114794454Y-55707754D01*
X114750998Y-55851015D01*
X114736324Y-56000000D01*
X114740001Y-56037332D01*
X114740000Y-61706179D01*
X109974966Y-66947717D01*
X109960000Y-66959999D01*
X109924724Y-67002982D01*
X109912533Y-67016393D01*
X109901031Y-67031853D01*
X109865027Y-67075724D01*
X109856441Y-67091787D01*
X109845564Y-67106407D01*
X109821212Y-67157696D01*
X109794455Y-67207753D01*
X109789168Y-67225184D01*
X109781352Y-67241644D01*
X109767473Y-67296701D01*
X109750998Y-67351014D01*
X109749212Y-67369143D01*
X109744759Y-67386810D01*
X109741888Y-67443509D01*
X109740001Y-67462667D01*
X109740001Y-67480772D01*
X109737188Y-67536324D01*
X109740001Y-67555486D01*
X109740000Y-90320591D01*
X109668925Y-90462740D01*
X109486060Y-90538485D01*
X109308353Y-90657225D01*
X109157225Y-90808353D01*
X109038485Y-90986060D01*
X108956696Y-91183517D01*
X108915000Y-91393137D01*
X108915000Y-91606863D01*
X108956696Y-91816483D01*
X108992792Y-91903626D01*
X108760000Y-91678109D01*
X108760000Y-77737322D01*
X108763676Y-77699999D01*
X108760000Y-77662676D01*
X108760000Y-77662667D01*
X108749003Y-77551014D01*
X108705546Y-77407753D01*
X108634974Y-77275724D01*
X108540001Y-77159999D01*
X108511003Y-77136201D01*
X105663804Y-74289003D01*
X105640001Y-74259999D01*
X105524276Y-74165026D01*
X105488072Y-74145674D01*
X105488072Y-73950000D01*
X105475812Y-73825518D01*
X105439502Y-73705820D01*
X105380537Y-73595506D01*
X105301185Y-73498815D01*
X105204494Y-73419463D01*
X105094180Y-73360498D01*
X104974482Y-73324188D01*
X104850000Y-73311928D01*
X103150000Y-73311928D01*
X103025518Y-73324188D01*
X102905820Y-73360498D01*
X102795506Y-73419463D01*
X102698815Y-73498815D01*
X102619463Y-73595506D01*
X102560498Y-73705820D01*
X102524188Y-73825518D01*
X102511928Y-73950000D01*
X102511928Y-75650000D01*
X102524188Y-75774482D01*
X102560498Y-75894180D01*
X102619463Y-76004494D01*
X102698815Y-76101185D01*
X102795506Y-76180537D01*
X102905820Y-76239502D01*
X102974687Y-76260393D01*
X102944866Y-76284866D01*
X102759294Y-76510986D01*
X102621401Y-76768966D01*
X102536487Y-77048889D01*
X102507815Y-77340000D01*
X102536487Y-77631111D01*
X102621401Y-77911034D01*
X102759294Y-78169014D01*
X102944866Y-78395134D01*
X103170986Y-78580706D01*
X103225791Y-78610000D01*
X103170986Y-78639294D01*
X102944866Y-78824866D01*
X102759294Y-79050986D01*
X102621401Y-79308966D01*
X102536487Y-79588889D01*
X102507815Y-79880000D01*
X102536487Y-80171111D01*
X102621401Y-80451034D01*
X102759294Y-80709014D01*
X102944866Y-80935134D01*
X103170986Y-81120706D01*
X103225791Y-81150000D01*
X103170986Y-81179294D01*
X102944866Y-81364866D01*
X102759294Y-81590986D01*
X102628762Y-81835195D01*
X102614976Y-81844045D01*
X102575724Y-81865026D01*
X102552121Y-81884396D01*
X102526440Y-81900883D01*
X102494411Y-81931758D01*
X102488997Y-81936201D01*
X102467471Y-81957727D01*
X102418657Y-82004782D01*
X102414648Y-82010550D01*
X101488998Y-82936201D01*
X101460000Y-82959999D01*
X101436202Y-82988997D01*
X101436201Y-82988998D01*
X101365026Y-83075724D01*
X101294454Y-83207754D01*
X101269325Y-83290598D01*
X101250998Y-83351014D01*
X101240264Y-83459999D01*
X101236324Y-83500000D01*
X100660000Y-83500000D01*
X100660000Y-61338967D01*
X104365000Y-61338967D01*
X104365000Y-61661033D01*
X104427832Y-61976912D01*
X104551082Y-62274463D01*
X104730013Y-62542252D01*
X104957748Y-62769987D01*
X105225537Y-62948918D01*
X105523088Y-63072168D01*
X105838967Y-63135000D01*
X106161033Y-63135000D01*
X106476912Y-63072168D01*
X106774463Y-62948918D01*
X107042252Y-62769987D01*
X107176826Y-62635413D01*
X109544192Y-62635413D01*
X109639956Y-62899814D01*
X109929571Y-63040704D01*
X110241108Y-63122384D01*
X110562595Y-63141718D01*
X110881675Y-63097961D01*
X111186088Y-62992795D01*
X111360044Y-62899814D01*
X111455808Y-62635413D01*
X110500000Y-61679605D01*
X109544192Y-62635413D01*
X107176826Y-62635413D01*
X107269987Y-62542252D01*
X107448918Y-62274463D01*
X107572168Y-61976912D01*
X107635000Y-61661033D01*
X107635000Y-61562595D01*
X108858282Y-61562595D01*
X108902039Y-61881675D01*
X109007205Y-62186088D01*
X109100186Y-62360044D01*
X109364587Y-62455808D01*
X110320395Y-61500000D01*
X110679605Y-61500000D01*
X111635413Y-62455808D01*
X111899814Y-62360044D01*
X112040704Y-62070429D01*
X112122384Y-61758892D01*
X112141718Y-61437405D01*
X112097961Y-61118325D01*
X111992795Y-60813912D01*
X111899814Y-60639956D01*
X111635413Y-60544192D01*
X110679605Y-61500000D01*
X110320395Y-61500000D01*
X109364587Y-60544192D01*
X109100186Y-60639956D01*
X108959296Y-60929571D01*
X108877616Y-61241108D01*
X108858282Y-61562595D01*
X107635000Y-61562595D01*
X107635000Y-61338967D01*
X107572168Y-61023088D01*
X107448918Y-60725537D01*
X107269987Y-60457748D01*
X107176826Y-60364587D01*
X109544192Y-60364587D01*
X110500000Y-61320395D01*
X111455808Y-60364587D01*
X111360044Y-60100186D01*
X111070429Y-59959296D01*
X110758892Y-59877616D01*
X110437405Y-59858282D01*
X110118325Y-59902039D01*
X109813912Y-60007205D01*
X109639956Y-60100186D01*
X109544192Y-60364587D01*
X107176826Y-60364587D01*
X107042252Y-60230013D01*
X106774463Y-60051082D01*
X106476912Y-59927832D01*
X106161033Y-59865000D01*
X105838967Y-59865000D01*
X105523088Y-59927832D01*
X105225537Y-60051082D01*
X104957748Y-60230013D01*
X104730013Y-60457748D01*
X104551082Y-60725537D01*
X104427832Y-61023088D01*
X104365000Y-61338967D01*
X100660000Y-61338967D01*
X100660000Y-54838967D01*
X104365000Y-54838967D01*
X104365000Y-55161033D01*
X104427832Y-55476912D01*
X104551082Y-55774463D01*
X104730013Y-56042252D01*
X104957748Y-56269987D01*
X105225537Y-56448918D01*
X105523088Y-56572168D01*
X105838967Y-56635000D01*
X106161033Y-56635000D01*
X106476912Y-56572168D01*
X106774463Y-56448918D01*
X107042252Y-56269987D01*
X107176826Y-56135413D01*
X109544192Y-56135413D01*
X109639956Y-56399814D01*
X109929571Y-56540704D01*
X110241108Y-56622384D01*
X110562595Y-56641718D01*
X110881675Y-56597961D01*
X111186088Y-56492795D01*
X111360044Y-56399814D01*
X111455808Y-56135413D01*
X110500000Y-55179605D01*
X109544192Y-56135413D01*
X107176826Y-56135413D01*
X107269987Y-56042252D01*
X107448918Y-55774463D01*
X107572168Y-55476912D01*
X107635000Y-55161033D01*
X107635000Y-55062595D01*
X108858282Y-55062595D01*
X108902039Y-55381675D01*
X109007205Y-55686088D01*
X109100186Y-55860044D01*
X109364587Y-55955808D01*
X110320395Y-55000000D01*
X110679605Y-55000000D01*
X111635413Y-55955808D01*
X111899814Y-55860044D01*
X112040704Y-55570429D01*
X112122384Y-55258892D01*
X112141718Y-54937405D01*
X112097961Y-54618325D01*
X111992795Y-54313912D01*
X111899814Y-54139956D01*
X111635413Y-54044192D01*
X110679605Y-55000000D01*
X110320395Y-55000000D01*
X109364587Y-54044192D01*
X109100186Y-54139956D01*
X108959296Y-54429571D01*
X108877616Y-54741108D01*
X108858282Y-55062595D01*
X107635000Y-55062595D01*
X107635000Y-54838967D01*
X107572168Y-54523088D01*
X107448918Y-54225537D01*
X107269987Y-53957748D01*
X107176826Y-53864587D01*
X109544192Y-53864587D01*
X110500000Y-54820395D01*
X111455808Y-53864587D01*
X111360044Y-53600186D01*
X111070429Y-53459296D01*
X110758892Y-53377616D01*
X110437405Y-53358282D01*
X110118325Y-53402039D01*
X109813912Y-53507205D01*
X109639956Y-53600186D01*
X109544192Y-53864587D01*
X107176826Y-53864587D01*
X107042252Y-53730013D01*
X106774463Y-53551082D01*
X106476912Y-53427832D01*
X106161033Y-53365000D01*
X105838967Y-53365000D01*
X105523088Y-53427832D01*
X105225537Y-53551082D01*
X104957748Y-53730013D01*
X104730013Y-53957748D01*
X104551082Y-54225537D01*
X104427832Y-54523088D01*
X104365000Y-54838967D01*
X100660000Y-54838967D01*
X100660000Y-50660000D01*
X139340000Y-50660000D01*
X139340001Y-114340000D01*
M02*
