G04 #@! TF.GenerationSoftware,KiCad,Pcbnew,(5.1.4)-1*
G04 #@! TF.CreationDate,2020-08-01T13:26:50+05:30*
G04 #@! TF.ProjectId,knob_32u4,6b6e6f62-5f33-4327-9534-2e6b69636164,rev?*
G04 #@! TF.SameCoordinates,Original*
G04 #@! TF.FileFunction,Soldermask,Bot*
G04 #@! TF.FilePolarity,Negative*
%FSLAX46Y46*%
G04 Gerber Fmt 4.6, Leading zero omitted, Abs format (unit mm)*
G04 Created by KiCad (PCBNEW (5.1.4)-1) date 2020-08-01 13:26:50*
%MOMM*%
%LPD*%
G04 APERTURE LIST*
%ADD10C,0.100000*%
G04 APERTURE END LIST*
D10*
G36*
X104901000Y-111901000D02*
G01*
X103099000Y-111901000D01*
X103099000Y-110099000D01*
X104901000Y-110099000D01*
X104901000Y-111901000D01*
X104901000Y-111901000D01*
G37*
G36*
X104110443Y-107565519D02*
G01*
X104176627Y-107572037D01*
X104346466Y-107623557D01*
X104502991Y-107707222D01*
X104538729Y-107736552D01*
X104640186Y-107819814D01*
X104723448Y-107921271D01*
X104752778Y-107957009D01*
X104836443Y-108113534D01*
X104887963Y-108283373D01*
X104905359Y-108460000D01*
X104887963Y-108636627D01*
X104836443Y-108806466D01*
X104752778Y-108962991D01*
X104723448Y-108998729D01*
X104640186Y-109100186D01*
X104538729Y-109183448D01*
X104502991Y-109212778D01*
X104346466Y-109296443D01*
X104176627Y-109347963D01*
X104110443Y-109354481D01*
X104044260Y-109361000D01*
X103955740Y-109361000D01*
X103889557Y-109354481D01*
X103823373Y-109347963D01*
X103653534Y-109296443D01*
X103497009Y-109212778D01*
X103461271Y-109183448D01*
X103359814Y-109100186D01*
X103276552Y-108998729D01*
X103247222Y-108962991D01*
X103163557Y-108806466D01*
X103112037Y-108636627D01*
X103094641Y-108460000D01*
X103112037Y-108283373D01*
X103163557Y-108113534D01*
X103247222Y-107957009D01*
X103276552Y-107921271D01*
X103359814Y-107819814D01*
X103461271Y-107736552D01*
X103497009Y-107707222D01*
X103653534Y-107623557D01*
X103823373Y-107572037D01*
X103889557Y-107565519D01*
X103955740Y-107559000D01*
X104044260Y-107559000D01*
X104110443Y-107565519D01*
X104110443Y-107565519D01*
G37*
G36*
X104110443Y-105025519D02*
G01*
X104176627Y-105032037D01*
X104346466Y-105083557D01*
X104502991Y-105167222D01*
X104538729Y-105196552D01*
X104640186Y-105279814D01*
X104723448Y-105381271D01*
X104752778Y-105417009D01*
X104836443Y-105573534D01*
X104887963Y-105743373D01*
X104905359Y-105920000D01*
X104887963Y-106096627D01*
X104836443Y-106266466D01*
X104752778Y-106422991D01*
X104723448Y-106458729D01*
X104640186Y-106560186D01*
X104538729Y-106643448D01*
X104502991Y-106672778D01*
X104346466Y-106756443D01*
X104176627Y-106807963D01*
X104110442Y-106814482D01*
X104044260Y-106821000D01*
X103955740Y-106821000D01*
X103889558Y-106814482D01*
X103823373Y-106807963D01*
X103653534Y-106756443D01*
X103497009Y-106672778D01*
X103461271Y-106643448D01*
X103359814Y-106560186D01*
X103276552Y-106458729D01*
X103247222Y-106422991D01*
X103163557Y-106266466D01*
X103112037Y-106096627D01*
X103094641Y-105920000D01*
X103112037Y-105743373D01*
X103163557Y-105573534D01*
X103247222Y-105417009D01*
X103276552Y-105381271D01*
X103359814Y-105279814D01*
X103461271Y-105196552D01*
X103497009Y-105167222D01*
X103653534Y-105083557D01*
X103823373Y-105032037D01*
X103889558Y-105025518D01*
X103955740Y-105019000D01*
X104044260Y-105019000D01*
X104110443Y-105025519D01*
X104110443Y-105025519D01*
G37*
G36*
X104110442Y-102485518D02*
G01*
X104176627Y-102492037D01*
X104346466Y-102543557D01*
X104502991Y-102627222D01*
X104538729Y-102656552D01*
X104640186Y-102739814D01*
X104723448Y-102841271D01*
X104752778Y-102877009D01*
X104836443Y-103033534D01*
X104887963Y-103203373D01*
X104905359Y-103380000D01*
X104887963Y-103556627D01*
X104836443Y-103726466D01*
X104752778Y-103882991D01*
X104723448Y-103918729D01*
X104640186Y-104020186D01*
X104538729Y-104103448D01*
X104502991Y-104132778D01*
X104346466Y-104216443D01*
X104176627Y-104267963D01*
X104110442Y-104274482D01*
X104044260Y-104281000D01*
X103955740Y-104281000D01*
X103889557Y-104274481D01*
X103823373Y-104267963D01*
X103653534Y-104216443D01*
X103497009Y-104132778D01*
X103461271Y-104103448D01*
X103359814Y-104020186D01*
X103276552Y-103918729D01*
X103247222Y-103882991D01*
X103163557Y-103726466D01*
X103112037Y-103556627D01*
X103094641Y-103380000D01*
X103112037Y-103203373D01*
X103163557Y-103033534D01*
X103247222Y-102877009D01*
X103276552Y-102841271D01*
X103359814Y-102739814D01*
X103461271Y-102656552D01*
X103497009Y-102627222D01*
X103653534Y-102543557D01*
X103823373Y-102492037D01*
X103889558Y-102485518D01*
X103955740Y-102479000D01*
X104044260Y-102479000D01*
X104110442Y-102485518D01*
X104110442Y-102485518D01*
G37*
G36*
X133583642Y-100756781D02*
G01*
X133729414Y-100817162D01*
X133729416Y-100817163D01*
X133860608Y-100904822D01*
X133972178Y-101016392D01*
X134059837Y-101147584D01*
X134059838Y-101147586D01*
X134120219Y-101293358D01*
X134151000Y-101448107D01*
X134151000Y-101605893D01*
X134120219Y-101760642D01*
X134059838Y-101906414D01*
X134059837Y-101906416D01*
X133972178Y-102037608D01*
X133860608Y-102149178D01*
X133729416Y-102236837D01*
X133729415Y-102236838D01*
X133729414Y-102236838D01*
X133583642Y-102297219D01*
X133428893Y-102328000D01*
X133271107Y-102328000D01*
X133116358Y-102297219D01*
X132970586Y-102236838D01*
X132970585Y-102236838D01*
X132970584Y-102236837D01*
X132839392Y-102149178D01*
X132727822Y-102037608D01*
X132640163Y-101906416D01*
X132640162Y-101906414D01*
X132579781Y-101760642D01*
X132549000Y-101605893D01*
X132549000Y-101448107D01*
X132579781Y-101293358D01*
X132640162Y-101147586D01*
X132640163Y-101147584D01*
X132727822Y-101016392D01*
X132839392Y-100904822D01*
X132970584Y-100817163D01*
X132970586Y-100817162D01*
X133116358Y-100756781D01*
X133271107Y-100726000D01*
X133428893Y-100726000D01*
X133583642Y-100756781D01*
X133583642Y-100756781D01*
G37*
G36*
X133583642Y-95876781D02*
G01*
X133729414Y-95937162D01*
X133729416Y-95937163D01*
X133860608Y-96024822D01*
X133972178Y-96136392D01*
X134059837Y-96267584D01*
X134059838Y-96267586D01*
X134120219Y-96413358D01*
X134151000Y-96568107D01*
X134151000Y-96725893D01*
X134120219Y-96880642D01*
X134059838Y-97026414D01*
X134059837Y-97026416D01*
X133972178Y-97157608D01*
X133860608Y-97269178D01*
X133729416Y-97356837D01*
X133729415Y-97356838D01*
X133729414Y-97356838D01*
X133583642Y-97417219D01*
X133428893Y-97448000D01*
X133271107Y-97448000D01*
X133116358Y-97417219D01*
X132970586Y-97356838D01*
X132970585Y-97356838D01*
X132970584Y-97356837D01*
X132839392Y-97269178D01*
X132727822Y-97157608D01*
X132640163Y-97026416D01*
X132640162Y-97026414D01*
X132579781Y-96880642D01*
X132549000Y-96725893D01*
X132549000Y-96568107D01*
X132579781Y-96413358D01*
X132640162Y-96267586D01*
X132640163Y-96267584D01*
X132727822Y-96136392D01*
X132839392Y-96024822D01*
X132970584Y-95937163D01*
X132970586Y-95937162D01*
X133116358Y-95876781D01*
X133271107Y-95846000D01*
X133428893Y-95846000D01*
X133583642Y-95876781D01*
X133583642Y-95876781D01*
G37*
G36*
X104110442Y-86605518D02*
G01*
X104176627Y-86612037D01*
X104346466Y-86663557D01*
X104502991Y-86747222D01*
X104538729Y-86776552D01*
X104640186Y-86859814D01*
X104723448Y-86961271D01*
X104752778Y-86997009D01*
X104836443Y-87153534D01*
X104887963Y-87323373D01*
X104905359Y-87500000D01*
X104887963Y-87676627D01*
X104836443Y-87846466D01*
X104752778Y-88002991D01*
X104723448Y-88038729D01*
X104640186Y-88140186D01*
X104538729Y-88223448D01*
X104502991Y-88252778D01*
X104346466Y-88336443D01*
X104176627Y-88387963D01*
X104110443Y-88394481D01*
X104044260Y-88401000D01*
X103955740Y-88401000D01*
X103889557Y-88394481D01*
X103823373Y-88387963D01*
X103653534Y-88336443D01*
X103497009Y-88252778D01*
X103461271Y-88223448D01*
X103359814Y-88140186D01*
X103276552Y-88038729D01*
X103247222Y-88002991D01*
X103163557Y-87846466D01*
X103112037Y-87676627D01*
X103094641Y-87500000D01*
X103112037Y-87323373D01*
X103163557Y-87153534D01*
X103247222Y-86997009D01*
X103276552Y-86961271D01*
X103359814Y-86859814D01*
X103461271Y-86776552D01*
X103497009Y-86747222D01*
X103653534Y-86663557D01*
X103823373Y-86612037D01*
X103889558Y-86605518D01*
X103955740Y-86599000D01*
X104044260Y-86599000D01*
X104110442Y-86605518D01*
X104110442Y-86605518D01*
G37*
G36*
X122806564Y-85489389D02*
G01*
X122997833Y-85568615D01*
X122997835Y-85568616D01*
X123169973Y-85683635D01*
X123316365Y-85830027D01*
X123337061Y-85861000D01*
X123431385Y-86002167D01*
X123510611Y-86193436D01*
X123551000Y-86396484D01*
X123551000Y-86603516D01*
X123510611Y-86806564D01*
X123431726Y-86997009D01*
X123431384Y-86997835D01*
X123316365Y-87169973D01*
X123169973Y-87316365D01*
X122997835Y-87431384D01*
X122997834Y-87431385D01*
X122997833Y-87431385D01*
X122806564Y-87510611D01*
X122603516Y-87551000D01*
X122396484Y-87551000D01*
X122193436Y-87510611D01*
X122002167Y-87431385D01*
X122002166Y-87431385D01*
X122002165Y-87431384D01*
X121830027Y-87316365D01*
X121683635Y-87169973D01*
X121568616Y-86997835D01*
X121568274Y-86997009D01*
X121489389Y-86806564D01*
X121449000Y-86603516D01*
X121449000Y-86396484D01*
X121489389Y-86193436D01*
X121568615Y-86002167D01*
X121662940Y-85861000D01*
X121683635Y-85830027D01*
X121830027Y-85683635D01*
X122002165Y-85568616D01*
X122002167Y-85568615D01*
X122193436Y-85489389D01*
X122396484Y-85449000D01*
X122603516Y-85449000D01*
X122806564Y-85489389D01*
X122806564Y-85489389D01*
G37*
G36*
X120306564Y-85489389D02*
G01*
X120497833Y-85568615D01*
X120497835Y-85568616D01*
X120669973Y-85683635D01*
X120816365Y-85830027D01*
X120837061Y-85861000D01*
X120931385Y-86002167D01*
X121010611Y-86193436D01*
X121051000Y-86396484D01*
X121051000Y-86603516D01*
X121010611Y-86806564D01*
X120931726Y-86997009D01*
X120931384Y-86997835D01*
X120816365Y-87169973D01*
X120669973Y-87316365D01*
X120497835Y-87431384D01*
X120497834Y-87431385D01*
X120497833Y-87431385D01*
X120306564Y-87510611D01*
X120103516Y-87551000D01*
X119896484Y-87551000D01*
X119693436Y-87510611D01*
X119502167Y-87431385D01*
X119502166Y-87431385D01*
X119502165Y-87431384D01*
X119330027Y-87316365D01*
X119183635Y-87169973D01*
X119068616Y-86997835D01*
X119068274Y-86997009D01*
X118989389Y-86806564D01*
X118949000Y-86603516D01*
X118949000Y-86396484D01*
X118989389Y-86193436D01*
X119068615Y-86002167D01*
X119162940Y-85861000D01*
X119183635Y-85830027D01*
X119330027Y-85683635D01*
X119502165Y-85568616D01*
X119502167Y-85568615D01*
X119693436Y-85489389D01*
X119896484Y-85449000D01*
X120103516Y-85449000D01*
X120306564Y-85489389D01*
X120306564Y-85489389D01*
G37*
G36*
X118551000Y-87551000D02*
G01*
X116449000Y-87551000D01*
X116449000Y-85449000D01*
X118551000Y-85449000D01*
X118551000Y-87551000D01*
X118551000Y-87551000D01*
G37*
G36*
X104110443Y-84065519D02*
G01*
X104176627Y-84072037D01*
X104346466Y-84123557D01*
X104502991Y-84207222D01*
X104538729Y-84236552D01*
X104640186Y-84319814D01*
X104723448Y-84421271D01*
X104752778Y-84457009D01*
X104836443Y-84613534D01*
X104887963Y-84783373D01*
X104905359Y-84960000D01*
X104887963Y-85136627D01*
X104836443Y-85306466D01*
X104752778Y-85462991D01*
X104731113Y-85489390D01*
X104640186Y-85600186D01*
X104538729Y-85683448D01*
X104502991Y-85712778D01*
X104346466Y-85796443D01*
X104176627Y-85847963D01*
X104110443Y-85854481D01*
X104044260Y-85861000D01*
X103955740Y-85861000D01*
X103889557Y-85854481D01*
X103823373Y-85847963D01*
X103653534Y-85796443D01*
X103497009Y-85712778D01*
X103461271Y-85683448D01*
X103359814Y-85600186D01*
X103268887Y-85489390D01*
X103247222Y-85462991D01*
X103163557Y-85306466D01*
X103112037Y-85136627D01*
X103094641Y-84960000D01*
X103112037Y-84783373D01*
X103163557Y-84613534D01*
X103247222Y-84457009D01*
X103276552Y-84421271D01*
X103359814Y-84319814D01*
X103461271Y-84236552D01*
X103497009Y-84207222D01*
X103653534Y-84123557D01*
X103823373Y-84072037D01*
X103889557Y-84065519D01*
X103955740Y-84059000D01*
X104044260Y-84059000D01*
X104110443Y-84065519D01*
X104110443Y-84065519D01*
G37*
G36*
X104110443Y-81525519D02*
G01*
X104176627Y-81532037D01*
X104346466Y-81583557D01*
X104502991Y-81667222D01*
X104538729Y-81696552D01*
X104640186Y-81779814D01*
X104723448Y-81881271D01*
X104752778Y-81917009D01*
X104836443Y-82073534D01*
X104887963Y-82243373D01*
X104905359Y-82420000D01*
X104887963Y-82596627D01*
X104836443Y-82766466D01*
X104752778Y-82922991D01*
X104723448Y-82958729D01*
X104640186Y-83060186D01*
X104538729Y-83143448D01*
X104502991Y-83172778D01*
X104346466Y-83256443D01*
X104176627Y-83307963D01*
X104110442Y-83314482D01*
X104044260Y-83321000D01*
X103955740Y-83321000D01*
X103889558Y-83314482D01*
X103823373Y-83307963D01*
X103653534Y-83256443D01*
X103497009Y-83172778D01*
X103461271Y-83143448D01*
X103359814Y-83060186D01*
X103276552Y-82958729D01*
X103247222Y-82922991D01*
X103163557Y-82766466D01*
X103112037Y-82596627D01*
X103094641Y-82420000D01*
X103112037Y-82243373D01*
X103163557Y-82073534D01*
X103247222Y-81917009D01*
X103276552Y-81881271D01*
X103359814Y-81779814D01*
X103461271Y-81696552D01*
X103497009Y-81667222D01*
X103653534Y-81583557D01*
X103823373Y-81532037D01*
X103889557Y-81525519D01*
X103955740Y-81519000D01*
X104044260Y-81519000D01*
X104110443Y-81525519D01*
X104110443Y-81525519D01*
G37*
G36*
X104110442Y-78985518D02*
G01*
X104176627Y-78992037D01*
X104346466Y-79043557D01*
X104502991Y-79127222D01*
X104538729Y-79156552D01*
X104640186Y-79239814D01*
X104723448Y-79341271D01*
X104752778Y-79377009D01*
X104836443Y-79533534D01*
X104887963Y-79703373D01*
X104905359Y-79880000D01*
X104887963Y-80056627D01*
X104836443Y-80226466D01*
X104752778Y-80382991D01*
X104723448Y-80418729D01*
X104640186Y-80520186D01*
X104538729Y-80603448D01*
X104502991Y-80632778D01*
X104346466Y-80716443D01*
X104176627Y-80767963D01*
X104110443Y-80774481D01*
X104044260Y-80781000D01*
X103955740Y-80781000D01*
X103889557Y-80774481D01*
X103823373Y-80767963D01*
X103653534Y-80716443D01*
X103497009Y-80632778D01*
X103461271Y-80603448D01*
X103359814Y-80520186D01*
X103276552Y-80418729D01*
X103247222Y-80382991D01*
X103163557Y-80226466D01*
X103112037Y-80056627D01*
X103094641Y-79880000D01*
X103112037Y-79703373D01*
X103163557Y-79533534D01*
X103247222Y-79377009D01*
X103276552Y-79341271D01*
X103359814Y-79239814D01*
X103461271Y-79156552D01*
X103497009Y-79127222D01*
X103653534Y-79043557D01*
X103823373Y-78992037D01*
X103889558Y-78985518D01*
X103955740Y-78979000D01*
X104044260Y-78979000D01*
X104110442Y-78985518D01*
X104110442Y-78985518D01*
G37*
G36*
X115451000Y-80651000D02*
G01*
X113349000Y-80651000D01*
X113349000Y-77349000D01*
X115451000Y-77349000D01*
X115451000Y-80651000D01*
X115451000Y-80651000D01*
G37*
G36*
X126651000Y-80651000D02*
G01*
X124549000Y-80651000D01*
X124549000Y-77349000D01*
X126651000Y-77349000D01*
X126651000Y-80651000D01*
X126651000Y-80651000D01*
G37*
G36*
X104110442Y-76445518D02*
G01*
X104176627Y-76452037D01*
X104346466Y-76503557D01*
X104502991Y-76587222D01*
X104538729Y-76616552D01*
X104640186Y-76699814D01*
X104723448Y-76801271D01*
X104752778Y-76837009D01*
X104836443Y-76993534D01*
X104887963Y-77163373D01*
X104905359Y-77340000D01*
X104887963Y-77516627D01*
X104836443Y-77686466D01*
X104752778Y-77842991D01*
X104723448Y-77878729D01*
X104640186Y-77980186D01*
X104538729Y-78063448D01*
X104502991Y-78092778D01*
X104346466Y-78176443D01*
X104176627Y-78227963D01*
X104110442Y-78234482D01*
X104044260Y-78241000D01*
X103955740Y-78241000D01*
X103889558Y-78234482D01*
X103823373Y-78227963D01*
X103653534Y-78176443D01*
X103497009Y-78092778D01*
X103461271Y-78063448D01*
X103359814Y-77980186D01*
X103276552Y-77878729D01*
X103247222Y-77842991D01*
X103163557Y-77686466D01*
X103112037Y-77516627D01*
X103094641Y-77340000D01*
X103112037Y-77163373D01*
X103163557Y-76993534D01*
X103247222Y-76837009D01*
X103276552Y-76801271D01*
X103359814Y-76699814D01*
X103461271Y-76616552D01*
X103497009Y-76587222D01*
X103653534Y-76503557D01*
X103823373Y-76452037D01*
X103889558Y-76445518D01*
X103955740Y-76439000D01*
X104044260Y-76439000D01*
X104110442Y-76445518D01*
X104110442Y-76445518D01*
G37*
G36*
X104901000Y-75701000D02*
G01*
X103099000Y-75701000D01*
X103099000Y-73899000D01*
X104901000Y-73899000D01*
X104901000Y-75701000D01*
X104901000Y-75701000D01*
G37*
G36*
X122806564Y-70989389D02*
G01*
X122997833Y-71068615D01*
X122997835Y-71068616D01*
X123169973Y-71183635D01*
X123316365Y-71330027D01*
X123431385Y-71502167D01*
X123510611Y-71693436D01*
X123551000Y-71896484D01*
X123551000Y-72103516D01*
X123510611Y-72306564D01*
X123431385Y-72497833D01*
X123431384Y-72497835D01*
X123316365Y-72669973D01*
X123169973Y-72816365D01*
X122997835Y-72931384D01*
X122997834Y-72931385D01*
X122997833Y-72931385D01*
X122806564Y-73010611D01*
X122603516Y-73051000D01*
X122396484Y-73051000D01*
X122193436Y-73010611D01*
X122002167Y-72931385D01*
X122002166Y-72931385D01*
X122002165Y-72931384D01*
X121830027Y-72816365D01*
X121683635Y-72669973D01*
X121568616Y-72497835D01*
X121568615Y-72497833D01*
X121489389Y-72306564D01*
X121449000Y-72103516D01*
X121449000Y-71896484D01*
X121489389Y-71693436D01*
X121568615Y-71502167D01*
X121683635Y-71330027D01*
X121830027Y-71183635D01*
X122002165Y-71068616D01*
X122002167Y-71068615D01*
X122193436Y-70989389D01*
X122396484Y-70949000D01*
X122603516Y-70949000D01*
X122806564Y-70989389D01*
X122806564Y-70989389D01*
G37*
G36*
X117806564Y-70989389D02*
G01*
X117997833Y-71068615D01*
X117997835Y-71068616D01*
X118169973Y-71183635D01*
X118316365Y-71330027D01*
X118431385Y-71502167D01*
X118510611Y-71693436D01*
X118551000Y-71896484D01*
X118551000Y-72103516D01*
X118510611Y-72306564D01*
X118431385Y-72497833D01*
X118431384Y-72497835D01*
X118316365Y-72669973D01*
X118169973Y-72816365D01*
X117997835Y-72931384D01*
X117997834Y-72931385D01*
X117997833Y-72931385D01*
X117806564Y-73010611D01*
X117603516Y-73051000D01*
X117396484Y-73051000D01*
X117193436Y-73010611D01*
X117002167Y-72931385D01*
X117002166Y-72931385D01*
X117002165Y-72931384D01*
X116830027Y-72816365D01*
X116683635Y-72669973D01*
X116568616Y-72497835D01*
X116568615Y-72497833D01*
X116489389Y-72306564D01*
X116449000Y-72103516D01*
X116449000Y-71896484D01*
X116489389Y-71693436D01*
X116568615Y-71502167D01*
X116683635Y-71330027D01*
X116830027Y-71183635D01*
X117002165Y-71068616D01*
X117002167Y-71068615D01*
X117193436Y-70989389D01*
X117396484Y-70949000D01*
X117603516Y-70949000D01*
X117806564Y-70989389D01*
X117806564Y-70989389D01*
G37*
G36*
X106306564Y-60489389D02*
G01*
X106497833Y-60568615D01*
X106497835Y-60568616D01*
X106669973Y-60683635D01*
X106816365Y-60830027D01*
X106931385Y-61002167D01*
X107010611Y-61193436D01*
X107051000Y-61396484D01*
X107051000Y-61603516D01*
X107010611Y-61806564D01*
X106931385Y-61997833D01*
X106931384Y-61997835D01*
X106816365Y-62169973D01*
X106669973Y-62316365D01*
X106497835Y-62431384D01*
X106497834Y-62431385D01*
X106497833Y-62431385D01*
X106306564Y-62510611D01*
X106103516Y-62551000D01*
X105896484Y-62551000D01*
X105693436Y-62510611D01*
X105502167Y-62431385D01*
X105502166Y-62431385D01*
X105502165Y-62431384D01*
X105330027Y-62316365D01*
X105183635Y-62169973D01*
X105068616Y-61997835D01*
X105068615Y-61997833D01*
X104989389Y-61806564D01*
X104949000Y-61603516D01*
X104949000Y-61396484D01*
X104989389Y-61193436D01*
X105068615Y-61002167D01*
X105183635Y-60830027D01*
X105330027Y-60683635D01*
X105502165Y-60568616D01*
X105502167Y-60568615D01*
X105693436Y-60489389D01*
X105896484Y-60449000D01*
X106103516Y-60449000D01*
X106306564Y-60489389D01*
X106306564Y-60489389D01*
G37*
G36*
X110806564Y-60489389D02*
G01*
X110997833Y-60568615D01*
X110997835Y-60568616D01*
X111169973Y-60683635D01*
X111316365Y-60830027D01*
X111431385Y-61002167D01*
X111510611Y-61193436D01*
X111551000Y-61396484D01*
X111551000Y-61603516D01*
X111510611Y-61806564D01*
X111431385Y-61997833D01*
X111431384Y-61997835D01*
X111316365Y-62169973D01*
X111169973Y-62316365D01*
X110997835Y-62431384D01*
X110997834Y-62431385D01*
X110997833Y-62431385D01*
X110806564Y-62510611D01*
X110603516Y-62551000D01*
X110396484Y-62551000D01*
X110193436Y-62510611D01*
X110002167Y-62431385D01*
X110002166Y-62431385D01*
X110002165Y-62431384D01*
X109830027Y-62316365D01*
X109683635Y-62169973D01*
X109568616Y-61997835D01*
X109568615Y-61997833D01*
X109489389Y-61806564D01*
X109449000Y-61603516D01*
X109449000Y-61396484D01*
X109489389Y-61193436D01*
X109568615Y-61002167D01*
X109683635Y-60830027D01*
X109830027Y-60683635D01*
X110002165Y-60568616D01*
X110002167Y-60568615D01*
X110193436Y-60489389D01*
X110396484Y-60449000D01*
X110603516Y-60449000D01*
X110806564Y-60489389D01*
X110806564Y-60489389D01*
G37*
G36*
X106306564Y-53989389D02*
G01*
X106497833Y-54068615D01*
X106497835Y-54068616D01*
X106669973Y-54183635D01*
X106816365Y-54330027D01*
X106931385Y-54502167D01*
X107010611Y-54693436D01*
X107051000Y-54896484D01*
X107051000Y-55103516D01*
X107010611Y-55306564D01*
X106931385Y-55497833D01*
X106931384Y-55497835D01*
X106816365Y-55669973D01*
X106669973Y-55816365D01*
X106497835Y-55931384D01*
X106497834Y-55931385D01*
X106497833Y-55931385D01*
X106306564Y-56010611D01*
X106103516Y-56051000D01*
X105896484Y-56051000D01*
X105693436Y-56010611D01*
X105502167Y-55931385D01*
X105502166Y-55931385D01*
X105502165Y-55931384D01*
X105330027Y-55816365D01*
X105183635Y-55669973D01*
X105068616Y-55497835D01*
X105068615Y-55497833D01*
X104989389Y-55306564D01*
X104949000Y-55103516D01*
X104949000Y-54896484D01*
X104989389Y-54693436D01*
X105068615Y-54502167D01*
X105183635Y-54330027D01*
X105330027Y-54183635D01*
X105502165Y-54068616D01*
X105502167Y-54068615D01*
X105693436Y-53989389D01*
X105896484Y-53949000D01*
X106103516Y-53949000D01*
X106306564Y-53989389D01*
X106306564Y-53989389D01*
G37*
G36*
X110806564Y-53989389D02*
G01*
X110997833Y-54068615D01*
X110997835Y-54068616D01*
X111169973Y-54183635D01*
X111316365Y-54330027D01*
X111431385Y-54502167D01*
X111510611Y-54693436D01*
X111551000Y-54896484D01*
X111551000Y-55103516D01*
X111510611Y-55306564D01*
X111431385Y-55497833D01*
X111431384Y-55497835D01*
X111316365Y-55669973D01*
X111169973Y-55816365D01*
X110997835Y-55931384D01*
X110997834Y-55931385D01*
X110997833Y-55931385D01*
X110806564Y-56010611D01*
X110603516Y-56051000D01*
X110396484Y-56051000D01*
X110193436Y-56010611D01*
X110002167Y-55931385D01*
X110002166Y-55931385D01*
X110002165Y-55931384D01*
X109830027Y-55816365D01*
X109683635Y-55669973D01*
X109568616Y-55497835D01*
X109568615Y-55497833D01*
X109489389Y-55306564D01*
X109449000Y-55103516D01*
X109449000Y-54896484D01*
X109489389Y-54693436D01*
X109568615Y-54502167D01*
X109683635Y-54330027D01*
X109830027Y-54183635D01*
X110002165Y-54068616D01*
X110002167Y-54068615D01*
X110193436Y-53989389D01*
X110396484Y-53949000D01*
X110603516Y-53949000D01*
X110806564Y-53989389D01*
X110806564Y-53989389D01*
G37*
M02*
